Playpen-Th00ShortSlow.ufo
<glyph name="exclam" format="2">
	<unicode hex="0021"/>
	<advance width="272"/>
	<outline>
		<contour>
			<point x="136" y="173" type="curve" smooth="yes"/>
			<point x="147" y="173"/>
			<point x="151" y="176"/>
			<point x="151" y="185" type="curve" smooth="yes"/>
			<point x="151" y="700" type="line" smooth="yes"/>
			<point x="151" y="709"/>
			<point x="146" y="712"/>
			<point x="136" y="712" type="curve" smooth="yes"/>
			<point x="125" y="712"/>
			<point x="121" y="709"/>
			<point x="121" y="700" type="curve" smooth="yes"/>
			<point x="121" y="185" type="line" smooth="yes"/>
			<point x="121" y="176"/>
			<point x="125" y="173"/>
		</contour>
		<contour>
			<point x="136" y="-11" type="curve" smooth="yes"/>
			<point x="157" y="-11"/>
			<point x="168" y="1"/>
			<point x="168" y="25" type="curve" smooth="yes"/>
			<point x="168" y="49"/>
			<point x="157" y="61"/>
			<point x="136" y="61" type="curve" smooth="yes"/>
			<point x="115" y="61"/>
			<point x="104" y="49"/>
			<point x="104" y="25" type="curve" smooth="yes"/>
			<point x="104" y="1"/>
			<point x="115" y="-11"/>
		</contour>
	</outline>
</glyph>
<glyph name="dollar" format="2">
  <advance width="534"/>
  <unicode hex="0024"/>
  <outline>
    <contour>
      <point x="247" y="-15" type="curve" smooth="yes"/>
      <point x="375" y="-15"/>
      <point x="463" y="67"/>
      <point x="463" y="181" type="curve" smooth="yes"/>
      <point x="463" y="299"/>
      <point x="369" y="334"/>
      <point x="279" y="368" type="curve" smooth="yes"/>
      <point x="192" y="401"/>
      <point x="106" y="435"/>
      <point x="106" y="542" type="curve" smooth="yes"/>
      <point x="106" y="627"/>
      <point x="167" y="682"/>
      <point x="262" y="682" type="curve" smooth="yes"/>
      <point x="329" y="682"/>
      <point x="380" y="656"/>
      <point x="425" y="619" type="curve" smooth="yes"/>
      <point x="436" y="610"/>
      <point x="441" y="607"/>
      <point x="450" y="616" type="curve" smooth="yes"/>
      <point x="457" y="623"/>
      <point x="457" y="628"/>
      <point x="448" y="636" type="curve" smooth="yes"/>
      <point x="406" y="674"/>
      <point x="347" y="712"/>
      <point x="262" y="712" type="curve" smooth="yes"/>
      <point x="161" y="712"/>
      <point x="74" y="648"/>
      <point x="74" y="542" type="curve" smooth="yes"/>
      <point x="74" y="418"/>
      <point x="168" y="380"/>
      <point x="262" y="343" type="curve" smooth="yes"/>
      <point x="348" y="309"/>
      <point x="431" y="278"/>
      <point x="431" y="181" type="curve" smooth="yes"/>
      <point x="431" y="80"/>
      <point x="355" y="15"/>
      <point x="247" y="15" type="curve" smooth="yes"/>
      <point x="175" y="15"/>
      <point x="111" y="37"/>
      <point x="70" y="81" type="curve" smooth="yes"/>
      <point x="60" y="92"/>
      <point x="54" y="91"/>
      <point x="47" y="85" type="curve" smooth="yes"/>
      <point x="39" y="78"/>
      <point x="39" y="72"/>
      <point x="48" y="62" type="curve" smooth="yes"/>
      <point x="93" y="10"/>
      <point x="169" y="-15"/>
    </contour>
    <contour>
      <point x="264" y="-101" type="curve" smooth="yes"/>
      <point x="275" y="-101"/>
      <point x="279" y="-98"/>
      <point x="279" y="-89" type="curve" smooth="yes"/>
      <point x="279" y="797" type="line" smooth="yes"/>
      <point x="279" y="806"/>
      <point x="274" y="809"/>
      <point x="264" y="809" type="curve" smooth="yes"/>
      <point x="253" y="809"/>
      <point x="249" y="806"/>
      <point x="249" y="797" type="curve" smooth="yes"/>
      <point x="249" y="-89" type="line" smooth="yes"/>
      <point x="249" y="-98"/>
      <point x="253" y="-101"/>
    </contour>
  </outline>
</glyph>
<glyph name="percent" format="2">
  <advance width="825"/>
  <unicode hex="0025"/>
  <outline>
    <contour>
      <point x="219" y="513" type="curve" smooth="yes"/>
      <point x="313" y="513"/>
      <point x="375" y="590"/>
      <point x="375" y="701" type="curve" smooth="yes"/>
      <point x="375" y="813"/>
      <point x="310" y="890"/>
      <point x="219" y="890" type="curve" smooth="yes"/>
      <point x="129" y="890"/>
      <point x="63" y="813"/>
      <point x="63" y="701" type="curve" smooth="yes"/>
      <point x="63" y="590"/>
      <point x="123" y="513"/>
    </contour>
    <contour>
      <point x="219" y="546" type="curve" smooth="yes"/>
      <point x="145" y="546"/>
      <point x="100" y="610"/>
      <point x="100" y="701" type="curve" smooth="yes"/>
      <point x="100" y="793"/>
      <point x="145" y="856"/>
      <point x="219" y="856" type="curve" smooth="yes"/>
      <point x="293" y="856"/>
      <point x="338" y="793"/>
      <point x="338" y="701" type="curve" smooth="yes"/>
      <point x="338" y="610"/>
      <point x="293" y="546"/>
    </contour>
    <contour>
      <point x="163" y="-12" type="curve"/>
      <point x="685" y="864" type="line" smooth="yes"/>
      <point x="689" y="871"/>
      <point x="685" y="879"/>
      <point x="676" y="885" type="curve"/>
      <point x="664" y="893"/>
      <point x="656" y="891"/>
      <point x="653" y="883" type="curve"/>
      <point x="130" y="6" type="line" smooth="yes"/>
      <point x="125" y="-2"/>
      <point x="128" y="-9"/>
      <point x="139" y="-15" type="curve" smooth="yes"/>
      <point x="150" y="-22"/>
      <point x="158" y="-21"/>
    </contour>
    <contour>
      <point x="604" y="-19" type="curve" smooth="yes"/>
      <point x="698" y="-19"/>
      <point x="760" y="59"/>
      <point x="760" y="170" type="curve" smooth="yes"/>
      <point x="760" y="281"/>
      <point x="695" y="359"/>
      <point x="604" y="359" type="curve" smooth="yes"/>
      <point x="514" y="359"/>
      <point x="448" y="281"/>
      <point x="448" y="170" type="curve" smooth="yes"/>
      <point x="448" y="59"/>
      <point x="508" y="-19"/>
    </contour>
    <contour>
      <point x="604" y="15" type="curve" smooth="yes"/>
      <point x="530" y="15"/>
      <point x="485" y="79"/>
      <point x="485" y="170" type="curve" smooth="yes"/>
      <point x="485" y="261"/>
      <point x="530" y="325"/>
      <point x="604" y="325" type="curve" smooth="yes"/>
      <point x="678" y="325"/>
      <point x="723" y="261"/>
      <point x="723" y="170" type="curve" smooth="yes"/>
      <point x="723" y="79"/>
      <point x="678" y="15"/>
    </contour>
  </outline>
</glyph>
<glyph name="ampersand" format="2">
  <advance width="853"/>
  <unicode hex="0026"/>
  <outline>
    <contour>
      <point x="338" y="-19" type="curve" smooth="yes"/>
      <point x="440" y="-19"/>
      <point x="537" y="29"/>
      <point x="608" y="113" type="curve"/>
      <point x="729" y="-12" type="line" smooth="yes"/>
      <point x="738" y="-22"/>
      <point x="748" y="-20"/>
      <point x="755" y="-11" type="curve"/>
      <point x="765" y="-2"/>
      <point x="765" y="4"/>
      <point x="758" y="13" type="curve"/>
      <point x="631" y="144" type="line"/>
      <point x="687" y="222"/>
      <point x="721" y="326"/>
      <point x="721" y="446" type="curve" smooth="yes"/>
      <point x="721" y="458"/>
      <point x="716" y="461"/>
      <point x="703" y="461" type="curve" smooth="yes"/>
      <point x="689" y="461"/>
      <point x="684" y="458"/>
      <point x="684" y="446" type="curve" smooth="yes"/>
      <point x="684" y="336"/>
      <point x="653" y="242"/>
      <point x="605" y="171" type="curve"/>
      <point x="312" y="473" type="line"/>
      <point x="423" y="532"/>
      <point x="543" y="581"/>
      <point x="543" y="711" type="curve" smooth="yes"/>
      <point x="543" y="825"/>
      <point x="454" y="890"/>
      <point x="353" y="890" type="curve" smooth="yes"/>
      <point x="236" y="890"/>
      <point x="154" y="804"/>
      <point x="154" y="689" type="curve" smooth="yes"/>
      <point x="154" y="588"/>
      <point x="199" y="535"/>
      <point x="253" y="480" type="curve"/>
      <point x="165" y="430"/>
      <point x="88" y="364"/>
      <point x="88" y="236" type="curve" smooth="yes"/>
      <point x="88" y="85"/>
      <point x="188" y="-19"/>
    </contour>
    <contour>
      <point x="338" y="19" type="curve" smooth="yes"/>
      <point x="213" y="19"/>
      <point x="128" y="101"/>
      <point x="128" y="236" type="curve" smooth="yes"/>
      <point x="128" y="347"/>
      <point x="196" y="407"/>
      <point x="278" y="454" type="curve"/>
      <point x="582" y="140" type="line"/>
      <point x="517" y="63"/>
      <point x="428" y="19"/>
    </contour>
    <contour>
      <point x="287" y="498" type="curve"/>
      <point x="240" y="549"/>
      <point x="194" y="603"/>
      <point x="194" y="689" type="curve" smooth="yes"/>
      <point x="194" y="778"/>
      <point x="244" y="853"/>
      <point x="353" y="853" type="curve" smooth="yes"/>
      <point x="444" y="853"/>
      <point x="503" y="799"/>
      <point x="503" y="711" type="curve" smooth="yes"/>
      <point x="503" y="598"/>
      <point x="394" y="554"/>
    </contour>
  </outline>
</glyph>
<glyph name="quotesingle" format="2">
  <advance width="169"/>
  <unicode hex="0027"/>
  <outline>
    <contour>
      <point x="84" y="660" type="curve" smooth="yes"/>
      <point x="96" y="660"/>
      <point x="104" y="669"/>
      <point x="104" y="683" type="curve" smooth="yes"/>
      <point x="115" y="869" type="line" smooth="yes"/>
      <point x="116" y="883"/>
      <point x="106" y="894"/>
      <point x="84" y="894" type="curve" smooth="yes"/>
      <point x="63" y="894"/>
      <point x="53" y="883"/>
      <point x="54" y="869" type="curve" smooth="yes"/>
      <point x="65" y="680" type="line" smooth="yes"/>
      <point x="65" y="668"/>
      <point x="73" y="660"/>
    </contour>
  </outline>
</glyph>
<glyph name="parenright" format="2">
	<unicode hex="0029"/>
	<advance width="229"/>
	<outline>
		<contour>
			<point x="47" y="-43" type="curve" smooth="yes"/>
			<point x="42" y="-53"/>
			<point x="45" y="-56"/>
			<point x="54" y="-60" type="curve" smooth="yes"/>
			<point x="64" y="-64"/>
			<point x="67" y="-63"/>
			<point x="71" y="-55" type="curve" smooth="yes"/>
			<point x="134" y="84"/>
			<point x="164" y="217"/>
			<point x="164" y="350" type="curve" smooth="yes"/>
			<point x="164" y="483"/>
			<point x="134" y="616"/>
			<point x="71" y="755" type="curve" smooth="yes"/>
			<point x="67" y="763"/>
			<point x="64" y="764"/>
			<point x="54" y="760" type="curve" smooth="yes"/>
			<point x="45" y="756"/>
			<point x="42" y="753"/>
			<point x="47" y="743" type="curve" smooth="yes"/>
			<point x="104" y="616"/>
			<point x="134" y="483"/>
			<point x="134" y="350" type="curve" smooth="yes"/>
			<point x="134" y="217"/>
			<point x="104" y="84"/>
		</contour>
	</outline>
</glyph>
<glyph name="hyphen" format="2">
  <advance width="576"/>
  <unicode hex="002D"/>
  <outline>
    <contour>
      <point x="128" y="325" type="curve" smooth="yes"/>
      <point x="448" y="325" type="line" smooth="yes"/>
      <point x="459" y="325"/>
      <point x="463" y="330"/>
      <point x="463" y="341" type="curve" smooth="yes"/>
      <point x="463" y="354"/>
      <point x="459" y="360"/>
      <point x="448" y="360" type="curve" smooth="yes"/>
      <point x="128" y="360" type="line" smooth="yes"/>
      <point x="116" y="360"/>
      <point x="113" y="354"/>
      <point x="113" y="341" type="curve" smooth="yes"/>
      <point x="113" y="330"/>
      <point x="116" y="325"/>
    </contour>
  </outline>
</glyph>
<glyph name="zero" format="2">
	<unicode hex="0030"/>
	<advance width="610"/>
	<outline>
		<contour>
			<point x="306" y="-15" type="curve" smooth="yes"/>
			<point x="442" y="-15"/>
			<point x="545" y="97"/>
			<point x="545" y="349" type="curve" smooth="yes"/>
			<point x="545" y="600"/>
			<point x="442" y="712"/>
			<point x="306" y="712" type="curve" smooth="yes"/>
			<point x="168" y="712"/>
			<point x="65" y="600"/>
			<point x="65" y="349" type="curve" smooth="yes"/>
			<point x="65" y="97"/>
			<point x="168" y="-15"/>
		</contour>
		<contour>
			<point x="306" y="15" type="curve" smooth="yes"/>
			<point x="183" y="15"/>
			<point x="98" y="121"/>
			<point x="98" y="349" type="curve" smooth="yes"/>
			<point x="98" y="577"/>
			<point x="183" y="682"/>
			<point x="306" y="682" type="curve" smooth="yes"/>
			<point x="427" y="682"/>
			<point x="512" y="577"/>
			<point x="512" y="349" type="curve" smooth="yes"/>
			<point x="512" y="121"/>
			<point x="427" y="15"/>
		</contour>
	</outline>
</glyph>
<glyph name="two" format="2">
	<unicode hex="0032"/>
	<advance width="530"/>
	<outline>
		<contour>
			<point x="61" y="0" type="curve" smooth="yes"/>
			<point x="454" y="0" type="line" smooth="yes"/>
			<point x="459" y="0"/>
			<point x="463" y="5"/>
			<point x="463" y="15" type="curve" smooth="yes"/>
			<point x="463" y="25"/>
			<point x="459" y="28"/>
			<point x="454" y="28" type="curve" smooth="yes"/>
			<point x="98" y="28" type="line"/>
			<point x="190" y="120" type="line" smooth="yes"/>
			<point x="318" y="248"/>
			<point x="452" y="403"/>
			<point x="452" y="534" type="curve" smooth="yes"/>
			<point x="452" y="656"/>
			<point x="368" y="712"/>
			<point x="261" y="712" type="curve" smooth="yes"/>
			<point x="178" y="712"/>
			<point x="104" y="676"/>
			<point x="67" y="633" type="curve" smooth="yes"/>
			<point x="63" y="628"/>
			<point x="57" y="620"/>
			<point x="68" y="612" type="curve" smooth="yes"/>
			<point x="77" y="605"/>
			<point x="84" y="608"/>
			<point x="90" y="614" type="curve" smooth="yes"/>
			<point x="137" y="657"/>
			<point x="189" y="682"/>
			<point x="261" y="682" type="curve" smooth="yes"/>
			<point x="355" y="682"/>
			<point x="420" y="638"/>
			<point x="420" y="532" type="curve" smooth="yes"/>
			<point x="420" y="413"/>
			<point x="300" y="271"/>
			<point x="176" y="146" type="curve" smooth="yes"/>
			<point x="49" y="18" type="line"/>
			<point x="45" y="13"/>
			<point x="47" y="0"/>
		</contour>
	</outline>
	<guideline x="59"/>
	<guideline x="-256"/>
	<guideline x="-238"/>
	<guideline x="473"/>
</glyph>
<glyph name="three" format="2">
  <advance width="530"/>
  <unicode hex="0033"/>
  <outline>
    <contour>
      <point x="252" y="-15" type="curve" smooth="yes"/>
      <point x="387" y="-15"/>
      <point x="464" y="73"/>
      <point x="464" y="200" type="curve" smooth="yes"/>
      <point x="464" y="289"/>
      <point x="412" y="357"/>
      <point x="309" y="378" type="curve"/>
      <point x="398" y="405"/>
      <point x="434" y="477"/>
      <point x="434" y="543" type="curve" smooth="yes"/>
      <point x="434" y="659"/>
      <point x="351" y="712"/>
      <point x="248" y="712" type="curve" smooth="yes"/>
      <point x="168" y="712"/>
      <point x="101" y="678"/>
      <point x="61" y="636" type="curve" smooth="yes"/>
      <point x="57" y="631"/>
      <point x="50" y="625"/>
      <point x="61" y="615" type="curve" smooth="yes"/>
      <point x="69" y="607"/>
      <point x="78" y="611"/>
      <point x="84" y="617" type="curve" smooth="yes"/>
      <point x="133" y="660"/>
      <point x="180" y="682"/>
      <point x="248" y="682" type="curve" smooth="yes"/>
      <point x="330" y="682"/>
      <point x="402" y="641"/>
      <point x="402" y="544" type="curve" smooth="yes"/>
      <point x="402" y="467"/>
      <point x="354" y="391"/>
      <point x="245" y="391" type="curve" smooth="yes"/>
      <point x="190" y="391" type="line" smooth="yes"/>
      <point x="185" y="391"/>
      <point x="181" y="387"/>
      <point x="181" y="377" type="curve" smooth="yes"/>
      <point x="181" y="367"/>
      <point x="185" y="363"/>
      <point x="190" y="363" type="curve" smooth="yes"/>
      <point x="242" y="363" type="line" smooth="yes"/>
      <point x="357" y="363"/>
      <point x="431" y="300"/>
      <point x="431" y="203" type="curve" smooth="yes"/>
      <point x="431" y="88"/>
      <point x="365" y="15"/>
      <point x="251" y="15" type="curve" smooth="yes"/>
      <point x="177" y="15"/>
      <point x="122" y="44"/>
      <point x="63" y="114" type="curve" smooth="yes"/>
      <point x="55" y="123"/>
      <point x="50" y="123"/>
      <point x="42" y="116" type="curve" smooth="yes"/>
      <point x="33" y="109"/>
      <point x="35" y="102"/>
      <point x="43" y="92" type="curve" smooth="yes"/>
      <point x="107" y="12"/>
      <point x="178" y="-15"/>
    </contour>
  </outline>
</glyph>
<glyph name="five" format="2">
	<unicode hex="0035"/>
	<advance width="530"/>
	<outline>
		<contour>
			<point x="262" y="-15" type="curve" smooth="yes"/>
			<point x="392" y="-15"/>
			<point x="475" y="71"/>
			<point x="475" y="217" type="curve" smooth="yes"/>
			<point x="475" y="345"/>
			<point x="396" y="432"/>
			<point x="266" y="432" type="curve" smooth="yes"/>
			<point x="211" y="432"/>
			<point x="159" y="410"/>
			<point x="125" y="382" type="curve"/>
			<point x="136" y="672" type="line"/>
			<point x="435" y="672" type="line" smooth="yes"/>
			<point x="440" y="672"/>
			<point x="444" y="677"/>
			<point x="444" y="687" type="curve" smooth="yes"/>
			<point x="444" y="697"/>
			<point x="440" y="700"/>
			<point x="435" y="700" type="curve" smooth="yes"/>
			<point x="124" y="700" type="line" smooth="yes"/>
			<point x="113" y="700"/>
			<point x="108" y="697"/>
			<point x="108" y="688" type="curve" smooth="yes"/>
			<point x="95" y="347" type="line" smooth="yes"/>
			<point x="95" y="337"/>
			<point x="112" y="331"/>
			<point x="118" y="338" type="curve" smooth="yes"/>
			<point x="156" y="385"/>
			<point x="208" y="403"/>
			<point x="265" y="403" type="curve" smooth="yes"/>
			<point x="373" y="403"/>
			<point x="442" y="325"/>
			<point x="442" y="217" type="curve" smooth="yes"/>
			<point x="442" y="90"/>
			<point x="378" y="14"/>
			<point x="266" y="14" type="curve" smooth="yes"/>
			<point x="192" y="14"/>
			<point x="138" y="44"/>
			<point x="83" y="114" type="curve" smooth="yes"/>
			<point x="76" y="123"/>
			<point x="70" y="122"/>
			<point x="63" y="116" type="curve" smooth="yes"/>
			<point x="53" y="109"/>
			<point x="56" y="102"/>
			<point x="63" y="92" type="curve" smooth="yes"/>
			<point x="112" y="20"/>
			<point x="188" y="-15"/>
		</contour>
	</outline>
</glyph>
<glyph name="six" format="2">
	<unicode hex="0036"/>
	<advance width="570"/>
	<outline>
		<contour>
			<point x="300" y="-15" type="curve" smooth="yes"/>
			<point x="430" y="-15"/>
			<point x="510" y="78"/>
			<point x="510" y="214" type="curve" smooth="yes"/>
			<point x="510" y="345"/>
			<point x="432" y="422"/>
			<point x="306" y="422" type="curve" smooth="yes"/>
			<point x="211" y="422"/>
			<point x="123" y="359"/>
			<point x="96" y="273" type="curve"/>
			<point x="102" y="233" type="line"/>
			<point x="126" y="323"/>
			<point x="212" y="393"/>
			<point x="305" y="393" type="curve" smooth="yes"/>
			<point x="411" y="393"/>
			<point x="477" y="325"/>
			<point x="477" y="214" type="curve" smooth="yes"/>
			<point x="477" y="96"/>
			<point x="411" y="15"/>
			<point x="300" y="15" type="curve" smooth="yes"/>
			<point x="195" y="15"/>
			<point x="113" y="104"/>
			<point x="113" y="274" type="curve" smooth="yes"/>
			<point x="113" y="491"/>
			<point x="174" y="666"/>
			<point x="424" y="686" type="curve" smooth="yes"/>
			<point x="434" y="687"/>
			<point x="435" y="693"/>
			<point x="434" y="701" type="curve" smooth="yes"/>
			<point x="433" y="713"/>
			<point x="428" y="713"/>
			<point x="412" y="712" type="curve" smooth="yes"/>
			<point x="156" y="693"/>
			<point x="80" y="504"/>
			<point x="80" y="280" type="curve" smooth="yes"/>
			<point x="80" y="104"/>
			<point x="157" y="-15"/>
		</contour>
	</outline>
	<guideline x="290"/>
</glyph>
<glyph name="seven" format="2">
	<unicode hex="0037"/>
	<advance width="430"/>
	<outline>
		<contour>
			<point x="116" y="-10" type="curve" smooth="yes"/>
			<point x="127" y="-14"/>
			<point x="131" y="-11"/>
			<point x="136" y="2" type="curve" smooth="yes"/>
			<point x="412" y="685" type="line" smooth="yes"/>
			<point x="416" y="695"/>
			<point x="409" y="700"/>
			<point x="402" y="700" type="curve" smooth="yes"/>
			<point x="25" y="700" type="line" smooth="yes"/>
			<point x="20" y="700"/>
			<point x="16" y="697"/>
			<point x="16" y="687" type="curve" smooth="yes"/>
			<point x="16" y="677"/>
			<point x="20" y="672"/>
			<point x="25" y="672" type="curve" smooth="yes"/>
			<point x="377" y="672" type="line"/>
			<point x="108" y="7" type="line" smooth="yes"/>
			<point x="105" y="-2"/>
			<point x="106" y="-6"/>
		</contour>
	</outline>
</glyph>
<glyph name="eight" format="2">
  <advance width="663"/>
  <unicode hex="0038"/>
  <outline>
    <contour>
      <point x="331" y="-19" type="curve" smooth="yes"/>
      <point x="496" y="-19"/>
      <point x="598" y="76"/>
      <point x="598" y="233" type="curve" smooth="yes"/>
      <point x="598" y="331"/>
      <point x="538" y="419"/>
      <point x="390" y="471" type="curve"/>
      <point x="510" y="518"/>
      <point x="560" y="610"/>
      <point x="560" y="689" type="curve" smooth="yes"/>
      <point x="560" y="834"/>
      <point x="459" y="890"/>
      <point x="336" y="890" type="curve" smooth="yes"/>
      <point x="213" y="890"/>
      <point x="104" y="821"/>
      <point x="104" y="676" type="curve" smooth="yes"/>
      <point x="104" y="596"/>
      <point x="153" y="513"/>
      <point x="278" y="470" type="curve"/>
      <point x="134" y="418"/>
      <point x="66" y="320"/>
      <point x="66" y="211" type="curve" smooth="yes"/>
      <point x="66" y="69"/>
      <point x="166" y="-19"/>
    </contour>
    <contour>
      <point x="333" y="18" type="curve" smooth="yes"/>
      <point x="193" y="18"/>
      <point x="108" y="93"/>
      <point x="108" y="215" type="curve" smooth="yes"/>
      <point x="108" y="331"/>
      <point x="193" y="414"/>
      <point x="334" y="451" type="curve"/>
      <point x="471" y="414"/>
      <point x="556" y="343"/>
      <point x="556" y="229" type="curve" smooth="yes"/>
      <point x="556" y="98"/>
      <point x="471" y="18"/>
    </contour>
    <contour>
      <point x="338" y="486" type="curve"/>
      <point x="205" y="519"/>
      <point x="145" y="595"/>
      <point x="145" y="678" type="curve" smooth="yes"/>
      <point x="145" y="799"/>
      <point x="235" y="854"/>
      <point x="333" y="854" type="curve" smooth="yes"/>
      <point x="430" y="854"/>
      <point x="519" y="811"/>
      <point x="519" y="690" type="curve" smooth="yes"/>
      <point x="519" y="608"/>
      <point x="463" y="520"/>
    </contour>
  </outline>
</glyph>
<glyph name="greater" format="2">
  <advance width="610"/>
  <unicode hex="003E"/>
  <outline>
    <contour>
      <point x="98" y="143" type="curve" smooth="yes"/>
      <point x="505" y="324" type="line" smooth="yes"/>
      <point x="523" y="332"/>
      <point x="530" y="336"/>
      <point x="530" y="349" type="curve" smooth="yes"/>
      <point x="530" y="363"/>
      <point x="523" y="366"/>
      <point x="505" y="374" type="curve" smooth="yes"/>
      <point x="98" y="555" type="line" smooth="yes"/>
      <point x="89" y="559"/>
      <point x="83" y="558"/>
      <point x="80" y="549" type="curve" smooth="yes"/>
      <point x="77" y="541"/>
      <point x="77" y="534"/>
      <point x="86" y="530" type="curve" smooth="yes"/>
      <point x="493" y="349" type="line"/>
      <point x="86" y="168" type="line" smooth="yes"/>
      <point x="77" y="164"/>
      <point x="77" y="157"/>
      <point x="80" y="149" type="curve" smooth="yes"/>
      <point x="83" y="140"/>
      <point x="89" y="139"/>
    </contour>
  </outline>
</glyph>
<glyph name="question" format="2">
  <advance width="398"/>
  <unicode hex="003F"/>
  <outline>
    <contour>
      <point x="156" y="173" type="curve" smooth="yes"/>
      <point x="167" y="173"/>
      <point x="171" y="175"/>
      <point x="171" y="185" type="curve" smooth="yes"/>
      <point x="171" y="310" type="line"/>
      <point x="274" y="318"/>
      <point x="373" y="368"/>
      <point x="373" y="515" type="curve" smooth="yes"/>
      <point x="373" y="645"/>
      <point x="293" y="712"/>
      <point x="198" y="712" type="curve" smooth="yes"/>
      <point x="122" y="712"/>
      <point x="57" y="679"/>
      <point x="20" y="636" type="curve" smooth="yes"/>
      <point x="16" y="631"/>
      <point x="12" y="624"/>
      <point x="21" y="615" type="curve" smooth="yes"/>
      <point x="29" y="607"/>
      <point x="37" y="611"/>
      <point x="43" y="617" type="curve" smooth="yes"/>
      <point x="89" y="660"/>
      <point x="134" y="682"/>
      <point x="198" y="682" type="curve" smooth="yes"/>
      <point x="273" y="682"/>
      <point x="341" y="627"/>
      <point x="341" y="517" type="curve" smooth="yes"/>
      <point x="341" y="375"/>
      <point x="243" y="339"/>
      <point x="151" y="338" type="curve" smooth="yes"/>
      <point x="145" y="338"/>
      <point x="141" y="334"/>
      <point x="141" y="324" type="curve" smooth="yes"/>
      <point x="141" y="186" type="line" smooth="yes"/>
      <point x="141" y="175"/>
      <point x="145" y="173"/>
    </contour>
    <contour>
      <point x="156" y="-11" type="curve" smooth="yes"/>
      <point x="177" y="-11"/>
      <point x="188" y="1"/>
      <point x="188" y="25" type="curve" smooth="yes"/>
      <point x="188" y="49"/>
      <point x="177" y="61"/>
      <point x="156" y="61" type="curve" smooth="yes"/>
      <point x="135" y="61"/>
      <point x="124" y="49"/>
      <point x="124" y="25" type="curve" smooth="yes"/>
      <point x="124" y="1"/>
      <point x="135" y="-11"/>
    </contour>
  </outline>
</glyph>
<glyph name="at" format="2">
  <advance width="702"/>
  <unicode hex="0040"/>
  <outline>
    <contour>
      <point x="219" y="200" type="curve" smooth="yes"/>
      <point x="219" y="99"/>
      <point x="270" y="42"/>
      <point x="338" y="42" type="curve" smooth="yes"/>
      <point x="377" y="42"/>
      <point x="418" y="59"/>
      <point x="444" y="112" type="curve"/>
      <point x="444" y="108"/>
      <point x="444" y="103"/>
      <point x="444" y="99" type="curve" smooth="yes"/>
      <point x="444" y="63"/>
      <point x="464" y="42"/>
      <point x="501" y="42" type="curve" smooth="yes"/>
      <point x="576" y="42"/>
      <point x="656" y="121"/>
      <point x="656" y="247" type="curve" smooth="yes"/>
      <point x="656" y="412"/>
      <point x="544" y="515"/>
      <point x="363" y="515" type="curve" smooth="yes"/>
      <point x="170" y="515"/>
      <point x="58" y="377"/>
      <point x="58" y="204" type="curve" smooth="yes"/>
      <point x="58" y="31"/>
      <point x="161" y="-107"/>
      <point x="355" y="-107" type="curve" smooth="yes"/>
      <point x="414" y="-107"/>
      <point x="472" y="-96"/>
      <point x="523" y="-72" type="curve" smooth="yes"/>
      <point x="530" y="-69"/>
      <point x="533" y="-63"/>
      <point x="529" y="-54" type="curve" smooth="yes"/>
      <point x="525" y="-46"/>
      <point x="520" y="-43"/>
      <point x="513" y="-46" type="curve" smooth="yes"/>
      <point x="465" y="-68"/>
      <point x="408" y="-81"/>
      <point x="355" y="-81" type="curve" smooth="yes"/>
      <point x="177" y="-81"/>
      <point x="84" y="47"/>
      <point x="84" y="204" type="curve" smooth="yes"/>
      <point x="84" y="361"/>
      <point x="186" y="489"/>
      <point x="363" y="489" type="curve" smooth="yes"/>
      <point x="527" y="489"/>
      <point x="630" y="395"/>
      <point x="630" y="247" type="curve" smooth="yes"/>
      <point x="630" y="132"/>
      <point x="560" y="67"/>
      <point x="500" y="67" type="curve" smooth="yes"/>
      <point x="480" y="67"/>
      <point x="471" y="81"/>
      <point x="471" y="108" type="curve" smooth="yes"/>
      <point x="471" y="360" type="line" smooth="yes"/>
      <point x="471" y="367"/>
      <point x="468" y="370"/>
      <point x="458" y="370" type="curve" smooth="yes"/>
      <point x="449" y="370"/>
      <point x="444" y="367"/>
      <point x="444" y="360" type="curve" smooth="yes"/>
      <point x="444" y="348" type="line"/>
      <point x="416" y="365"/>
      <point x="388" y="373"/>
      <point x="362" y="373" type="curve" smooth="yes"/>
      <point x="270" y="373"/>
      <point x="219" y="301"/>
    </contour>
    <contour>
      <point x="249" y="202" type="curve" smooth="yes"/>
      <point x="249" y="295"/>
      <point x="293" y="347"/>
      <point x="361" y="347" type="curve" smooth="yes"/>
      <point x="387" y="347"/>
      <point x="414" y="341"/>
      <point x="444" y="321" type="curve"/>
      <point x="444" y="166" type="line"/>
      <point x="425" y="92"/>
      <point x="383" y="68"/>
      <point x="344" y="68" type="curve" smooth="yes"/>
      <point x="281" y="68"/>
      <point x="249" y="124"/>
    </contour>
  </outline>
</glyph>
<glyph name="A" format="2">
	<unicode hex="0041"/>
	<advance width="600"/>
	<outline>
		<contour>
			<point x="35" y="-10" type="curve" smooth="yes"/>
			<point x="46" y="-14"/>
			<point x="50" y="-11"/>
			<point x="55" y="2" type="curve" smooth="yes"/>
			<point x="134" y="217" type="line"/>
			<point x="466" y="217" type="line"/>
			<point x="545" y="2" type="line" smooth="yes"/>
			<point x="550" y="-11"/>
			<point x="554" y="-14"/>
			<point x="565" y="-10" type="curve" smooth="yes"/>
			<point x="575" y="-6"/>
			<point x="576" y="-2"/>
			<point x="573" y="7" type="curve" smooth="yes"/>
			<point x="317" y="700" type="line" smooth="yes"/>
			<point x="314" y="709"/>
			<point x="310" y="712"/>
			<point x="300" y="712" type="curve" smooth="yes"/>
			<point x="289" y="712"/>
			<point x="285" y="709"/>
			<point x="282" y="700" type="curve" smooth="yes"/>
			<point x="27" y="7" type="line" smooth="yes"/>
			<point x="24" y="-2"/>
			<point x="25" y="-6"/>
		</contour>
		<contour>
			<point x="144" y="245" type="line"/>
			<point x="300" y="667" type="line"/>
			<point x="455" y="245" type="line"/>
		</contour>
	</outline>
	<anchor name="bottom" x="300" y="0"/>
	<anchor name="ogonek" x="574" y="-2"/>
	<anchor name="top" x="300" y="670"/>
</glyph>
<glyph name="B" format="2">
	<unicode hex="0042"/>
	<advance width="580"/>
	<outline>
		<contour>
			<point x="135" y="0" type="curve" smooth="yes"/>
			<point x="277" y="0" type="line" smooth="yes"/>
			<point x="436" y="0"/>
			<point x="540" y="88"/>
			<point x="540" y="217" type="curve" smooth="yes"/>
			<point x="540" y="328"/>
			<point x="448" y="370"/>
			<point x="348" y="372" type="curve"/>
			<point x="348" y="375" type="line"/>
			<point x="416" y="383"/>
			<point x="510" y="441"/>
			<point x="510" y="553" type="curve" smooth="yes"/>
			<point x="510" y="655"/>
			<point x="439" y="700"/>
			<point x="303" y="700" type="curve" smooth="yes"/>
			<point x="136" y="700" type="line" smooth="yes"/>
			<point x="125" y="700"/>
			<point x="120" y="697"/>
			<point x="120" y="688" type="curve" smooth="yes"/>
			<point x="120" y="12" type="line" smooth="yes"/>
			<point x="120" y="3"/>
			<point x="124" y="0"/>
		</contour>
		<contour>
			<point x="150" y="28" type="line"/>
			<point x="150" y="356" type="line"/>
			<point x="297" y="356" type="line" smooth="yes"/>
			<point x="416" y="356"/>
			<point x="507" y="321"/>
			<point x="507" y="216" type="curve" smooth="yes"/>
			<point x="507" y="104"/>
			<point x="414" y="28"/>
			<point x="277" y="28" type="curve" smooth="yes"/>
		</contour>
		<contour>
			<point x="150" y="384" type="line"/>
			<point x="150" y="672" type="line"/>
			<point x="303" y="672" type="line" smooth="yes"/>
			<point x="418" y="672"/>
			<point x="478" y="637"/>
			<point x="478" y="552" type="curve" smooth="yes"/>
			<point x="478" y="446"/>
			<point x="387" y="384"/>
			<point x="280" y="384" type="curve" smooth="yes"/>
		</contour>
	</outline>
	<anchor name="bottom" x="290" y="0"/>
	<anchor name="center" x="136" y="206"/>
	<anchor name="top" x="290" y="670"/>
</glyph>
<glyph name="C" format="2">
	<unicode hex="0043"/>
	<advance width="620"/>
	<outline>
		<contour>
			<point x="358" y="-15" type="curve" smooth="yes"/>
			<point x="444" y="-15"/>
			<point x="514" y="25"/>
			<point x="576" y="94" type="curve" smooth="yes"/>
			<point x="584" y="103"/>
			<point x="584" y="108"/>
			<point x="576" y="115" type="curve" smooth="yes"/>
			<point x="567" y="123"/>
			<point x="562" y="121"/>
			<point x="553" y="111" type="curve" smooth="yes"/>
			<point x="502" y="54"/>
			<point x="443" y="15"/>
			<point x="358" y="15" type="curve" smooth="yes"/>
			<point x="205" y="15"/>
			<point x="108" y="145"/>
			<point x="108" y="349" type="curve" smooth="yes"/>
			<point x="108" y="553"/>
			<point x="219" y="682"/>
			<point x="373" y="682" type="curve" smooth="yes"/>
			<point x="435" y="682"/>
			<point x="497" y="662"/>
			<point x="537" y="616" type="curve" smooth="yes"/>
			<point x="546" y="606"/>
			<point x="551" y="604"/>
			<point x="560" y="612" type="curve" smooth="yes"/>
			<point x="568" y="619"/>
			<point x="568" y="624"/>
			<point x="560" y="633" type="curve" smooth="yes"/>
			<point x="516" y="686"/>
			<point x="444" y="712"/>
			<point x="373" y="712" type="curve" smooth="yes"/>
			<point x="200" y="712"/>
			<point x="75" y="570"/>
			<point x="75" y="349" type="curve" smooth="yes"/>
			<point x="75" y="127"/>
			<point x="186" y="-15"/>
		</contour>
	</outline>
	<anchor name="bottom" x="352" y="0"/>
	<anchor name="top" x="365" y="670"/>
</glyph>
<glyph name="E" format="2">
	<unicode hex="0045"/>
	<advance width="530"/>
	<outline>
		<contour>
			<point x="135" y="0" type="curve" smooth="yes"/>
			<point x="481" y="0" type="line" smooth="yes"/>
			<point x="486" y="0"/>
			<point x="490" y="4"/>
			<point x="490" y="14" type="curve" smooth="yes"/>
			<point x="490" y="24"/>
			<point x="486" y="28"/>
			<point x="481" y="28" type="curve" smooth="yes"/>
			<point x="150" y="28" type="line"/>
			<point x="150" y="356" type="line"/>
			<point x="431" y="356" type="line" smooth="yes"/>
			<point x="436" y="356"/>
			<point x="440" y="360"/>
			<point x="440" y="370" type="curve" smooth="yes"/>
			<point x="440" y="380"/>
			<point x="436" y="384"/>
			<point x="431" y="384" type="curve" smooth="yes"/>
			<point x="150" y="384" type="line"/>
			<point x="150" y="672" type="line"/>
			<point x="481" y="672" type="line" smooth="yes"/>
			<point x="486" y="672"/>
			<point x="490" y="676"/>
			<point x="490" y="686" type="curve" smooth="yes"/>
			<point x="490" y="696"/>
			<point x="486" y="700"/>
			<point x="481" y="700" type="curve" smooth="yes"/>
			<point x="136" y="700" type="line" smooth="yes"/>
			<point x="125" y="700"/>
			<point x="120" y="697"/>
			<point x="120" y="688" type="curve" smooth="yes"/>
			<point x="120" y="12" type="line" smooth="yes"/>
			<point x="120" y="3"/>
			<point x="124" y="0"/>
		</contour>
	</outline>
	<anchor name="bottom" x="294" y="0"/>
	<anchor name="ogonek" x="487" y="10"/>
	<anchor name="top" x="309" y="670"/>
</glyph>
<glyph name="F" format="2">
  <advance width="500"/>
  <unicode hex="0046"/>
  <outline>
    <contour>
      <point x="135" y="-11" type="curve" smooth="yes"/>
      <point x="146" y="-11"/>
      <point x="150" y="-8"/>
      <point x="150" y="1" type="curve" smooth="yes"/>
      <point x="150" y="336" type="line"/>
      <point x="421" y="336" type="line" smooth="yes"/>
      <point x="426" y="336"/>
      <point x="430" y="340"/>
      <point x="430" y="350" type="curve" smooth="yes"/>
      <point x="430" y="360"/>
      <point x="426" y="364"/>
      <point x="421" y="364" type="curve" smooth="yes"/>
      <point x="150" y="364" type="line"/>
      <point x="150" y="672" type="line"/>
      <point x="471" y="672" type="line" smooth="yes"/>
      <point x="476" y="672"/>
      <point x="480" y="676"/>
      <point x="480" y="686" type="curve" smooth="yes"/>
      <point x="480" y="696"/>
      <point x="476" y="700"/>
      <point x="471" y="700" type="curve" smooth="yes"/>
      <point x="136" y="700" type="line" smooth="yes"/>
      <point x="125" y="700"/>
      <point x="120" y="697"/>
      <point x="120" y="688" type="curve" smooth="yes"/>
      <point x="120" y="1" type="line" smooth="yes"/>
      <point x="120" y="-8"/>
      <point x="124" y="-11"/>
    </contour>
  </outline>
</glyph>
<glyph name="G" format="2">
	<unicode hex="0047"/>
	<advance width="700"/>
	<outline>
		<contour>
			<point x="350" y="-15" type="curve" smooth="yes"/>
			<point x="506" y="-15"/>
			<point x="610" y="95"/>
			<point x="610" y="350" type="curve" smooth="yes"/>
			<point x="610" y="359"/>
			<point x="606" y="362"/>
			<point x="595" y="362" type="curve" smooth="yes"/>
			<point x="375" y="362" type="line" smooth="yes"/>
			<point x="370" y="362"/>
			<point x="366" y="358"/>
			<point x="366" y="348" type="curve" smooth="yes"/>
			<point x="366" y="338"/>
			<point x="370" y="334"/>
			<point x="375" y="334" type="curve" smooth="yes"/>
			<point x="579" y="334" type="line"/>
			<point x="579" y="95"/>
			<point x="475" y="15"/>
			<point x="350" y="15" type="curve" smooth="yes"/>
			<point x="205" y="15"/>
			<point x="108" y="145"/>
			<point x="108" y="349" type="curve" smooth="yes"/>
			<point x="108" y="553"/>
			<point x="219" y="682"/>
			<point x="373" y="682" type="curve" smooth="yes"/>
			<point x="435" y="682"/>
			<point x="486" y="662"/>
			<point x="527" y="616" type="curve" smooth="yes"/>
			<point x="536" y="606"/>
			<point x="541" y="604"/>
			<point x="550" y="612" type="curve" smooth="yes"/>
			<point x="558" y="619"/>
			<point x="558" y="624"/>
			<point x="550" y="633" type="curve" smooth="yes"/>
			<point x="506" y="686"/>
			<point x="444" y="712"/>
			<point x="373" y="712" type="curve" smooth="yes"/>
			<point x="200" y="712"/>
			<point x="75" y="570"/>
			<point x="75" y="349" type="curve" smooth="yes"/>
			<point x="75" y="127"/>
			<point x="186" y="-15"/>
		</contour>
	</outline>
	<anchor name="bottom" x="350" y="0"/>
	<anchor name="top" x="360" y="670"/>
</glyph>
<glyph name="H" format="2">
	<unicode hex="0048"/>
	<advance width="710"/>
	<outline>
		<contour>
			<point x="135" y="-11" type="curve" smooth="yes"/>
			<point x="146" y="-11"/>
			<point x="150" y="-8"/>
			<point x="150" y="1" type="curve" smooth="yes"/>
			<point x="150" y="353" type="line"/>
			<point x="560" y="353" type="line"/>
			<point x="560" y="1" type="line" smooth="yes"/>
			<point x="560" y="-8"/>
			<point x="565" y="-11"/>
			<point x="575" y="-11" type="curve" smooth="yes"/>
			<point x="586" y="-11"/>
			<point x="590" y="-8"/>
			<point x="590" y="1" type="curve" smooth="yes"/>
			<point x="590" y="700" type="line" smooth="yes"/>
			<point x="590" y="709"/>
			<point x="586" y="712"/>
			<point x="575" y="712" type="curve" smooth="yes"/>
			<point x="565" y="712"/>
			<point x="560" y="709"/>
			<point x="560" y="700" type="curve" smooth="yes"/>
			<point x="560" y="381" type="line"/>
			<point x="150" y="381" type="line"/>
			<point x="150" y="700" type="line" smooth="yes"/>
			<point x="150" y="709"/>
			<point x="146" y="712"/>
			<point x="135" y="712" type="curve" smooth="yes"/>
			<point x="124" y="712"/>
			<point x="120" y="709"/>
			<point x="120" y="700" type="curve" smooth="yes"/>
			<point x="120" y="1" type="line" smooth="yes"/>
			<point x="120" y="-8"/>
			<point x="124" y="-11"/>
		</contour>
	</outline>
	<anchor name="bottom" x="355" y="0"/>
	<anchor name="center" x="355" y="541"/>
	<anchor name="top" x="355" y="670"/>
</glyph>
<glyph name="J" format="2">
	<unicode hex="004A"/>
	<advance width="520"/>
	<outline>
		<contour>
			<point x="231" y="-15" type="curve" smooth="yes"/>
			<point x="351" y="-15"/>
			<point x="415" y="61"/>
			<point x="415" y="210" type="curve" smooth="yes"/>
			<point x="415" y="700" type="line" smooth="yes"/>
			<point x="415" y="709"/>
			<point x="411" y="712"/>
			<point x="400" y="712" type="curve" smooth="yes"/>
			<point x="389" y="712"/>
			<point x="385" y="709"/>
			<point x="385" y="700" type="curve" smooth="yes"/>
			<point x="385" y="208" type="line" smooth="yes"/>
			<point x="385" y="80"/>
			<point x="335" y="15"/>
			<point x="231" y="15" type="curve" smooth="yes"/>
			<point x="143" y="15"/>
			<point x="104" y="47"/>
			<point x="79" y="128" type="curve" smooth="yes"/>
			<point x="75" y="141"/>
			<point x="72" y="145"/>
			<point x="60" y="141" type="curve" smooth="yes"/>
			<point x="50" y="138"/>
			<point x="48" y="134"/>
			<point x="51" y="122" type="curve" smooth="yes"/>
			<point x="74" y="30"/>
			<point x="133" y="-15"/>
		</contour>
	</outline>
	<anchor name="bottom" x="240" y="0"/>
	<anchor name="top" x="400" y="670"/>
</glyph>
<glyph name="K" format="2">
  <advance width="550"/>
  <unicode hex="004B"/>
  <anchor x="305" y="0" name="bottom"/>
  <anchor x="305" y="670" name="top"/>
  <outline>
    <contour>
      <point x="135" y="-11" type="curve" smooth="yes"/>
      <point x="146" y="-11"/>
      <point x="150" y="-8"/>
      <point x="150" y="1" type="curve" smooth="yes"/>
      <point x="150" y="365" type="line"/>
      <point x="249" y="245"/>
      <point x="387" y="94"/>
      <point x="510" y="-8" type="curve" smooth="yes"/>
      <point x="517" y="-14"/>
      <point x="522" y="-16"/>
      <point x="530" y="-8" type="curve" smooth="yes"/>
      <point x="538" y="0"/>
      <point x="540" y="5"/>
      <point x="533" y="11" type="curve" smooth="yes"/>
      <point x="411" y="113"/>
      <point x="283" y="252"/>
      <point x="185" y="371" type="curve"/>
      <point x="518" y="688" type="line" smooth="yes"/>
      <point x="525" y="695"/>
      <point x="525" y="699"/>
      <point x="517" y="707" type="curve" smooth="yes"/>
      <point x="509" y="715"/>
      <point x="504" y="714"/>
      <point x="497" y="707" type="curve" smooth="yes"/>
      <point x="150" y="375" type="line"/>
      <point x="150" y="700" type="line" smooth="yes"/>
      <point x="150" y="709"/>
      <point x="146" y="712"/>
      <point x="135" y="712" type="curve" smooth="yes"/>
      <point x="124" y="712"/>
      <point x="120" y="709"/>
      <point x="120" y="700" type="curve" smooth="yes"/>
      <point x="120" y="1" type="line" smooth="yes"/>
      <point x="120" y="-8"/>
      <point x="124" y="-11"/>
    </contour>
  </outline>
</glyph>
<glyph name="L" format="2">
	<unicode hex="004C"/>
	<advance width="500"/>
	<outline>
		<contour>
			<point x="135" y="0" type="curve" smooth="yes"/>
			<point x="471" y="0" type="line" smooth="yes"/>
			<point x="476" y="0"/>
			<point x="480" y="4"/>
			<point x="480" y="14" type="curve" smooth="yes"/>
			<point x="480" y="24"/>
			<point x="476" y="28"/>
			<point x="471" y="28" type="curve" smooth="yes"/>
			<point x="150" y="28" type="line"/>
			<point x="150" y="700" type="line" smooth="yes"/>
			<point x="150" y="709"/>
			<point x="146" y="712"/>
			<point x="135" y="712" type="curve" smooth="yes"/>
			<point x="124" y="712"/>
			<point x="120" y="709"/>
			<point x="120" y="700" type="curve" smooth="yes"/>
			<point x="120" y="12" type="line" smooth="yes"/>
			<point x="120" y="3"/>
			<point x="124" y="0"/>
		</contour>
	</outline>
	<anchor name="bottom" x="300" y="0"/>
	<anchor name="center" x="135" y="360"/>
	<anchor name="centerCase" x="150" y="360"/>
	<anchor name="top" x="135" y="670"/>
	<anchor name="topright" x="170" y="700"/>
</glyph>
<glyph name="M" format="2">
  <advance width="840"/>
  <unicode hex="004D"/>
  <anchor x="420" y="0" name="bottom"/>
  <anchor x="420" y="670" name="top"/>
  <outline>
    <contour>
      <point x="135" y="-11" type="curve" smooth="yes"/>
      <point x="146" y="-11"/>
      <point x="150" y="-8"/>
      <point x="150" y="1" type="curve" smooth="yes"/>
      <point x="150" y="655" type="line"/>
      <point x="401" y="224" type="line" smooth="yes"/>
      <point x="407" y="214"/>
      <point x="411" y="212"/>
      <point x="420" y="212" type="curve" smooth="yes"/>
      <point x="428" y="212"/>
      <point x="433" y="213"/>
      <point x="439" y="224" type="curve" smooth="yes"/>
      <point x="690" y="655" type="line"/>
      <point x="690" y="1" type="line" smooth="yes"/>
      <point x="690" y="-8"/>
      <point x="694" y="-11"/>
      <point x="705" y="-11" type="curve" smooth="yes"/>
      <point x="716" y="-11"/>
      <point x="720" y="-8"/>
      <point x="720" y="1" type="curve" smooth="yes"/>
      <point x="720" y="700" type="line" smooth="yes"/>
      <point x="720" y="709"/>
      <point x="716" y="712"/>
      <point x="705" y="712" type="curve" smooth="yes"/>
      <point x="692" y="712"/>
      <point x="689" y="710"/>
      <point x="684" y="702" type="curve" smooth="yes"/>
      <point x="420" y="245" type="line"/>
      <point x="156" y="702" type="line" smooth="yes"/>
      <point x="151" y="710"/>
      <point x="147" y="712"/>
      <point x="136" y="712" type="curve" smooth="yes"/>
      <point x="125" y="712"/>
      <point x="120" y="709"/>
      <point x="120" y="700" type="curve" smooth="yes"/>
      <point x="120" y="1" type="line" smooth="yes"/>
      <point x="120" y="-8"/>
      <point x="124" y="-11"/>
    </contour>
  </outline>
</glyph>
<glyph name="O" format="2">
  <advance width="925"/>
  <unicode hex="004F"/>
  <anchor x="463" y="0" name="bottom"/>
  <anchor x="463" y="438" name="center"/>
  <anchor x="591" y="6" name="ogonek"/>
  <anchor x="463" y="838" name="top"/>
  <anchor x="568" y="875" name="topright"/>
  <outline>
    <contour>
      <point x="464" y="-19" type="curve" smooth="yes"/>
      <point x="676" y="-19"/>
      <point x="831" y="159"/>
      <point x="831" y="436" type="curve" smooth="yes"/>
      <point x="831" y="713"/>
      <point x="676" y="890"/>
      <point x="464" y="890" type="curve" smooth="yes"/>
      <point x="249" y="890"/>
      <point x="94" y="713"/>
      <point x="94" y="436" type="curve" smooth="yes"/>
      <point x="94" y="159"/>
      <point x="249" y="-19"/>
    </contour>
    <contour>
      <point x="464" y="19" type="curve" smooth="yes"/>
      <point x="273" y="19"/>
      <point x="135" y="181"/>
      <point x="135" y="436" type="curve" smooth="yes"/>
      <point x="135" y="691"/>
      <point x="273" y="853"/>
      <point x="464" y="853" type="curve" smooth="yes"/>
      <point x="653" y="853"/>
      <point x="790" y="691"/>
      <point x="790" y="436" type="curve" smooth="yes"/>
      <point x="790" y="181"/>
      <point x="653" y="19"/>
    </contour>
  </outline>
</glyph>
<glyph name="P" format="2">
	<unicode hex="0050"/>
	<advance width="560"/>
	<outline>
		<contour>
			<point x="135" y="-11" type="curve" smooth="yes"/>
			<point x="146" y="-11"/>
			<point x="150" y="-8"/>
			<point x="150" y="1" type="curve" smooth="yes"/>
			<point x="150" y="294" type="line"/>
			<point x="188" y="296"/>
			<point x="227" y="299"/>
			<point x="265" y="303" type="curve" smooth="yes"/>
			<point x="419" y="319"/>
			<point x="520" y="391"/>
			<point x="520" y="525" type="curve" smooth="yes"/>
			<point x="520" y="651"/>
			<point x="440" y="700"/>
			<point x="288" y="700" type="curve" smooth="yes"/>
			<point x="136" y="700" type="line" smooth="yes"/>
			<point x="125" y="700"/>
			<point x="120" y="697"/>
			<point x="120" y="688" type="curve" smooth="yes"/>
			<point x="120" y="1" type="line" smooth="yes"/>
			<point x="120" y="-8"/>
			<point x="124" y="-11"/>
		</contour>
		<contour>
			<point x="150" y="322" type="curve"/>
			<point x="150" y="672" type="line"/>
			<point x="288" y="672" type="line" smooth="yes"/>
			<point x="420" y="672"/>
			<point x="488" y="631"/>
			<point x="488" y="524" type="curve" smooth="yes"/>
			<point x="488" y="408"/>
			<point x="400" y="345"/>
			<point x="265" y="331" type="curve" smooth="yes"/>
			<point x="227" y="327"/>
			<point x="188" y="324"/>
		</contour>
	</outline>
</glyph>
<glyph name="Q" format="2">
	<unicode hex="0051"/>
	<advance width="740"/>
	<outline>
		<contour>
			<point x="556" y="-125" type="curve" smooth="yes"/>
			<point x="563" y="-119"/>
			<point x="565" y="-115"/>
			<point x="560" y="-107" type="curve" smooth="yes"/>
			<point x="394" y="127" type="line" smooth="yes"/>
			<point x="389" y="134"/>
			<point x="383" y="134"/>
			<point x="376" y="128" type="curve" smooth="yes"/>
			<point x="367" y="121"/>
			<point x="365" y="117"/>
			<point x="370" y="109" type="curve" smooth="yes"/>
			<point x="537" y="-125" type="line" smooth="yes"/>
			<point x="542" y="-131"/>
			<point x="547" y="-131"/>
		</contour>
		<component base="O"/>
	</outline>
	<anchor name="bottom" x="370" y="0"/>
	<anchor name="center" x="370" y="350"/>
	<anchor name="ogonek" x="473" y="5"/>
	<anchor name="top" x="370" y="670"/>
	<anchor name="topright" x="454" y="700"/>
</glyph>
<glyph name="R" format="2">
  <advance width="694"/>
  <unicode hex="0052"/>
  <guideline x="283" y="742" angle="270"/>
  <guideline x="306" y="-13" angle="0"/>
  <anchor x="385" y="0" name="bottom"/>
  <anchor x="348" y="838" name="top"/>
  <outline>
    <contour>
      <point x="169" y="-14" type="curve" smooth="yes"/>
      <point x="183" y="-14"/>
      <point x="188" y="-10"/>
      <point x="188" y="1" type="curve" smooth="yes"/>
      <point x="188" y="405" type="line"/>
      <point x="314" y="265"/>
      <point x="464" y="118"/>
      <point x="618" y="-10" type="curve" smooth="yes"/>
      <point x="626" y="-17"/>
      <point x="633" y="-20"/>
      <point x="643" y="-10" type="curve" smooth="yes"/>
      <point x="653" y="0"/>
      <point x="655" y="6"/>
      <point x="646" y="14" type="curve" smooth="yes"/>
      <point x="500" y="135"/>
      <point x="355" y="275"/>
      <point x="231" y="409" type="curve"/>
      <point x="401" y="423"/>
      <point x="619" y="473"/>
      <point x="619" y="679" type="curve" smooth="yes"/>
      <point x="619" y="816"/>
      <point x="523" y="875"/>
      <point x="334" y="875" type="curve" smooth="yes"/>
      <point x="170" y="875" type="line" smooth="yes"/>
      <point x="156" y="875"/>
      <point x="150" y="871"/>
      <point x="150" y="860" type="curve" smooth="yes"/>
      <point x="150" y="1" type="line" smooth="yes"/>
      <point x="150" y="-10"/>
      <point x="155" y="-14"/>
    </contour>
    <contour>
      <point x="188" y="439" type="curve"/>
      <point x="188" y="840" type="line"/>
      <point x="334" y="840" type="line" smooth="yes"/>
      <point x="498" y="840"/>
      <point x="579" y="791"/>
      <point x="579" y="679" type="curve" smooth="yes"/>
      <point x="579" y="489"/>
      <point x="349" y="445"/>
    </contour>
  </outline>
</glyph>
<glyph name="S" format="2">
  <advance width="550"/>
  <unicode hex="0053"/>
  <anchor x="275" y="0" name="bottom"/>
  <anchor x="289" y="670" name="top"/>
  <outline>
    <contour>
      <point x="269" y="-15" type="curve" smooth="yes"/>
      <point x="397" y="-15"/>
      <point x="485" y="67"/>
      <point x="485" y="181" type="curve" smooth="yes"/>
      <point x="485" y="299"/>
      <point x="391" y="334"/>
      <point x="301" y="368" type="curve" smooth="yes"/>
      <point x="214" y="401"/>
      <point x="128" y="435"/>
      <point x="128" y="542" type="curve" smooth="yes"/>
      <point x="128" y="627"/>
      <point x="189" y="682"/>
      <point x="284" y="682" type="curve" smooth="yes"/>
      <point x="351" y="682"/>
      <point x="402" y="656"/>
      <point x="447" y="619" type="curve" smooth="yes"/>
      <point x="458" y="610"/>
      <point x="463" y="607"/>
      <point x="472" y="616" type="curve" smooth="yes"/>
      <point x="479" y="623"/>
      <point x="479" y="628"/>
      <point x="470" y="636" type="curve" smooth="yes"/>
      <point x="428" y="674"/>
      <point x="369" y="712"/>
      <point x="284" y="712" type="curve" smooth="yes"/>
      <point x="183" y="712"/>
      <point x="96" y="648"/>
      <point x="96" y="542" type="curve" smooth="yes"/>
      <point x="96" y="418"/>
      <point x="190" y="380"/>
      <point x="284" y="343" type="curve" smooth="yes"/>
      <point x="370" y="309"/>
      <point x="453" y="278"/>
      <point x="453" y="181" type="curve" smooth="yes"/>
      <point x="453" y="80"/>
      <point x="377" y="15"/>
      <point x="269" y="15" type="curve" smooth="yes"/>
      <point x="197" y="15"/>
      <point x="133" y="37"/>
      <point x="92" y="81" type="curve" smooth="yes"/>
      <point x="82" y="92"/>
      <point x="76" y="91"/>
      <point x="69" y="85" type="curve" smooth="yes"/>
      <point x="61" y="78"/>
      <point x="61" y="72"/>
      <point x="70" y="62" type="curve" smooth="yes"/>
      <point x="115" y="10"/>
      <point x="191" y="-15"/>
    </contour>
  </outline>
</glyph>
<glyph name="T" format="2">
	<unicode hex="0054"/>
	<advance width="552"/>
	<outline>
		<contour>
			<point x="276" y="-11" type="curve" smooth="yes"/>
			<point x="287" y="-11"/>
			<point x="291" y="-8"/>
			<point x="291" y="1" type="curve" smooth="yes"/>
			<point x="291" y="672" type="line"/>
			<point x="521" y="672" type="line" smooth="yes"/>
			<point x="526" y="672"/>
			<point x="530" y="677"/>
			<point x="530" y="687" type="curve" smooth="yes"/>
			<point x="530" y="697"/>
			<point x="526" y="700"/>
			<point x="521" y="700" type="curve" smooth="yes"/>
			<point x="31" y="700" type="line" smooth="yes"/>
			<point x="26" y="700"/>
			<point x="22" y="696"/>
			<point x="22" y="686" type="curve" smooth="yes"/>
			<point x="22" y="676"/>
			<point x="26" y="672"/>
			<point x="31" y="672" type="curve" smooth="yes"/>
			<point x="261" y="672" type="line"/>
			<point x="261" y="1" type="line" smooth="yes"/>
			<point x="261" y="-8"/>
			<point x="265" y="-11"/>
		</contour>
	</outline>
	<anchor name="bottom" x="276" y="0"/>
	<anchor name="center" x="276" y="350"/>
	<anchor name="top" x="276" y="670"/>
</glyph>
<glyph name="U" format="2">
	<unicode hex="0055"/>
	<advance width="690"/>
	<outline>
		<contour>
			<point x="346" y="-15" type="curve" smooth="yes"/>
			<point x="501" y="-15"/>
			<point x="580" y="61"/>
			<point x="580" y="210" type="curve" smooth="yes"/>
			<point x="580" y="700" type="line" smooth="yes"/>
			<point x="580" y="709"/>
			<point x="576" y="712"/>
			<point x="565" y="712" type="curve" smooth="yes"/>
			<point x="554" y="712"/>
			<point x="550" y="709"/>
			<point x="550" y="700" type="curve" smooth="yes"/>
			<point x="550" y="208" type="line" smooth="yes"/>
			<point x="550" y="79"/>
			<point x="481" y="15"/>
			<point x="346" y="15" type="curve" smooth="yes"/>
			<point x="210" y="15"/>
			<point x="140" y="79"/>
			<point x="140" y="208" type="curve" smooth="yes"/>
			<point x="140" y="700" type="line" smooth="yes"/>
			<point x="140" y="709"/>
			<point x="136" y="712"/>
			<point x="125" y="712" type="curve" smooth="yes"/>
			<point x="114" y="712"/>
			<point x="110" y="709"/>
			<point x="110" y="700" type="curve" smooth="yes"/>
			<point x="110" y="210" type="line" smooth="yes"/>
			<point x="110" y="61"/>
			<point x="190" y="-15"/>
		</contour>
	</outline>
	<anchor name="bottom" x="345" y="0"/>
	<anchor name="ogonek" x="470" y="10"/>
	<anchor name="top" x="345" y="670"/>
	<anchor name="topright" x="566" y="710"/>
</glyph>
<glyph name="V" format="2">
  <advance width="580"/>
  <unicode hex="0056"/>
  <outline>
    <contour>
      <point x="290" y="-11" type="curve" smooth="yes"/>
      <point x="301" y="-11"/>
      <point x="305" y="-8"/>
      <point x="308" y="1" type="curve" smooth="yes"/>
      <point x="553" y="694" type="line" smooth="yes"/>
      <point x="556" y="703"/>
      <point x="555" y="707"/>
      <point x="545" y="711" type="curve" smooth="yes"/>
      <point x="534" y="715"/>
      <point x="530" y="712"/>
      <point x="525" y="699" type="curve" smooth="yes"/>
      <point x="290" y="34" type="line"/>
      <point x="55" y="699" type="line" smooth="yes"/>
      <point x="50" y="712"/>
      <point x="46" y="715"/>
      <point x="35" y="711" type="curve" smooth="yes"/>
      <point x="25" y="707"/>
      <point x="24" y="703"/>
      <point x="27" y="694" type="curve" smooth="yes"/>
      <point x="273" y="1" type="line" smooth="yes"/>
      <point x="276" y="-8"/>
      <point x="280" y="-11"/>
    </contour>
  </outline>
</glyph>
<glyph name="W" format="2">
  <advance width="960"/>
  <unicode hex="0057"/>
  <anchor x="480" y="0" name="bottom"/>
  <anchor x="480" y="670" name="top"/>
  <outline>
    <contour>
      <point x="247" y="-11" type="curve" smooth="yes"/>
      <point x="258" y="-11"/>
      <point x="262" y="-8"/>
      <point x="265" y="1" type="curve" smooth="yes"/>
      <point x="480" y="664" type="line"/>
      <point x="693" y="1" type="line" smooth="yes"/>
      <point x="696" y="-8"/>
      <point x="700" y="-11"/>
      <point x="710" y="-11" type="curve" smooth="yes"/>
      <point x="721" y="-11"/>
      <point x="725" y="-8"/>
      <point x="728" y="1" type="curve" smooth="yes"/>
      <point x="933" y="694" type="line" smooth="yes"/>
      <point x="936" y="703"/>
      <point x="935" y="708"/>
      <point x="925" y="711" type="curve" smooth="yes"/>
      <point x="915" y="714"/>
      <point x="910" y="712"/>
      <point x="906" y="700" type="curve" smooth="yes"/>
      <point x="710" y="38" type="line"/>
      <point x="497" y="700" type="line" smooth="yes"/>
      <point x="494" y="709"/>
      <point x="492" y="712"/>
      <point x="479" y="712" type="curve" smooth="yes"/>
      <point x="468" y="712"/>
      <point x="466" y="709"/>
      <point x="463" y="700" type="curve" smooth="yes"/>
      <point x="248" y="38" type="line"/>
      <point x="55" y="699" type="line" smooth="yes"/>
      <point x="51" y="713"/>
      <point x="46" y="714"/>
      <point x="36" y="711" type="curve" smooth="yes"/>
      <point x="26" y="708"/>
      <point x="24" y="703"/>
      <point x="27" y="694" type="curve" smooth="yes"/>
      <point x="230" y="1" type="line" smooth="yes"/>
      <point x="233" y="-8"/>
      <point x="237" y="-11"/>
    </contour>
  </outline>
</glyph>
<glyph name="X" format="2">
  <advance width="688"/>
  <unicode hex="0058"/>
  <guideline x="322" y="-11" angle="0"/>
  <outline>
    <contour>
      <point x="628" y="-11" type="curve" smooth="yes"/>
      <point x="639" y="-4"/>
      <point x="640" y="1"/>
      <point x="634" y="11" type="curve" smooth="yes"/>
      <point x="368" y="445" type="line"/>
      <point x="625" y="865" type="line" smooth="yes"/>
      <point x="631" y="875"/>
      <point x="630" y="880"/>
      <point x="619" y="888" type="curve" smooth="yes"/>
      <point x="609" y="894"/>
      <point x="605" y="894"/>
      <point x="598" y="883" type="curve" smooth="yes"/>
      <point x="348" y="476" type="line"/>
      <point x="98" y="883" type="line" smooth="yes"/>
      <point x="90" y="894"/>
      <point x="84" y="894"/>
      <point x="74" y="888" type="curve" smooth="yes"/>
      <point x="63" y="880"/>
      <point x="61" y="875"/>
      <point x="68" y="865" type="curve" smooth="yes"/>
      <point x="324" y="449" type="line"/>
      <point x="54" y="11" type="line" smooth="yes"/>
      <point x="48" y="1"/>
      <point x="49" y="-4"/>
      <point x="60" y="-11" type="curve" smooth="yes"/>
      <point x="70" y="-17"/>
      <point x="76" y="-16"/>
      <point x="83" y="-6" type="curve" smooth="yes"/>
      <point x="344" y="416" type="line"/>
      <point x="604" y="-6" type="line" smooth="yes"/>
      <point x="611" y="-17"/>
      <point x="618" y="-17"/>
    </contour>
  </outline>
</glyph>
<glyph name="Y" format="2">
	<unicode hex="0059"/>
	<advance width="490"/>
	<outline>
		<contour>
			<point x="240" y="-11" type="curve" smooth="yes"/>
			<point x="251" y="-11"/>
			<point x="255" y="-8"/>
			<point x="255" y="1" type="curve" smooth="yes"/>
			<point x="255" y="309" type="line"/>
			<point x="476" y="694" type="line" smooth="yes"/>
			<point x="480" y="702"/>
			<point x="479" y="706"/>
			<point x="469" y="711" type="curve" smooth="yes"/>
			<point x="460" y="715"/>
			<point x="456" y="712"/>
			<point x="449" y="699" type="curve" smooth="yes"/>
			<point x="240" y="333" type="line"/>
			<point x="41" y="699" type="line" smooth="yes"/>
			<point x="34" y="712"/>
			<point x="32" y="715"/>
			<point x="21" y="711" type="curve" smooth="yes"/>
			<point x="12" y="707"/>
			<point x="10" y="702"/>
			<point x="14" y="694" type="curve" smooth="yes"/>
			<point x="225" y="307" type="line"/>
			<point x="225" y="1" type="line" smooth="yes"/>
			<point x="225" y="-8"/>
			<point x="229" y="-11"/>
		</contour>
	</outline>
	<anchor name="bottom" x="240" y="0"/>
	<anchor name="top" x="245" y="670"/>
</glyph>
<glyph name="Z" format="2">
	<unicode hex="005A"/>
	<advance width="490"/>
	<outline>
		<contour>
			<point x="29" y="0" type="curve" smooth="yes"/>
			<point x="461" y="0" type="line" smooth="yes"/>
			<point x="466" y="0"/>
			<point x="470" y="5"/>
			<point x="470" y="15" type="curve" smooth="yes"/>
			<point x="470" y="25"/>
			<point x="466" y="28"/>
			<point x="461" y="28" type="curve" smooth="yes"/>
			<point x="60" y="28" type="line"/>
			<point x="458" y="684" type="line" smooth="yes"/>
			<point x="463" y="692"/>
			<point x="460" y="700"/>
			<point x="449" y="700" type="curve" smooth="yes"/>
			<point x="53" y="700" type="line" smooth="yes"/>
			<point x="48" y="700"/>
			<point x="44" y="696"/>
			<point x="44" y="686" type="curve" smooth="yes"/>
			<point x="44" y="676"/>
			<point x="48" y="672"/>
			<point x="53" y="672" type="curve" smooth="yes"/>
			<point x="418" y="672" type="line"/>
			<point x="20" y="16" type="line" smooth="yes"/>
			<point x="15" y="8"/>
			<point x="18" y="0"/>
		</contour>
	</outline>
	<anchor name="bottom" x="245" y="0"/>
	<anchor name="center" x="245" y="370"/>
	<anchor name="top" x="245" y="670"/>
</glyph>
<glyph name="backslash" format="2">
	<unicode hex="005C"/>
	<advance width="258"/>
	<outline>
		<contour>
			<point x="236" y="-60" type="curve" smooth="yes"/>
			<point x="246" y="-57"/>
			<point x="249" y="-53"/>
			<point x="247" y="-45" type="curve" smooth="yes"/>
			<point x="40" y="752" type="line"/>
			<point x="38" y="761"/>
			<point x="33" y="763"/>
			<point x="22" y="760" type="curve"/>
			<point x="13" y="757"/>
			<point x="9" y="753"/>
			<point x="11" y="745" type="curve" smooth="yes"/>
			<point x="218" y="-52" type="line"/>
			<point x="220" y="-61"/>
			<point x="225" y="-63"/>
		</contour>
	</outline>
</glyph>
<glyph name="bracketright" format="2">
  <advance width="300"/>
  <unicode hex="005D"/>
  <outline>
    <contour>
      <point x="40" y="-46" type="curve" smooth="yes"/>
      <point x="40" y="-56"/>
      <point x="44" y="-60"/>
      <point x="49" y="-60" type="curve" smooth="yes"/>
      <point x="165" y="-60" type="line" smooth="yes"/>
      <point x="176" y="-60"/>
      <point x="180" y="-57"/>
      <point x="180" y="-48" type="curve" smooth="yes"/>
      <point x="180" y="748" type="line" smooth="yes"/>
      <point x="180" y="757"/>
      <point x="176" y="760"/>
      <point x="165" y="760" type="curve" smooth="yes"/>
      <point x="49" y="760" type="line" smooth="yes"/>
      <point x="44" y="760"/>
      <point x="40" y="756"/>
      <point x="40" y="746" type="curve" smooth="yes"/>
      <point x="40" y="736"/>
      <point x="44" y="732"/>
      <point x="49" y="732" type="curve" smooth="yes"/>
      <point x="150" y="732" type="line"/>
      <point x="150" y="-32" type="line"/>
      <point x="49" y="-32" type="line" smooth="yes"/>
      <point x="44" y="-32"/>
      <point x="40" y="-36"/>
    </contour>
  </outline>
</glyph>
<glyph name="underscore" format="2">
  <advance width="550"/>
  <unicode hex="005F"/>
  <outline>
    <contour>
      <point x="65" y="-112" type="curve" smooth="yes"/>
      <point x="485" y="-112" type="line" smooth="yes"/>
      <point x="496" y="-112"/>
      <point x="500" y="-107"/>
      <point x="500" y="-96" type="curve" smooth="yes"/>
      <point x="500" y="-84"/>
      <point x="496" y="-77"/>
      <point x="485" y="-77" type="curve" smooth="yes"/>
      <point x="65" y="-77" type="line" smooth="yes"/>
      <point x="54" y="-77"/>
      <point x="50" y="-84"/>
      <point x="50" y="-96" type="curve" smooth="yes"/>
      <point x="50" y="-107"/>
      <point x="54" y="-112"/>
    </contour>
  </outline>
</glyph>
<glyph name="c" format="2">
	<unicode hex="0063"/>
	<advance width="418"/>
	<outline>
		<contour>
			<point x="238" y="-15" type="curve" smooth="yes"/>
			<point x="288" y="-15"/>
			<point x="346" y="9"/>
			<point x="380" y="59" type="curve" smooth="yes"/>
			<point x="384" y="65"/>
			<point x="381" y="71"/>
			<point x="375" y="75" type="curve" smooth="yes"/>
			<point x="369" y="79"/>
			<point x="362" y="80"/>
			<point x="357" y="74" type="curve" smooth="yes"/>
			<point x="320" y="29"/>
			<point x="287" y="12"/>
			<point x="239" y="12" type="curve" smooth="yes"/>
			<point x="136" y="12"/>
			<point x="91" y="89"/>
			<point x="91" y="194" type="curve" smooth="yes"/>
			<point x="91" y="317"/>
			<point x="148" y="388"/>
			<point x="234" y="388" type="curve" smooth="yes"/>
			<point x="282" y="388"/>
			<point x="310" y="371"/>
			<point x="342" y="339" type="curve" smooth="yes"/>
			<point x="346" y="335"/>
			<point x="353" y="332"/>
			<point x="360" y="339" type="curve" smooth="yes"/>
			<point x="369" y="348"/>
			<point x="368" y="353"/>
			<point x="364" y="358" type="curve" smooth="yes"/>
			<point x="337" y="389"/>
			<point x="286" y="415"/>
			<point x="237" y="415" type="curve" smooth="yes"/>
			<point x="123" y="415"/>
			<point x="60" y="321"/>
			<point x="60" y="191" type="curve" smooth="yes"/>
			<point x="60" y="61"/>
			<point x="128" y="-15"/>
		</contour>
	</outline>
	<anchor name="bottom" x="229" y="0"/>
	<anchor name="top" x="226" y="400"/>
</glyph>
<glyph name="f" format="2">
  <advance width="366"/>
  <unicode hex="0066"/>
  <outline>
    <contour>
      <point x="74" y="-394" type="curve" smooth="yes"/>
      <point x="139" y="-394"/>
      <point x="184" y="-359"/>
      <point x="184" y="-256" type="curve" smooth="yes"/>
      <point x="184" y="468" type="line"/>
      <point x="343" y="468" type="line" smooth="yes"/>
      <point x="349" y="468"/>
      <point x="354" y="474"/>
      <point x="354" y="485" type="curve" smooth="yes"/>
      <point x="354" y="496"/>
      <point x="349" y="500"/>
      <point x="343" y="500" type="curve" smooth="yes"/>
      <point x="184" y="500" type="line"/>
      <point x="184" y="739" type="line" smooth="yes"/>
      <point x="184" y="833"/>
      <point x="216" y="860"/>
      <point x="273" y="860" type="curve" smooth="yes"/>
      <point x="315" y="860"/>
      <point x="351" y="839"/>
      <point x="374" y="819" type="curve" smooth="yes"/>
      <point x="381" y="811"/>
      <point x="390" y="810"/>
      <point x="396" y="816" type="curve" smooth="yes"/>
      <point x="404" y="824"/>
      <point x="406" y="831"/>
      <point x="400" y="839" type="curve" smooth="yes"/>
      <point x="374" y="868"/>
      <point x="325" y="894"/>
      <point x="276" y="894" type="curve" smooth="yes"/>
      <point x="205" y="894"/>
      <point x="148" y="859"/>
      <point x="148" y="746" type="curve" smooth="yes"/>
      <point x="148" y="500" type="line"/>
      <point x="40" y="500" type="line" smooth="yes"/>
      <point x="34" y="500"/>
      <point x="29" y="495"/>
      <point x="29" y="484" type="curve" smooth="yes"/>
      <point x="29" y="473"/>
      <point x="34" y="468"/>
      <point x="40" y="468" type="curve" smooth="yes"/>
      <point x="148" y="468" type="line"/>
      <point x="148" y="-251" type="line" smooth="yes"/>
      <point x="148" y="-332"/>
      <point x="126" y="-361"/>
      <point x="74" y="-361" type="curve" smooth="yes"/>
      <point x="35" y="-361"/>
      <point x="11" y="-339"/>
      <point x="-6" y="-315" type="curve" smooth="yes"/>
      <point x="-12" y="-306"/>
      <point x="-21" y="-306"/>
      <point x="-30" y="-312" type="curve" smooth="yes"/>
      <point x="-39" y="-319"/>
      <point x="-40" y="-327"/>
      <point x="-35" y="-335" type="curve" smooth="yes"/>
      <point x="-15" y="-367"/>
      <point x="23" y="-394"/>
    </contour>
  </outline>
</glyph>
<glyph name="g" format="2">
	<unicode hex="0067"/>
	<advance width="478"/>
	<outline>
		<contour>
			<point x="223" y="-315" type="curve" smooth="yes"/>
			<point x="322" y="-315"/>
			<point x="383" y="-252"/>
			<point x="383" y="-127" type="curve" smooth="yes"/>
			<point x="383" y="400" type="line" smooth="yes"/>
			<point x="383" y="409"/>
			<point x="379" y="412"/>
			<point x="369" y="412" type="curve" smooth="yes"/>
			<point x="359" y="412"/>
			<point x="354" y="409"/>
			<point x="354" y="400" type="curve" smooth="yes"/>
			<point x="354" y="-125" type="line" smooth="yes"/>
			<point x="354" y="-236"/>
			<point x="306" y="-287"/>
			<point x="227" y="-287" type="curve" smooth="yes"/>
			<point x="160" y="-287"/>
			<point x="124" y="-264"/>
			<point x="101" y="-216" type="curve" smooth="yes"/>
			<point x="98" y="-209"/>
			<point x="92" y="-206"/>
			<point x="83" y="-211" type="curve" smooth="yes"/>
			<point x="74" y="-216"/>
			<point x="72" y="-221"/>
			<point x="76" y="-229" type="curve" smooth="yes"/>
			<point x="102" y="-284"/>
			<point x="149" y="-315"/>
		</contour>
		<contour>
			<point x="215" y="-14" type="curve" smooth="yes"/>
			<point x="265" y="-14"/>
			<point x="337" y="8"/>
			<point x="370" y="123" type="curve"/>
			<point x="354" y="150" type="line"/>
			<point x="330" y="46"/>
			<point x="273" y="14"/>
			<point x="221" y="14" type="curve" smooth="yes"/>
			<point x="136" y="14"/>
			<point x="92" y="90"/>
			<point x="92" y="194" type="curve" smooth="yes"/>
			<point x="92" y="317"/>
			<point x="151" y="388"/>
			<point x="244" y="388" type="curve" smooth="yes"/>
			<point x="281" y="388"/>
			<point x="317" y="378"/>
			<point x="359" y="349" type="curve"/>
			<point x="359" y="379" type="line"/>
			<point x="320" y="404"/>
			<point x="286" y="415"/>
			<point x="247" y="415" type="curve" smooth="yes"/>
			<point x="125" y="415"/>
			<point x="60" y="321"/>
			<point x="60" y="191" type="curve" smooth="yes"/>
			<point x="60" y="61"/>
			<point x="126" y="-14"/>
		</contour>
	</outline>
	<anchor name="top" x="236" y="400"/>
</glyph>
<glyph name="h" format="2">
  <advance width="521"/>
  <unicode hex="0068"/>
  <anchor x="261" y="0" name="bottom"/>
  <anchor x="130" y="558" name="center"/>
  <anchor x="111" y="670" name="top"/>
  <outline>
    <contour>
      <point x="440" y="-14" type="curve" smooth="yes"/>
      <point x="469" y="-14"/>
      <point x="500" y="3"/>
      <point x="518" y="28" type="curve" smooth="yes"/>
      <point x="522" y="34"/>
      <point x="520" y="39"/>
      <point x="515" y="44" type="curve" smooth="yes"/>
      <point x="509" y="50"/>
      <point x="503" y="49"/>
      <point x="498" y="42" type="curve" smooth="yes"/>
      <point x="480" y="21"/>
      <point x="461" y="14"/>
      <point x="445" y="14" type="curve" smooth="yes"/>
      <point x="417" y="14"/>
      <point x="407" y="36"/>
      <point x="407" y="74" type="curve" smooth="yes"/>
      <point x="407" y="267" type="line" smooth="yes"/>
      <point x="407" y="372"/>
      <point x="351" y="415"/>
      <point x="278" y="415" type="curve" smooth="yes"/>
      <point x="225" y="415"/>
      <point x="159" y="397"/>
      <point x="124" y="316" type="curve"/>
      <point x="124" y="700" type="line" smooth="yes"/>
      <point x="124" y="709"/>
      <point x="119" y="712"/>
      <point x="109" y="712" type="curve" smooth="yes"/>
      <point x="99" y="712"/>
      <point x="95" y="709"/>
      <point x="95" y="700" type="curve" smooth="yes"/>
      <point x="95" y="0" type="line" smooth="yes"/>
      <point x="95" y="-9"/>
      <point x="99" y="-12"/>
      <point x="109" y="-12" type="curve" smooth="yes"/>
      <point x="119" y="-12"/>
      <point x="124" y="-9"/>
      <point x="124" y="0" type="curve" smooth="yes"/>
      <point x="124" y="247" type="line"/>
      <point x="146" y="353"/>
      <point x="209" y="387"/>
      <point x="274" y="387" type="curve" smooth="yes"/>
      <point x="348" y="387"/>
      <point x="378" y="340"/>
      <point x="378" y="261" type="curve" smooth="yes"/>
      <point x="378" y="64" type="line" smooth="yes"/>
      <point x="378" y="11"/>
      <point x="403" y="-14"/>
    </contour>
  </outline>
</glyph>
<glyph name="j" format="2">
  <advance width="214"/>
  <unicode hex="006A"/>
  <outline>
    <contour>
      <point x="31" y="-314" type="curve" smooth="yes"/>
      <point x="94" y="-314"/>
      <point x="119" y="-271"/>
      <point x="119" y="-208" type="curve" smooth="yes"/>
      <point x="119" y="400" type="line" smooth="yes"/>
      <point x="119" y="409"/>
      <point x="115" y="412"/>
      <point x="105" y="412" type="curve" smooth="yes"/>
      <point x="95" y="412"/>
      <point x="90" y="409"/>
      <point x="90" y="400" type="curve" smooth="yes"/>
      <point x="90" y="-206" type="line" smooth="yes"/>
      <point x="90" y="-254"/>
      <point x="80" y="-286"/>
      <point x="32" y="-286" type="curve" smooth="yes"/>
      <point x="4" y="-286"/>
      <point x="-13" y="-270"/>
      <point x="-25" y="-247" type="curve" smooth="yes"/>
      <point x="-29" y="-240"/>
      <point x="-34" y="-238"/>
      <point x="-43" y="-243" type="curve" smooth="yes"/>
      <point x="-50" y="-247"/>
      <point x="-50" y="-254"/>
      <point x="-48" y="-260" type="curve" smooth="yes"/>
      <point x="-37" y="-291"/>
      <point x="-7" y="-314"/>
    </contour>
    <contour>
      <point x="104" y="552" type="curve" smooth="yes"/>
      <point x="124" y="552"/>
      <point x="134" y="563"/>
      <point x="134" y="586" type="curve" smooth="yes"/>
      <point x="134" y="609"/>
      <point x="124" y="620"/>
      <point x="104" y="620" type="curve" smooth="yes"/>
      <point x="84" y="620"/>
      <point x="74" y="609"/>
      <point x="74" y="586" type="curve" smooth="yes"/>
      <point x="74" y="563"/>
      <point x="84" y="552"/>
    </contour>
  </outline>
</glyph>
<glyph name="l" format="2">
  <advance width="239"/>
  <unicode hex="006C"/>
  <anchor x="126" y="350" name="CAT"/>
  <anchor x="160" y="0" name="bottom"/>
  <anchor x="102" y="350" name="center"/>
  <anchor x="104" y="670" name="top"/>
  <anchor x="119" y="700" name="topright"/>
  <outline>
    <contour>
      <point x="152" y="-14" type="curve" smooth="yes"/>
      <point x="182" y="-14"/>
      <point x="213" y="3"/>
      <point x="231" y="28" type="curve" smooth="yes"/>
      <point x="235" y="34"/>
      <point x="233" y="39"/>
      <point x="228" y="44" type="curve" smooth="yes"/>
      <point x="222" y="50"/>
      <point x="216" y="49"/>
      <point x="211" y="42" type="curve" smooth="yes"/>
      <point x="193" y="21"/>
      <point x="174" y="14"/>
      <point x="157" y="14" type="curve" smooth="yes"/>
      <point x="129" y="14"/>
      <point x="119" y="36"/>
      <point x="119" y="74" type="curve" smooth="yes"/>
      <point x="119" y="700" type="line" smooth="yes"/>
      <point x="119" y="709"/>
      <point x="114" y="712"/>
      <point x="104" y="712" type="curve" smooth="yes"/>
      <point x="94" y="712"/>
      <point x="90" y="709"/>
      <point x="90" y="700" type="curve" smooth="yes"/>
      <point x="90" y="64" type="line" smooth="yes"/>
      <point x="90" y="11"/>
      <point x="115" y="-14"/>
    </contour>
  </outline>
</glyph>
<glyph name="m" format="2">
  <advance width="963"/>
  <unicode hex="006D"/>
  <anchor x="469" y="0" name="bottom"/>
  <anchor x="474" y="500" name="top"/>
  <outline>
    <contour>
      <point x="861" y="-17" type="curve" smooth="yes"/>
      <point x="899" y="-17"/>
      <point x="938" y="4"/>
      <point x="960" y="35" type="curve" smooth="yes"/>
      <point x="965" y="43"/>
      <point x="963" y="49"/>
      <point x="956" y="55" type="curve" smooth="yes"/>
      <point x="949" y="63"/>
      <point x="941" y="61"/>
      <point x="935" y="53" type="curve" smooth="yes"/>
      <point x="913" y="26"/>
      <point x="889" y="18"/>
      <point x="868" y="18" type="curve" smooth="yes"/>
      <point x="834" y="18"/>
      <point x="821" y="45"/>
      <point x="821" y="93" type="curve" smooth="yes"/>
      <point x="821" y="334" type="line" smooth="yes"/>
      <point x="821" y="465"/>
      <point x="754" y="519"/>
      <point x="669" y="519" type="curve" smooth="yes"/>
      <point x="591" y="519"/>
      <point x="491" y="482"/>
      <point x="462" y="309" type="curve"/>
      <point x="486" y="309" type="line"/>
      <point x="514" y="441"/>
      <point x="590" y="484"/>
      <point x="664" y="484" type="curve" smooth="yes"/>
      <point x="750" y="484"/>
      <point x="785" y="425"/>
      <point x="785" y="326" type="curve" smooth="yes"/>
      <point x="785" y="80" type="line" smooth="yes"/>
      <point x="785" y="14"/>
      <point x="816" y="-17"/>
    </contour>
    <contour>
      <point x="130" y="-15" type="curve" smooth="yes"/>
      <point x="143" y="-15"/>
      <point x="149" y="-11"/>
      <point x="149" y="0" type="curve" smooth="yes"/>
      <point x="149" y="309" type="line"/>
      <point x="176" y="441"/>
      <point x="253" y="484"/>
      <point x="328" y="484" type="curve" smooth="yes"/>
      <point x="415" y="484"/>
      <point x="450" y="425"/>
      <point x="450" y="326" type="curve" smooth="yes"/>
      <point x="450" y="0" type="line" smooth="yes"/>
      <point x="450" y="-11"/>
      <point x="455" y="-15"/>
      <point x="468" y="-15" type="curve" smooth="yes"/>
      <point x="480" y="-15"/>
      <point x="486" y="-11"/>
      <point x="486" y="0" type="curve" smooth="yes"/>
      <point x="486" y="334" type="line" smooth="yes"/>
      <point x="486" y="465"/>
      <point x="419" y="519"/>
      <point x="333" y="519" type="curve" smooth="yes"/>
      <point x="273" y="519"/>
      <point x="192" y="497"/>
      <point x="149" y="395" type="curve"/>
      <point x="149" y="500" type="line" smooth="yes"/>
      <point x="149" y="511"/>
      <point x="143" y="515"/>
      <point x="130" y="515" type="curve" smooth="yes"/>
      <point x="118" y="515"/>
      <point x="113" y="511"/>
      <point x="113" y="500" type="curve" smooth="yes"/>
      <point x="113" y="0" type="line" smooth="yes"/>
      <point x="113" y="-11"/>
      <point x="118" y="-15"/>
    </contour>
  </outline>
</glyph>
<glyph name="n" format="2">
  <advance width="646"/>
  <unicode hex="006E"/>
  <anchor x="324" y="0" name="bottom"/>
  <anchor x="313" y="500" name="top"/>
  <outline>
    <contour>
      <point x="544" y="-17" type="curve" smooth="yes"/>
      <point x="581" y="-17"/>
      <point x="620" y="4"/>
      <point x="643" y="35" type="curve" smooth="yes"/>
      <point x="648" y="43"/>
      <point x="645" y="49"/>
      <point x="639" y="55" type="curve" smooth="yes"/>
      <point x="631" y="63"/>
      <point x="624" y="61"/>
      <point x="618" y="53" type="curve" smooth="yes"/>
      <point x="595" y="26"/>
      <point x="571" y="18"/>
      <point x="550" y="18" type="curve" smooth="yes"/>
      <point x="515" y="18"/>
      <point x="503" y="45"/>
      <point x="503" y="93" type="curve" smooth="yes"/>
      <point x="503" y="334" type="line" smooth="yes"/>
      <point x="503" y="465"/>
      <point x="433" y="519"/>
      <point x="341" y="519" type="curve" smooth="yes"/>
      <point x="275" y="519"/>
      <point x="193" y="496"/>
      <point x="149" y="395" type="curve"/>
      <point x="149" y="500" type="line" smooth="yes"/>
      <point x="149" y="511"/>
      <point x="143" y="515"/>
      <point x="130" y="515" type="curve" smooth="yes"/>
      <point x="118" y="515"/>
      <point x="113" y="511"/>
      <point x="113" y="500" type="curve" smooth="yes"/>
      <point x="113" y="0" type="line" smooth="yes"/>
      <point x="113" y="-11"/>
      <point x="118" y="-15"/>
      <point x="130" y="-15" type="curve" smooth="yes"/>
      <point x="143" y="-15"/>
      <point x="149" y="-11"/>
      <point x="149" y="0" type="curve" smooth="yes"/>
      <point x="149" y="309" type="line"/>
      <point x="176" y="441"/>
      <point x="255" y="484"/>
      <point x="336" y="484" type="curve" smooth="yes"/>
      <point x="429" y="484"/>
      <point x="466" y="425"/>
      <point x="466" y="326" type="curve" smooth="yes"/>
      <point x="466" y="80" type="line" smooth="yes"/>
      <point x="466" y="14"/>
      <point x="498" y="-17"/>
    </contour>
  </outline>
</glyph>
<glyph name="p" format="2">
	<unicode hex="0070"/>
	<advance width="478"/>
	<outline>
		<contour>
			<point x="109" y="-312" type="curve" smooth="yes"/>
			<point x="119" y="-312"/>
			<point x="124" y="-309"/>
			<point x="124" y="-300" type="curve" smooth="yes"/>
			<point x="124" y="26" type="line"/>
			<point x="160" y="-1"/>
			<point x="194" y="-14"/>
			<point x="234" y="-14" type="curve" smooth="yes"/>
			<point x="353" y="-14"/>
			<point x="418" y="74"/>
			<point x="418" y="213" type="curve" smooth="yes"/>
			<point x="418" y="349"/>
			<point x="356" y="415"/>
			<point x="268" y="415" type="curve" smooth="yes"/>
			<point x="219" y="415"/>
			<point x="162" y="398"/>
			<point x="124" y="321" type="curve"/>
			<point x="124" y="400" type="line" smooth="yes"/>
			<point x="124" y="409"/>
			<point x="120" y="412"/>
			<point x="110" y="412" type="curve" smooth="yes"/>
			<point x="100" y="412"/>
			<point x="95" y="409"/>
			<point x="95" y="400" type="curve" smooth="yes"/>
			<point x="95" y="-300" type="line" smooth="yes"/>
			<point x="95" y="-309"/>
			<point x="99" y="-312"/>
		</contour>
		<contour>
			<point x="124" y="56" type="curve"/>
			<point x="124" y="262" type="line"/>
			<point x="154" y="353"/>
			<point x="205" y="387"/>
			<point x="262" y="387" type="curve" smooth="yes"/>
			<point x="346" y="387"/>
			<point x="386" y="320"/>
			<point x="386" y="210" type="curve" smooth="yes"/>
			<point x="386" y="78"/>
			<point x="327" y="13"/>
			<point x="237" y="13" type="curve" smooth="yes"/>
			<point x="199" y="13"/>
			<point x="163" y="25"/>
		</contour>
	</outline>
</glyph>
<glyph name="q" format="2">
  <advance width="478"/>
  <unicode hex="0071"/>
  <outline>
    <contour>
      <point x="215" y="-14" type="curve" smooth="yes"/>
      <point x="258" y="-14"/>
      <point x="317" y="2"/>
      <point x="354" y="80" type="curve"/>
      <point x="354" y="-300" type="line" smooth="yes"/>
      <point x="354" y="-309"/>
      <point x="358" y="-312"/>
      <point x="368" y="-312" type="curve" smooth="yes"/>
      <point x="378" y="-312"/>
      <point x="383" y="-309"/>
      <point x="383" y="-300" type="curve" smooth="yes"/>
      <point x="383" y="400" type="line" smooth="yes"/>
      <point x="383" y="409"/>
      <point x="379" y="412"/>
      <point x="369" y="412" type="curve" smooth="yes"/>
      <point x="359" y="412"/>
      <point x="354" y="409"/>
      <point x="354" y="400" type="curve" smooth="yes"/>
      <point x="354" y="382" type="line"/>
      <point x="317" y="405"/>
      <point x="284" y="415"/>
      <point x="247" y="415" type="curve" smooth="yes"/>
      <point x="125" y="415"/>
      <point x="60" y="321"/>
      <point x="60" y="191" type="curve" smooth="yes"/>
      <point x="60" y="61"/>
      <point x="126" y="-14"/>
    </contour>
    <contour>
      <point x="92" y="194" type="curve" smooth="yes"/>
      <point x="92" y="317"/>
      <point x="151" y="388"/>
      <point x="244" y="388" type="curve" smooth="yes"/>
      <point x="280" y="388"/>
      <point x="314" y="379"/>
      <point x="354" y="352" type="curve"/>
      <point x="354" y="150" type="line"/>
      <point x="330" y="46"/>
      <point x="273" y="14"/>
      <point x="221" y="14" type="curve" smooth="yes"/>
      <point x="136" y="14"/>
      <point x="92" y="90"/>
    </contour>
  </outline>
</glyph>
<glyph name="r" format="2">
	<unicode hex="0072"/>
	<advance width="363"/>
	<outline>
		<contour>
			<point x="104" y="-12" type="curve" smooth="yes"/>
			<point x="114" y="-12"/>
			<point x="119" y="-9"/>
			<point x="119" y="0" type="curve" smooth="yes"/>
			<point x="119" y="247" type="line"/>
			<point x="139" y="346"/>
			<point x="192" y="387"/>
			<point x="251" y="387" type="curve" smooth="yes"/>
			<point x="280" y="387"/>
			<point x="308" y="376"/>
			<point x="323" y="369" type="curve" smooth="yes"/>
			<point x="329" y="366"/>
			<point x="334" y="367"/>
			<point x="339" y="375" type="curve" smooth="yes"/>
			<point x="345" y="385"/>
			<point x="343" y="390"/>
			<point x="337" y="394" type="curve" smooth="yes"/>
			<point x="319" y="405"/>
			<point x="287" y="415"/>
			<point x="254" y="415" type="curve" smooth="yes"/>
			<point x="209" y="415"/>
			<point x="150" y="392"/>
			<point x="119" y="318" type="curve"/>
			<point x="119" y="400" type="line" smooth="yes"/>
			<point x="119" y="409"/>
			<point x="114" y="412"/>
			<point x="104" y="412" type="curve" smooth="yes"/>
			<point x="94" y="412"/>
			<point x="90" y="409"/>
			<point x="90" y="400" type="curve" smooth="yes"/>
			<point x="90" y="0" type="line" smooth="yes"/>
			<point x="90" y="-9"/>
			<point x="94" y="-12"/>
		</contour>
	</outline>
	<anchor name="bottom" x="104" y="0"/>
	<anchor name="top" x="209" y="400"/>
</glyph>
<glyph name="s" format="2">
  <advance width="479"/>
  <unicode hex="0073"/>
  <anchor x="238" y="0" name="bottom"/>
  <anchor x="253" y="500" name="top"/>
  <outline>
    <contour>
      <point x="251" y="-19" type="curve" smooth="yes"/>
      <point x="366" y="-19"/>
      <point x="414" y="61"/>
      <point x="414" y="134" type="curve" smooth="yes"/>
      <point x="414" y="316"/>
      <point x="131" y="233"/>
      <point x="131" y="386" type="curve" smooth="yes"/>
      <point x="131" y="444"/>
      <point x="170" y="485"/>
      <point x="251" y="485" type="curve" smooth="yes"/>
      <point x="306" y="485"/>
      <point x="339" y="466"/>
      <point x="385" y="430" type="curve" smooth="yes"/>
      <point x="393" y="424"/>
      <point x="403" y="423"/>
      <point x="409" y="429" type="curve" smooth="yes"/>
      <point x="416" y="436"/>
      <point x="420" y="443"/>
      <point x="413" y="451" type="curve" smooth="yes"/>
      <point x="385" y="485"/>
      <point x="326" y="519"/>
      <point x="254" y="519" type="curve" smooth="yes"/>
      <point x="153" y="519"/>
      <point x="94" y="460"/>
      <point x="94" y="384" type="curve" smooth="yes"/>
      <point x="94" y="201"/>
      <point x="375" y="283"/>
      <point x="375" y="133" type="curve" smooth="yes"/>
      <point x="375" y="66"/>
      <point x="330" y="15"/>
      <point x="255" y="15" type="curve" smooth="yes"/>
      <point x="185" y="15"/>
      <point x="134" y="41"/>
      <point x="96" y="75" type="curve" smooth="yes"/>
      <point x="86" y="84"/>
      <point x="78" y="84"/>
      <point x="70" y="75" type="curve" smooth="yes"/>
      <point x="63" y="66"/>
      <point x="59" y="59"/>
      <point x="68" y="49" type="curve" smooth="yes"/>
      <point x="90" y="25"/>
      <point x="155" y="-19"/>
    </contour>
  </outline>
</glyph>
<glyph name="t" format="2">
  <advance width="388"/>
  <unicode hex="0074"/>
  <anchor x="239" y="0" name="bottom"/>
  <anchor x="189" y="294" name="center"/>
  <anchor x="159" y="698" name="top"/>
  <anchor x="195" y="781" name="topright"/>
  <outline>
    <contour>
      <point x="239" y="-17" type="curve" smooth="yes"/>
      <point x="291" y="-17"/>
      <point x="330" y="13"/>
      <point x="354" y="50" type="curve" smooth="yes"/>
      <point x="359" y="58"/>
      <point x="355" y="66"/>
      <point x="348" y="73" type="curve" smooth="yes"/>
      <point x="339" y="79"/>
      <point x="330" y="80"/>
      <point x="324" y="71" type="curve" smooth="yes"/>
      <point x="303" y="40"/>
      <point x="279" y="18"/>
      <point x="245" y="18" type="curve" smooth="yes"/>
      <point x="191" y="18"/>
      <point x="179" y="58"/>
      <point x="179" y="118" type="curve" smooth="yes"/>
      <point x="179" y="468" type="line"/>
      <point x="321" y="468" type="line" smooth="yes"/>
      <point x="333" y="468"/>
      <point x="336" y="473"/>
      <point x="336" y="483" type="curve" smooth="yes"/>
      <point x="336" y="494"/>
      <point x="333" y="500"/>
      <point x="321" y="500" type="curve" smooth="yes"/>
      <point x="179" y="500" type="line"/>
      <point x="179" y="715" type="line" smooth="yes"/>
      <point x="179" y="726"/>
      <point x="173" y="730"/>
      <point x="160" y="730" type="curve" smooth="yes"/>
      <point x="148" y="730"/>
      <point x="143" y="726"/>
      <point x="143" y="715" type="curve" smooth="yes"/>
      <point x="143" y="500" type="line"/>
      <point x="65" y="500" type="line" smooth="yes"/>
      <point x="54" y="500"/>
      <point x="50" y="494"/>
      <point x="50" y="483" type="curve" smooth="yes"/>
      <point x="50" y="473"/>
      <point x="54" y="468"/>
      <point x="65" y="468" type="curve" smooth="yes"/>
      <point x="143" y="468" type="line"/>
      <point x="143" y="105" type="line" smooth="yes"/>
      <point x="143" y="26"/>
      <point x="174" y="-17"/>
    </contour>
  </outline>
</glyph>
<glyph name="u" format="2">
	<unicode hex="0075"/>
	<advance width="517"/>
	<outline>
		<contour>
			<point x="216" y="-15" type="curve" smooth="yes"/>
			<point x="274" y="-15"/>
			<point x="352" y="8"/>
			<point x="381" y="123" type="curve"/>
			<point x="368" y="153" type="line"/>
			<point x="346" y="47"/>
			<point x="283" y="13"/>
			<point x="220" y="13" type="curve" smooth="yes"/>
			<point x="149" y="13"/>
			<point x="119" y="60"/>
			<point x="119" y="139" type="curve" smooth="yes"/>
			<point x="119" y="399" type="line" smooth="yes"/>
			<point x="119" y="408"/>
			<point x="114" y="411"/>
			<point x="104" y="411" type="curve" smooth="yes"/>
			<point x="94" y="411"/>
			<point x="90" y="408"/>
			<point x="90" y="399" type="curve" smooth="yes"/>
			<point x="90" y="133" type="line" smooth="yes"/>
			<point x="90" y="28"/>
			<point x="146" y="-15"/>
		</contour>
		<contour>
			<point x="430" y="-15" type="curve" smooth="yes"/>
			<point x="460" y="-15"/>
			<point x="491" y="2"/>
			<point x="509" y="27" type="curve" smooth="yes"/>
			<point x="513" y="33"/>
			<point x="511" y="38"/>
			<point x="506" y="43" type="curve" smooth="yes"/>
			<point x="500" y="49"/>
			<point x="494" y="48"/>
			<point x="489" y="41" type="curve" smooth="yes"/>
			<point x="471" y="20"/>
			<point x="452" y="13"/>
			<point x="435" y="13" type="curve" smooth="yes"/>
			<point x="407" y="13"/>
			<point x="397" y="35"/>
			<point x="397" y="73" type="curve" smooth="yes"/>
			<point x="397" y="400" type="line" smooth="yes"/>
			<point x="397" y="409"/>
			<point x="393" y="412"/>
			<point x="383" y="412" type="curve" smooth="yes"/>
			<point x="373" y="412"/>
			<point x="368" y="409"/>
			<point x="368" y="400" type="curve" smooth="yes"/>
			<point x="368" y="63" type="line" smooth="yes"/>
			<point x="368" y="10"/>
			<point x="393" y="-15"/>
		</contour>
	</outline>
	<anchor name="bottom" x="242" y="0"/>
	<anchor name="ogonek" x="465" y="10"/>
	<anchor name="top" x="242" y="400"/>
	<anchor name="topright" x="376" y="411"/>
	<guideline x="244" y="400" angle="90.2301"/>
</glyph>
<glyph name="y" format="2">
	<unicode hex="0079"/>
	<advance width="492"/>
	<outline>
		<contour>
			<point x="216" y="-15" type="curve" smooth="yes"/>
			<point x="267" y="-15"/>
			<point x="333" y="3"/>
			<point x="368" y="84" type="curve"/>
			<point x="368" y="-125" type="line" smooth="yes"/>
			<point x="368" y="-236"/>
			<point x="320" y="-287"/>
			<point x="241" y="-287" type="curve" smooth="yes"/>
			<point x="176" y="-287"/>
			<point x="140" y="-264"/>
			<point x="117" y="-216" type="curve" smooth="yes"/>
			<point x="114" y="-209"/>
			<point x="108" y="-206"/>
			<point x="99" y="-211" type="curve" smooth="yes"/>
			<point x="90" y="-216"/>
			<point x="88" y="-221"/>
			<point x="92" y="-229" type="curve" smooth="yes"/>
			<point x="118" y="-284"/>
			<point x="165" y="-315"/>
			<point x="237" y="-315" type="curve" smooth="yes"/>
			<point x="336" y="-315"/>
			<point x="397" y="-252"/>
			<point x="397" y="-127" type="curve" smooth="yes"/>
			<point x="397" y="400" type="line" smooth="yes"/>
			<point x="397" y="409"/>
			<point x="393" y="412"/>
			<point x="383" y="412" type="curve" smooth="yes"/>
			<point x="373" y="412"/>
			<point x="368" y="409"/>
			<point x="368" y="400" type="curve" smooth="yes"/>
			<point x="368" y="153" type="line"/>
			<point x="346" y="47"/>
			<point x="283" y="13"/>
			<point x="220" y="13" type="curve" smooth="yes"/>
			<point x="149" y="13"/>
			<point x="119" y="60"/>
			<point x="119" y="139" type="curve" smooth="yes"/>
			<point x="119" y="399" type="line" smooth="yes"/>
			<point x="119" y="408"/>
			<point x="114" y="411"/>
			<point x="104" y="411" type="curve" smooth="yes"/>
			<point x="94" y="411"/>
			<point x="90" y="408"/>
			<point x="90" y="399" type="curve" smooth="yes"/>
			<point x="90" y="133" type="line" smooth="yes"/>
			<point x="90" y="28"/>
			<point x="146" y="-15"/>
		</contour>
	</outline>
	<anchor name="bottom" x="237" y="0"/>
	<anchor name="top" x="246" y="400"/>
</glyph>
<glyph name="asciitilde" format="2">
  <advance width="610"/>
  <unicode hex="007E"/>
  <outline>
    <contour>
      <point x="413" y="273" type="curve" smooth="yes"/>
      <point x="475" y="273"/>
      <point x="528" y="319"/>
      <point x="530" y="410" type="curve" smooth="yes"/>
      <point x="530" y="418"/>
      <point x="526" y="421"/>
      <point x="516" y="421" type="curve" smooth="yes"/>
      <point x="506" y="421"/>
      <point x="502" y="418"/>
      <point x="502" y="411" type="curve" smooth="yes"/>
      <point x="500" y="331"/>
      <point x="458" y="300"/>
      <point x="413" y="300" type="curve" smooth="yes"/>
      <point x="367" y="300"/>
      <point x="342" y="329"/>
      <point x="315" y="359" type="curve" smooth="yes"/>
      <point x="287" y="392"/>
      <point x="256" y="425"/>
      <point x="198" y="425" type="curve" smooth="yes"/>
      <point x="136" y="425"/>
      <point x="82" y="379"/>
      <point x="80" y="288" type="curve" smooth="yes"/>
      <point x="80" y="280"/>
      <point x="84" y="277"/>
      <point x="94" y="277" type="curve" smooth="yes"/>
      <point x="104" y="277"/>
      <point x="108" y="280"/>
      <point x="108" y="287" type="curve" smooth="yes"/>
      <point x="110" y="367"/>
      <point x="153" y="398"/>
      <point x="198" y="398" type="curve" smooth="yes"/>
      <point x="244" y="398"/>
      <point x="269" y="369"/>
      <point x="295" y="339" type="curve" smooth="yes"/>
      <point x="324" y="307"/>
      <point x="354" y="273"/>
    </contour>
  </outline>
</glyph>
<glyph name="sterling" format="2">
  <advance width="540"/>
  <unicode hex="00A3"/>
  <outline>
    <contour>
      <point x="47" y="0" type="curve" smooth="yes"/>
      <point x="506" y="0" type="line" smooth="yes"/>
      <point x="511" y="0"/>
      <point x="515" y="5"/>
      <point x="515" y="15" type="curve" smooth="yes"/>
      <point x="515" y="25"/>
      <point x="511" y="28"/>
      <point x="506" y="28" type="curve" smooth="yes"/>
      <point x="197" y="28" type="line"/>
      <point x="197" y="288" type="line"/>
      <point x="380" y="288" type="line" smooth="yes"/>
      <point x="385" y="288"/>
      <point x="389" y="293"/>
      <point x="389" y="303" type="curve" smooth="yes"/>
      <point x="389" y="313"/>
      <point x="385" y="316"/>
      <point x="380" y="316" type="curve" smooth="yes"/>
      <point x="197" y="316" type="line"/>
      <point x="197" y="535" type="line" smooth="yes"/>
      <point x="197" y="630"/>
      <point x="249" y="682"/>
      <point x="333" y="682" type="curve" smooth="yes"/>
      <point x="383" y="682"/>
      <point x="426" y="669"/>
      <point x="478" y="629" type="curve" smooth="yes"/>
      <point x="486" y="623"/>
      <point x="493" y="622"/>
      <point x="501" y="631" type="curve" smooth="yes"/>
      <point x="509" y="640"/>
      <point x="505" y="646"/>
      <point x="498" y="652" type="curve" smooth="yes"/>
      <point x="449" y="693"/>
      <point x="396" y="712"/>
      <point x="333" y="712" type="curve" smooth="yes"/>
      <point x="236" y="712"/>
      <point x="167" y="648"/>
      <point x="167" y="537" type="curve" smooth="yes"/>
      <point x="167" y="316" type="line"/>
      <point x="69" y="316" type="line" smooth="yes"/>
      <point x="64" y="316"/>
      <point x="60" y="312"/>
      <point x="60" y="302" type="curve" smooth="yes"/>
      <point x="60" y="292"/>
      <point x="64" y="288"/>
      <point x="69" y="288" type="curve" smooth="yes"/>
      <point x="167" y="288" type="line"/>
      <point x="167" y="28" type="line"/>
      <point x="47" y="28" type="line" smooth="yes"/>
      <point x="42" y="28"/>
      <point x="38" y="25"/>
      <point x="38" y="15" type="curve" smooth="yes"/>
      <point x="38" y="5"/>
      <point x="42" y="0"/>
    </contour>
  </outline>
</glyph>
<glyph name="section" format="2">
  <advance width="666"/>
  <unicode hex="00A7"/>
  <outline>
    <contour>
      <point x="598" y="236" type="curve" smooth="yes"/>
      <point x="598" y="525"/>
      <point x="161" y="440"/>
      <point x="161" y="684" type="curve" smooth="yes"/>
      <point x="161" y="786"/>
      <point x="228" y="853"/>
      <point x="343" y="853" type="curve" smooth="yes"/>
      <point x="421" y="853"/>
      <point x="481" y="823"/>
      <point x="538" y="776" type="curve" smooth="yes"/>
      <point x="551" y="765"/>
      <point x="558" y="761"/>
      <point x="569" y="773" type="curve" smooth="yes"/>
      <point x="578" y="781"/>
      <point x="578" y="788"/>
      <point x="566" y="798" type="curve" smooth="yes"/>
      <point x="514" y="845"/>
      <point x="444" y="890"/>
      <point x="343" y="890" type="curve" smooth="yes"/>
      <point x="220" y="890"/>
      <point x="121" y="813"/>
      <point x="121" y="684" type="curve" smooth="yes"/>
      <point x="121" y="414"/>
      <point x="558" y="488"/>
      <point x="558" y="236" type="curve" smooth="yes"/>
      <point x="558" y="145"/>
      <point x="503" y="75"/>
      <point x="428" y="30" type="curve"/>
      <point x="459" y="9" type="line"/>
      <point x="539" y="60"/>
      <point x="598" y="133"/>
    </contour>
    <contour>
      <point x="80" y="305" type="curve" smooth="yes"/>
      <point x="80" y="20"/>
      <point x="524" y="104"/>
      <point x="524" y="-162" type="curve" smooth="yes"/>
      <point x="524" y="-284"/>
      <point x="428" y="-356"/>
      <point x="321" y="-356" type="curve" smooth="yes"/>
      <point x="233" y="-356"/>
      <point x="168" y="-327"/>
      <point x="111" y="-276" type="curve" smooth="yes"/>
      <point x="98" y="-264"/>
      <point x="93" y="-261"/>
      <point x="81" y="-272" type="curve" smooth="yes"/>
      <point x="73" y="-281"/>
      <point x="75" y="-291"/>
      <point x="86" y="-301" type="curve" smooth="yes"/>
      <point x="145" y="-357"/>
      <point x="216" y="-394"/>
      <point x="321" y="-394" type="curve" smooth="yes"/>
      <point x="445" y="-394"/>
      <point x="564" y="-310"/>
      <point x="564" y="-162" type="curve" smooth="yes"/>
      <point x="564" y="131"/>
      <point x="120" y="54"/>
      <point x="120" y="305" type="curve" smooth="yes"/>
      <point x="120" y="396"/>
      <point x="175" y="466"/>
      <point x="250" y="511" type="curve"/>
      <point x="219" y="533" type="line"/>
      <point x="139" y="481"/>
      <point x="80" y="409"/>
    </contour>
  </outline>
</glyph>
<glyph name="copyright" format="2">
  <advance width="724"/>
  <unicode hex="00A9"/>
  <outline>
    <contour>
      <point x="362" y="58" type="curve" smooth="yes"/>
      <point x="522" y="58"/>
      <point x="649" y="185"/>
      <point x="649" y="345" type="curve" smooth="yes"/>
      <point x="649" y="505"/>
      <point x="522" y="632"/>
      <point x="362" y="632" type="curve" smooth="yes"/>
      <point x="202" y="632"/>
      <point x="75" y="505"/>
      <point x="75" y="345" type="curve" smooth="yes"/>
      <point x="75" y="185"/>
      <point x="202" y="58"/>
    </contour>
    <contour>
      <point x="362" y="82" type="curve" smooth="yes"/>
      <point x="217" y="82"/>
      <point x="99" y="200"/>
      <point x="99" y="345" type="curve" smooth="yes"/>
      <point x="99" y="490"/>
      <point x="217" y="608"/>
      <point x="362" y="608" type="curve" smooth="yes"/>
      <point x="507" y="608"/>
      <point x="625" y="490"/>
      <point x="625" y="345" type="curve" smooth="yes"/>
      <point x="625" y="200"/>
      <point x="507" y="82"/>
    </contour>
    <contour>
      <point x="367" y="183" type="curve" smooth="yes"/>
      <point x="403" y="183"/>
      <point x="438" y="200"/>
      <point x="467" y="240" type="curve" smooth="yes"/>
      <point x="470" y="244"/>
      <point x="469" y="249"/>
      <point x="464" y="253" type="curve" smooth="yes"/>
      <point x="458" y="258"/>
      <point x="452" y="259"/>
      <point x="449" y="255" type="curve" smooth="yes"/>
      <point x="423" y="226"/>
      <point x="397" y="211"/>
      <point x="367" y="211" type="curve" smooth="yes"/>
      <point x="305" y="211"/>
      <point x="261" y="261"/>
      <point x="261" y="347" type="curve" smooth="yes"/>
      <point x="261" y="432"/>
      <point x="306" y="483"/>
      <point x="368" y="483" type="curve" smooth="yes"/>
      <point x="396" y="483"/>
      <point x="423" y="472"/>
      <point x="440" y="455" type="curve" smooth="yes"/>
      <point x="444" y="450"/>
      <point x="449" y="449"/>
      <point x="456" y="455" type="curve" smooth="yes"/>
      <point x="461" y="459"/>
      <point x="463" y="463"/>
      <point x="459" y="469" type="curve" smooth="yes"/>
      <point x="436" y="501"/>
      <point x="402" y="510"/>
      <point x="368" y="510" type="curve" smooth="yes"/>
      <point x="285" y="510"/>
      <point x="231" y="442"/>
      <point x="231" y="347" type="curve" smooth="yes"/>
      <point x="231" y="251"/>
      <point x="284" y="183"/>
    </contour>
  </outline>
</glyph>
<glyph name="ordfeminine" format="2">
  <advance width="383"/>
  <unicode hex="00AA"/>
  <outline>
    <contour>
      <point x="164" y="389" type="curve" smooth="yes"/>
      <point x="203" y="389"/>
      <point x="244" y="406"/>
      <point x="270" y="459" type="curve"/>
      <point x="270" y="455"/>
      <point x="270" y="450"/>
      <point x="270" y="446" type="curve" smooth="yes"/>
      <point x="270" y="410"/>
      <point x="290" y="389"/>
      <point x="322" y="389" type="curve" smooth="yes"/>
      <point x="344" y="389"/>
      <point x="367" y="402"/>
      <point x="381" y="421" type="curve" smooth="yes"/>
      <point x="384" y="425"/>
      <point x="383" y="432"/>
      <point x="379" y="436" type="curve" smooth="yes"/>
      <point x="374" y="441"/>
      <point x="369" y="440"/>
      <point x="365" y="436" type="curve" smooth="yes"/>
      <point x="352" y="421"/>
      <point x="338" y="414"/>
      <point x="326" y="414" type="curve" smooth="yes"/>
      <point x="306" y="414"/>
      <point x="297" y="428"/>
      <point x="297" y="455" type="curve" smooth="yes"/>
      <point x="297" y="707" type="line" smooth="yes"/>
      <point x="297" y="714"/>
      <point x="294" y="717"/>
      <point x="284" y="717" type="curve" smooth="yes"/>
      <point x="275" y="717"/>
      <point x="270" y="714"/>
      <point x="270" y="707" type="curve" smooth="yes"/>
      <point x="270" y="695" type="line"/>
      <point x="242" y="712"/>
      <point x="214" y="720"/>
      <point x="188" y="720" type="curve" smooth="yes"/>
      <point x="96" y="720"/>
      <point x="45" y="648"/>
      <point x="45" y="547" type="curve" smooth="yes"/>
      <point x="45" y="446"/>
      <point x="96" y="389"/>
    </contour>
    <contour>
      <point x="75" y="549" type="curve" smooth="yes"/>
      <point x="75" y="642"/>
      <point x="119" y="694"/>
      <point x="187" y="694" type="curve" smooth="yes"/>
      <point x="213" y="694"/>
      <point x="240" y="688"/>
      <point x="270" y="668" type="curve"/>
      <point x="270" y="513" type="line"/>
      <point x="251" y="439"/>
      <point x="209" y="415"/>
      <point x="170" y="415" type="curve" smooth="yes"/>
      <point x="107" y="415"/>
      <point x="75" y="471"/>
    </contour>
  </outline>
</glyph>
<glyph name="logicalnot" format="2">
	<unicode hex="00AC"/>
	<advance width="610"/>
	<outline>
		<contour>
			<point x="515" y="136" type="curve" smooth="yes"/>
			<point x="525" y="136"/>
			<point x="530" y="139"/>
			<point x="530" y="148" type="curve" smooth="yes"/>
			<point x="530" y="349" type="line" smooth="yes"/>
			<point x="530" y="359"/>
			<point x="527" y="364"/>
			<point x="518" y="364" type="curve" smooth="yes"/>
			<point x="92" y="364" type="line" smooth="yes"/>
			<point x="83" y="364"/>
			<point x="80" y="359"/>
			<point x="80" y="349" type="curve" smooth="yes"/>
			<point x="80" y="340"/>
			<point x="83" y="336"/>
			<point x="92" y="336" type="curve" smooth="yes"/>
			<point x="502" y="336" type="line"/>
			<point x="502" y="148" type="line" smooth="yes"/>
			<point x="502" y="139"/>
			<point x="506" y="136"/>
		</contour>
	</outline>
</glyph>
<glyph name="paragraph" format="2">
  <advance width="921"/>
  <unicode hex="00B6"/>
  <outline>
    <contour>
      <point x="450" y="-389" type="curve" smooth="yes"/>
      <point x="464" y="-389"/>
      <point x="469" y="-385"/>
      <point x="469" y="-374" type="curve" smooth="yes"/>
      <point x="469" y="840" type="line"/>
      <point x="650" y="840" type="line"/>
      <point x="650" y="-374" type="line" smooth="yes"/>
      <point x="650" y="-385"/>
      <point x="655" y="-389"/>
      <point x="669" y="-389" type="curve" smooth="yes"/>
      <point x="683" y="-389"/>
      <point x="688" y="-385"/>
      <point x="688" y="-374" type="curve" smooth="yes"/>
      <point x="688" y="840" type="line"/>
      <point x="813" y="840" type="line" smooth="yes"/>
      <point x="819" y="840"/>
      <point x="824" y="846"/>
      <point x="824" y="859" type="curve" smooth="yes"/>
      <point x="824" y="871"/>
      <point x="819" y="875"/>
      <point x="813" y="875" type="curve" smooth="yes"/>
      <point x="374" y="875" type="line" smooth="yes"/>
      <point x="210" y="875"/>
      <point x="93" y="760"/>
      <point x="93" y="581" type="curve" smooth="yes"/>
      <point x="93" y="401"/>
      <point x="210" y="286"/>
      <point x="374" y="286" type="curve" smooth="yes"/>
      <point x="431" y="286" type="line"/>
      <point x="431" y="-374" type="line" smooth="yes"/>
      <point x="431" y="-385"/>
      <point x="436" y="-389"/>
    </contour>
  </outline>
</glyph>
<glyph name="AE" format="2">
  <advance width="771"/>
  <unicode hex="00C6"/>
  <anchor x="535" y="670" name="top"/>
  <outline>
    <contour>
      <point x="722" y="0" type="line" smooth="yes"/>
      <point x="727" y="0"/>
      <point x="731" y="4"/>
      <point x="731" y="14" type="curve" smooth="yes"/>
      <point x="731" y="24"/>
      <point x="727" y="28"/>
      <point x="722" y="28" type="curve" smooth="yes"/>
      <point x="431" y="28" type="line"/>
      <point x="431" y="672" type="line"/>
      <point x="722" y="672" type="line" smooth="yes"/>
      <point x="727" y="672"/>
      <point x="731" y="676"/>
      <point x="731" y="686" type="curve" smooth="yes"/>
      <point x="731" y="696"/>
      <point x="727" y="700"/>
      <point x="722" y="700" type="curve" smooth="yes"/>
      <point x="399" y="700" type="line" smooth="yes"/>
      <point x="388" y="700"/>
      <point x="383" y="697"/>
      <point x="378" y="688" type="curve" smooth="yes"/>
      <point x="24" y="13" type="line" smooth="yes"/>
      <point x="18" y="2"/>
      <point x="19" y="-3"/>
      <point x="28" y="-8" type="curve" smooth="yes"/>
      <point x="38" y="-13"/>
      <point x="44" y="-11"/>
      <point x="50" y="1" type="curve" smooth="yes"/>
      <point x="401" y="671" type="line"/>
      <point x="401" y="12" type="line" smooth="yes"/>
      <point x="401" y="3"/>
      <point x="405" y="0"/>
      <point x="416" y="0" type="curve" smooth="yes"/>
    </contour>
    <contour>
      <point x="672" y="336" type="line" smooth="yes"/>
      <point x="677" y="336"/>
      <point x="681" y="340"/>
      <point x="681" y="350" type="curve" smooth="yes"/>
      <point x="681" y="360"/>
      <point x="677" y="364"/>
      <point x="672" y="364" type="curve" smooth="yes"/>
      <point x="224" y="364" type="line"/>
      <point x="209" y="336" type="line"/>
    </contour>
  </outline>
</glyph>
<glyph name="multiply" format="2">
  <advance width="610"/>
  <unicode hex="00D7"/>
  <outline>
    <contour>
      <point x="465" y="190" type="curve" smooth="yes"/>
      <point x="472" y="197"/>
      <point x="473" y="203"/>
      <point x="467" y="209" type="curve" smooth="yes"/>
      <point x="165" y="510" type="line" smooth="yes"/>
      <point x="159" y="517"/>
      <point x="153" y="515"/>
      <point x="146" y="508" type="curve" smooth="yes"/>
      <point x="140" y="502"/>
      <point x="139" y="497"/>
      <point x="146" y="491" type="curve" smooth="yes"/>
      <point x="447" y="189" type="line" smooth="yes"/>
      <point x="453" y="183"/>
      <point x="458" y="184"/>
    </contour>
    <contour>
      <point x="146" y="191" type="curve" smooth="yes"/>
      <point x="153" y="184"/>
      <point x="158" y="182"/>
      <point x="165" y="189" type="curve" smooth="yes"/>
      <point x="466" y="490" type="line" smooth="yes"/>
      <point x="472" y="496"/>
      <point x="471" y="502"/>
      <point x="464" y="509" type="curve" smooth="yes"/>
      <point x="457" y="515"/>
      <point x="453" y="516"/>
      <point x="446" y="510" type="curve" smooth="yes"/>
      <point x="145" y="208" type="line" smooth="yes"/>
      <point x="139" y="202"/>
      <point x="139" y="197"/>
    </contour>
  </outline>
</glyph>
<glyph name="germandbls" format="2">
	<unicode hex="00DF"/>
	<advance width="528"/>
	<outline>
		<contour>
			<point x="466" y="202" type="curve" smooth="yes"/>
			<point x="466" y="309"/>
			<point x="410" y="388"/>
			<point x="272" y="391" type="curve"/>
			<point x="267" y="379" type="line"/>
			<point x="405" y="398"/>
			<point x="443" y="479"/>
			<point x="443" y="554" type="curve" smooth="yes"/>
			<point x="443" y="656"/>
			<point x="378" y="715"/>
			<point x="278" y="715" type="curve" smooth="yes"/>
			<point x="150" y="715"/>
			<point x="96" y="623"/>
			<point x="96" y="499" type="curve" smooth="yes"/>
			<point x="96" y="-300" type="line" smooth="yes"/>
			<point x="96" y="-308"/>
			<point x="100" y="-312"/>
			<point x="110" y="-312" type="curve" smooth="yes"/>
			<point x="121" y="-312"/>
			<point x="125" y="-308"/>
			<point x="125" y="-300" type="curve" smooth="yes"/>
			<point x="125" y="493" type="line" smooth="yes"/>
			<point x="125" y="602"/>
			<point x="162" y="688"/>
			<point x="278" y="688" type="curve" smooth="yes"/>
			<point x="359" y="688"/>
			<point x="414" y="638"/>
			<point x="414" y="555" type="curve" smooth="yes"/>
			<point x="414" y="478"/>
			<point x="366" y="400"/>
			<point x="237" y="400" type="curve" smooth="yes"/>
			<point x="226" y="400" type="line" smooth="yes"/>
			<point x="221" y="400"/>
			<point x="217" y="397"/>
			<point x="217" y="387" type="curve" smooth="yes"/>
			<point x="217" y="377"/>
			<point x="221" y="374"/>
			<point x="226" y="374" type="curve" smooth="yes"/>
			<point x="234" y="374" type="line" smooth="yes"/>
			<point x="382" y="374"/>
			<point x="436" y="304"/>
			<point x="436" y="202" type="curve" smooth="yes"/>
			<point x="436" y="80"/>
			<point x="364" y="12"/>
			<point x="270" y="12" type="curve" smooth="yes"/>
			<point x="236" y="12"/>
			<point x="210" y="21"/>
			<point x="183" y="39" type="curve" smooth="yes"/>
			<point x="175" y="44"/>
			<point x="168" y="45"/>
			<point x="162" y="37" type="curve" smooth="yes"/>
			<point x="157" y="30"/>
			<point x="154" y="23"/>
			<point x="163" y="17" type="curve" smooth="yes"/>
			<point x="193" y="-2"/>
			<point x="225" y="-15"/>
			<point x="270" y="-15" type="curve" smooth="yes"/>
			<point x="385" y="-15"/>
			<point x="466" y="67"/>
		</contour>
	</outline>
</glyph>
<glyph name="eth" format="2">
  <advance width="603"/>
  <unicode hex="00F0"/>
  <outline>
    <contour>
      <point x="294" y="-19" type="curve" smooth="yes"/>
      <point x="420" y="-19"/>
      <point x="526" y="90"/>
      <point x="526" y="296" type="curve" smooth="yes"/>
      <point x="526" y="549"/>
      <point x="414" y="709"/>
      <point x="223" y="888" type="curve" smooth="yes"/>
      <point x="216" y="894"/>
      <point x="209" y="894"/>
      <point x="200" y="885" type="curve" smooth="yes"/>
      <point x="191" y="876"/>
      <point x="189" y="870"/>
      <point x="198" y="861" type="curve" smooth="yes"/>
      <point x="379" y="690"/>
      <point x="488" y="531"/>
      <point x="488" y="296" type="curve" smooth="yes"/>
      <point x="488" y="105"/>
      <point x="396" y="16"/>
      <point x="294" y="16" type="curve" smooth="yes"/>
      <point x="185" y="16"/>
      <point x="126" y="113"/>
      <point x="126" y="250" type="curve" smooth="yes"/>
      <point x="126" y="385"/>
      <point x="193" y="484"/>
      <point x="304" y="484" type="curve" smooth="yes"/>
      <point x="384" y="484"/>
      <point x="448" y="436"/>
      <point x="496" y="351" type="curve"/>
      <point x="510" y="379" type="line"/>
      <point x="460" y="471"/>
      <point x="393" y="519"/>
      <point x="304" y="519" type="curve" smooth="yes"/>
      <point x="178" y="519"/>
      <point x="88" y="408"/>
      <point x="88" y="250" type="curve" smooth="yes"/>
      <point x="88" y="90"/>
      <point x="159" y="-19"/>
    </contour>
    <contour>
      <point x="229" y="625" type="curve" smooth="yes"/>
      <point x="501" y="750" type="line" smooth="yes"/>
      <point x="511" y="755"/>
      <point x="513" y="761"/>
      <point x="509" y="773" type="curve" smooth="yes"/>
      <point x="504" y="785"/>
      <point x="496" y="789"/>
      <point x="486" y="784" type="curve" smooth="yes"/>
      <point x="215" y="659" type="line" smooth="yes"/>
      <point x="204" y="654"/>
      <point x="203" y="646"/>
      <point x="206" y="636" type="curve" smooth="yes"/>
      <point x="211" y="624"/>
      <point x="219" y="620"/>
    </contour>
  </outline>
</glyph>
<glyph name="idotless" format="2">
  <advance width="240"/>
  <unicode hex="0131"/>
  <anchor x="158" y="0" name="bottom"/>
  <anchor x="202" y="0" name="ogonek"/>
  <anchor x="104" y="400" name="top"/>
  <outline>
    <contour>
      <point x="153" y="-14" type="curve" smooth="yes"/>
      <point x="183" y="-14"/>
      <point x="214" y="3"/>
      <point x="232" y="28" type="curve" smooth="yes"/>
      <point x="236" y="34"/>
      <point x="234" y="39"/>
      <point x="229" y="44" type="curve" smooth="yes"/>
      <point x="223" y="50"/>
      <point x="217" y="49"/>
      <point x="212" y="42" type="curve" smooth="yes"/>
      <point x="194" y="21"/>
      <point x="175" y="14"/>
      <point x="158" y="14" type="curve" smooth="yes"/>
      <point x="129" y="14"/>
      <point x="119" y="36"/>
      <point x="119" y="74" type="curve" smooth="yes"/>
      <point x="119" y="400" type="line" smooth="yes"/>
      <point x="119" y="409"/>
      <point x="114" y="412"/>
      <point x="104" y="412" type="curve" smooth="yes"/>
      <point x="94" y="412"/>
      <point x="90" y="409"/>
      <point x="90" y="400" type="curve" smooth="yes"/>
      <point x="90" y="64" type="line" smooth="yes"/>
      <point x="90" y="11"/>
      <point x="115" y="-14"/>
    </contour>
  </outline>
</glyph>
<glyph name="Eng" format="2">
  <advance width="888"/>
  <unicode hex="014A"/>
  <outline>
    <contour>
      <point x="738" y="-122" type="curve" smooth="yes"/>
      <point x="738" y="875" type="line" smooth="yes"/>
      <point x="738" y="886"/>
      <point x="733" y="890"/>
      <point x="719" y="890" type="curve" smooth="yes"/>
      <point x="705" y="890"/>
      <point x="700" y="886"/>
      <point x="700" y="875" type="curve" smooth="yes"/>
      <point x="700" y="64" type="line"/>
      <point x="189" y="880" type="line" smooth="yes"/>
      <point x="184" y="888"/>
      <point x="180" y="890"/>
      <point x="168" y="890" type="curve" smooth="yes"/>
      <point x="156" y="890"/>
      <point x="150" y="886"/>
      <point x="150" y="875" type="curve" smooth="yes"/>
      <point x="150" y="1" type="line" smooth="yes"/>
      <point x="150" y="-10"/>
      <point x="155" y="-14"/>
      <point x="169" y="-14" type="curve" smooth="yes"/>
      <point x="183" y="-14"/>
      <point x="188" y="-10"/>
      <point x="188" y="1" type="curve" smooth="yes"/>
      <point x="188" y="813" type="line"/>
      <point x="701" y="-9" type="line"/>
      <point x="701" y="-120" type="line" smooth="yes"/>
      <point x="701" y="-180"/>
      <point x="689" y="-220"/>
      <point x="629" y="-220" type="curve" smooth="yes"/>
      <point x="594" y="-220"/>
      <point x="573" y="-200"/>
      <point x="558" y="-171" type="curve" smooth="yes"/>
      <point x="553" y="-162"/>
      <point x="546" y="-160"/>
      <point x="535" y="-166" type="curve" smooth="yes"/>
      <point x="526" y="-171"/>
      <point x="526" y="-180"/>
      <point x="529" y="-187" type="curve" smooth="yes"/>
      <point x="543" y="-226"/>
      <point x="580" y="-255"/>
      <point x="628" y="-255" type="curve" smooth="yes"/>
      <point x="706" y="-255"/>
      <point x="738" y="-201"/>
    </contour>
  </outline>
</glyph>
<glyph name="eng" format="2">
  <advance width="490"/>
  <unicode hex="014B"/>
  <outline>
    <contour>
      <point x="402" y="-98" type="curve" smooth="yes"/>
      <point x="402" y="267" type="line" smooth="yes"/>
      <point x="402" y="372"/>
      <point x="346" y="415"/>
      <point x="273" y="415" type="curve" smooth="yes"/>
      <point x="220" y="415"/>
      <point x="154" y="397"/>
      <point x="119" y="316" type="curve"/>
      <point x="119" y="400" type="line" smooth="yes"/>
      <point x="119" y="409"/>
      <point x="114" y="412"/>
      <point x="104" y="412" type="curve" smooth="yes"/>
      <point x="94" y="412"/>
      <point x="90" y="409"/>
      <point x="90" y="400" type="curve" smooth="yes"/>
      <point x="90" y="0" type="line" smooth="yes"/>
      <point x="90" y="-9"/>
      <point x="94" y="-12"/>
      <point x="104" y="-12" type="curve" smooth="yes"/>
      <point x="114" y="-12"/>
      <point x="119" y="-9"/>
      <point x="119" y="0" type="curve" smooth="yes"/>
      <point x="119" y="247" type="line"/>
      <point x="141" y="353"/>
      <point x="204" y="387"/>
      <point x="269" y="387" type="curve" smooth="yes"/>
      <point x="343" y="387"/>
      <point x="373" y="340"/>
      <point x="373" y="261" type="curve" smooth="yes"/>
      <point x="373" y="-96" type="line" smooth="yes"/>
      <point x="373" y="-144"/>
      <point x="363" y="-176"/>
      <point x="315" y="-176" type="curve" smooth="yes"/>
      <point x="287" y="-176"/>
      <point x="270" y="-160"/>
      <point x="258" y="-137" type="curve" smooth="yes"/>
      <point x="254" y="-130"/>
      <point x="249" y="-128"/>
      <point x="240" y="-133" type="curve" smooth="yes"/>
      <point x="233" y="-137"/>
      <point x="233" y="-144"/>
      <point x="235" y="-150" type="curve" smooth="yes"/>
      <point x="246" y="-181"/>
      <point x="276" y="-204"/>
      <point x="314" y="-204" type="curve" smooth="yes"/>
      <point x="377" y="-204"/>
      <point x="402" y="-161"/>
    </contour>
  </outline>
</glyph>
<glyph name="Uhorn" format="2">
  <advance width="863"/>
  <unicode hex="01AF"/>
  <anchor x="431" y="0" name="bottom"/>
  <anchor x="588" y="13" name="ogonek"/>
  <anchor x="431" y="838" name="top"/>
  <anchor x="708" y="888" name="topright"/>
  <outline>
    <contour>
      <point x="841" y="1063" type="curve" smooth="yes"/>
      <point x="827" y="1082"/>
      <point x="792" y="1056"/>
      <point x="804" y="1038" type="curve" smooth="yes"/>
      <point x="856" y="964"/>
      <point x="836" y="893"/>
      <point x="708" y="888" type="curve"/>
      <point x="708" y="860" type="line"/>
      <point x="857" y="850"/>
      <point x="913" y="963"/>
    </contour>
    <component base="U"/>
  </outline>
</glyph>
<glyph name="jdotless" format="2">
  <advance width="268"/>
  <unicode hex="0237"/>
  <anchor x="130" y="500" name="top"/>
  <outline>
    <contour>
      <point x="39" y="-392" type="curve" smooth="yes"/>
      <point x="118" y="-392"/>
      <point x="149" y="-339"/>
      <point x="149" y="-260" type="curve" smooth="yes"/>
      <point x="149" y="500" type="line" smooth="yes"/>
      <point x="149" y="511"/>
      <point x="144" y="515"/>
      <point x="131" y="515" type="curve" smooth="yes"/>
      <point x="119" y="515"/>
      <point x="113" y="511"/>
      <point x="113" y="500" type="curve" smooth="yes"/>
      <point x="113" y="-257" type="line" smooth="yes"/>
      <point x="113" y="-317"/>
      <point x="100" y="-357"/>
      <point x="40" y="-357" type="curve" smooth="yes"/>
      <point x="5" y="-357"/>
      <point x="-16" y="-337"/>
      <point x="-31" y="-309" type="curve" smooth="yes"/>
      <point x="-36" y="-300"/>
      <point x="-42" y="-297"/>
      <point x="-54" y="-304" type="curve" smooth="yes"/>
      <point x="-62" y="-309"/>
      <point x="-62" y="-317"/>
      <point x="-60" y="-325" type="curve" smooth="yes"/>
      <point x="-46" y="-364"/>
      <point x="-9" y="-392"/>
    </contour>
  </outline>
</glyph>
<glyph name="bhook" format="2">
  <advance width="483"/>
  <unicode hex="0253"/>
  <anchor x="261" y="0" name="bottom"/>
  <anchor x="261" y="200" name="center"/>
  <anchor x="261" y="400" name="top"/>
  <outline>
    <contour>
      <point x="110" y="619" type="curve" smooth="yes"/>
      <point x="110" y="583" type="line"/>
      <point x="139" y="583" type="line"/>
      <point x="139" y="617" type="line" smooth="yes"/>
      <point x="139" y="665"/>
      <point x="148" y="697"/>
      <point x="196" y="697" type="curve" smooth="yes"/>
      <point x="224" y="697"/>
      <point x="241" y="681"/>
      <point x="253" y="658" type="curve" smooth="yes"/>
      <point x="257" y="651"/>
      <point x="262" y="649"/>
      <point x="271" y="654" type="curve" smooth="yes"/>
      <point x="278" y="658"/>
      <point x="278" y="665"/>
      <point x="276" y="671" type="curve" smooth="yes"/>
      <point x="265" y="702"/>
      <point x="235" y="725"/>
      <point x="197" y="725" type="curve" smooth="yes"/>
      <point x="134" y="725"/>
      <point x="110" y="682"/>
    </contour>
    <contour>
      <point x="139" y="591" type="line"/>
      <point x="110" y="591" type="line"/>
      <point x="110" y="154" type="line" smooth="yes"/>
      <point x="110" y="42"/>
      <point x="167" y="-15"/>
      <point x="243" y="-15" type="curve" smooth="yes"/>
      <point x="359" y="-15"/>
      <point x="415" y="91"/>
      <point x="415" y="204" type="curve" smooth="yes"/>
      <point x="415" y="291"/>
      <point x="383" y="366"/>
      <point x="356" y="400" type="curve" smooth="yes"/>
      <point x="346" y="413"/>
      <point x="343" y="415"/>
      <point x="335" y="415" type="curve" smooth="yes"/>
      <point x="328" y="415"/>
      <point x="319" y="408"/>
      <point x="326" y="397" type="curve" smooth="yes"/>
      <point x="371" y="332"/>
      <point x="386" y="275"/>
      <point x="386" y="198" type="curve" smooth="yes"/>
      <point x="386" y="87"/>
      <point x="322" y="12"/>
      <point x="248" y="12" type="curve" smooth="yes"/>
      <point x="177" y="12"/>
      <point x="139" y="65"/>
      <point x="139" y="160" type="curve" smooth="yes"/>
    </contour>
  </outline>
</glyph>
<glyph name="dhook" format="2">
  <advance width="513"/>
  <unicode hex="0257"/>
  <anchor x="232" y="0" name="bottom"/>
  <anchor x="360" y="558" name="center"/>
  <anchor x="232" y="400" name="top"/>
  <anchor x="393" y="700" name="topright"/>
  <outline>
    <contour>
      <point x="102" y="194" type="curve" smooth="yes"/>
      <point x="102" y="317"/>
      <point x="161" y="388"/>
      <point x="254" y="388" type="curve" smooth="yes"/>
      <point x="290" y="388"/>
      <point x="324" y="379"/>
      <point x="364" y="352" type="curve"/>
      <point x="364" y="150" type="line"/>
      <point x="340" y="46"/>
      <point x="283" y="14"/>
      <point x="231" y="14" type="curve" smooth="yes"/>
      <point x="146" y="14"/>
      <point x="102" y="90"/>
    </contour>
    <contour>
      <point x="393" y="601" type="line"/>
      <point x="364" y="601" type="line"/>
      <point x="364" y="382" type="line"/>
      <point x="327" y="405"/>
      <point x="294" y="415"/>
      <point x="257" y="415" type="curve" smooth="yes"/>
      <point x="135" y="415"/>
      <point x="70" y="321"/>
      <point x="70" y="191" type="curve" smooth="yes"/>
      <point x="70" y="61"/>
      <point x="136" y="-14"/>
      <point x="225" y="-14" type="curve" smooth="yes"/>
      <point x="268" y="-14"/>
      <point x="327" y="2"/>
      <point x="364" y="80" type="curve"/>
      <point x="364" y="74"/>
      <point x="364" y="67"/>
      <point x="364" y="61" type="curve" smooth="yes"/>
      <point x="364" y="11"/>
      <point x="390" y="-14"/>
      <point x="430" y="-14" type="curve" smooth="yes"/>
      <point x="457" y="-14"/>
      <point x="487" y="3"/>
      <point x="505" y="28" type="curve" smooth="yes"/>
      <point x="509" y="34"/>
      <point x="507" y="39"/>
      <point x="502" y="44" type="curve" smooth="yes"/>
      <point x="496" y="50"/>
      <point x="491" y="50"/>
      <point x="486" y="44" type="curve" smooth="yes"/>
      <point x="468" y="22"/>
      <point x="450" y="13"/>
      <point x="433" y="13" type="curve" smooth="yes"/>
      <point x="405" y="13"/>
      <point x="393" y="32"/>
      <point x="393" y="70" type="curve" smooth="yes"/>
    </contour>
    <contour>
      <point x="364" y="619" type="curve" smooth="yes"/>
      <point x="364" y="583" type="line"/>
      <point x="393" y="583" type="line"/>
      <point x="393" y="617" type="line" smooth="yes"/>
      <point x="393" y="665"/>
      <point x="399" y="697"/>
      <point x="441" y="697" type="curve" smooth="yes"/>
      <point x="466" y="697"/>
      <point x="483" y="681"/>
      <point x="495" y="658" type="curve" smooth="yes"/>
      <point x="499" y="651"/>
      <point x="504" y="649"/>
      <point x="513" y="654" type="curve" smooth="yes"/>
      <point x="520" y="658"/>
      <point x="520" y="665"/>
      <point x="518" y="671" type="curve" smooth="yes"/>
      <point x="507" y="702"/>
      <point x="477" y="725"/>
      <point x="442" y="725" type="curve" smooth="yes"/>
      <point x="382" y="725"/>
      <point x="364" y="682"/>
    </contour>
  </outline>
</glyph>
<glyph name="acutecomb" format="2">
	<unicode hex="0301"/>
	<outline>
		<contour>
			<point x="-36" y="504" type="curve" smooth="yes"/>
			<point x="-33" y="504"/>
			<point x="-30" y="505"/>
			<point x="-27" y="509" type="curve" smooth="yes"/>
			<point x="80" y="643" type="line" smooth="yes"/>
			<point x="82" y="646"/>
			<point x="83" y="648"/>
			<point x="83" y="651" type="curve" smooth="yes"/>
			<point x="83" y="659"/>
			<point x="70" y="669"/>
			<point x="62" y="669" type="curve" smooth="yes"/>
			<point x="58" y="669"/>
			<point x="55" y="667"/>
			<point x="52" y="663" type="curve" smooth="yes"/>
			<point x="-48" y="526" type="line" smooth="yes"/>
			<point x="-50" y="523"/>
			<point x="-51" y="520"/>
			<point x="-51" y="518" type="curve" smooth="yes"/>
			<point x="-51" y="512"/>
			<point x="-42" y="504"/>
		</contour>
	</outline>
	<anchor name="_top" x="0" y="400"/>
	<anchor name="top" x="0" y="654"/>
</glyph>
<glyph name="circumflexcomb" format="2">
  <unicode hex="0302"/>
  <anchor x="0" y="500" name="_top"/>
  <anchor x="0" y="818" name="top"/>
  <outline>
    <contour>
      <point x="-146" y="630" type="curve" smooth="yes"/>
      <point x="-141" y="630"/>
      <point x="-137" y="633"/>
      <point x="-134" y="636" type="curve" smooth="yes"/>
      <point x="0" y="784" type="line"/>
      <point x="134" y="636" type="line" smooth="yes"/>
      <point x="138" y="633"/>
      <point x="141" y="630"/>
      <point x="146" y="630" type="curve" smooth="yes"/>
      <point x="155" y="630"/>
      <point x="164" y="638"/>
      <point x="164" y="648" type="curve" smooth="yes"/>
      <point x="164" y="651"/>
      <point x="163" y="655"/>
      <point x="159" y="659" type="curve" smooth="yes"/>
      <point x="16" y="828" type="line" smooth="yes"/>
      <point x="10" y="835"/>
      <point x="5" y="836"/>
      <point x="0" y="836" type="curve" smooth="yes"/>
      <point x="-5" y="836"/>
      <point x="-10" y="835"/>
      <point x="-16" y="828" type="curve" smooth="yes"/>
      <point x="-159" y="659" type="line" smooth="yes"/>
      <point x="-162" y="655"/>
      <point x="-164" y="651"/>
      <point x="-164" y="648" type="curve" smooth="yes"/>
      <point x="-164" y="638"/>
      <point x="-155" y="630"/>
    </contour>
  </outline>
</glyph>
<glyph name="macroncomb" format="2">
	<unicode hex="0304"/>
	<outline>
		<contour>
			<point x="-107" y="573" type="curve" smooth="yes"/>
			<point x="107" y="573" type="line" smooth="yes"/>
			<point x="116" y="573"/>
			<point x="119" y="577"/>
			<point x="119" y="586" type="curve" smooth="yes"/>
			<point x="119" y="596"/>
			<point x="116" y="601"/>
			<point x="107" y="601" type="curve" smooth="yes"/>
			<point x="-107" y="601" type="line" smooth="yes"/>
			<point x="-116" y="601"/>
			<point x="-119" y="596"/>
			<point x="-119" y="586" type="curve" smooth="yes"/>
			<point x="-119" y="577"/>
			<point x="-116" y="573"/>
		</contour>
	</outline>
	<anchor name="_top" x="0" y="400"/>
	<anchor name="top" x="0" y="654"/>
</glyph>
<glyph name="dieresiscomb" format="2">
	<unicode hex="0308"/>
	<outline>
		<contour>
			<point x="-100" y="552" type="curve" smooth="yes"/>
			<point x="-80" y="552"/>
			<point x="-70" y="563"/>
			<point x="-70" y="586" type="curve" smooth="yes"/>
			<point x="-70" y="609"/>
			<point x="-80" y="620"/>
			<point x="-100" y="620" type="curve" smooth="yes"/>
			<point x="-120" y="620"/>
			<point x="-130" y="609"/>
			<point x="-130" y="586" type="curve" smooth="yes"/>
			<point x="-130" y="563"/>
			<point x="-120" y="552"/>
		</contour>
		<contour>
			<point x="100" y="552" type="curve" smooth="yes"/>
			<point x="120" y="552"/>
			<point x="130" y="563"/>
			<point x="130" y="586" type="curve" smooth="yes"/>
			<point x="130" y="609"/>
			<point x="120" y="620"/>
			<point x="100" y="620" type="curve" smooth="yes"/>
			<point x="80" y="620"/>
			<point x="70" y="609"/>
			<point x="70" y="586" type="curve" smooth="yes"/>
			<point x="70" y="563"/>
			<point x="80" y="552"/>
		</contour>
	</outline>
	<anchor name="_top" x="0" y="400"/>
	<anchor name="top" x="0" y="589"/>
</glyph>
<glyph name="hookabovecomb" format="2">
	<unicode hex="0309"/>
	<outline>
		<contour>
			<point x="6" y="670" type="curve" smooth="yes"/>
			<point x="-22" y="670"/>
			<point x="-44" y="663"/>
			<point x="-63" y="648" type="curve" smooth="yes"/>
			<point x="-69" y="643"/>
			<point x="-70" y="636"/>
			<point x="-66" y="629" type="curve" smooth="yes"/>
			<point x="-63" y="622"/>
			<point x="-56" y="620"/>
			<point x="-49" y="624" type="curve"/>
			<point x="-32" y="636"/>
			<point x="-15" y="642"/>
			<point x="3" y="642" type="curve" smooth="yes"/>
			<point x="27" y="642"/>
			<point x="43" y="630"/>
			<point x="43" y="612" type="curve" smooth="yes"/>
			<point x="43" y="596"/>
			<point x="35" y="585"/>
			<point x="13" y="570" type="curve" smooth="yes"/>
			<point x="-13" y="553"/>
			<point x="-19" y="534"/>
			<point x="-7" y="507" type="curve" smooth="yes"/>
			<point x="-1" y="494" type="line" smooth="yes"/>
			<point x="4" y="482"/>
			<point x="31" y="492"/>
			<point x="24" y="507" type="curve" smooth="yes"/>
			<point x="22" y="511" type="line" smooth="yes"/>
			<point x="12" y="531"/>
			<point x="14" y="536"/>
			<point x="38" y="553" type="curve" smooth="yes"/>
			<point x="66" y="573"/>
			<point x="75" y="588"/>
			<point x="75" y="612" type="curve" smooth="yes"/>
			<point x="75" y="645"/>
			<point x="45" y="670"/>
		</contour>
	</outline>
	<anchor name="_top" x="0" y="400"/>
	<anchor name="top" x="0" y="654"/>
</glyph>
<glyph name="ringcomb" format="2">
	<unicode hex="030A"/>
	<outline>
		<contour>
			<point x="0" y="489" type="curve" smooth="yes"/>
			<point x="57" y="489"/>
			<point x="97" y="528"/>
			<point x="97" y="585" type="curve" smooth="yes"/>
			<point x="97" y="641"/>
			<point x="57" y="680"/>
			<point x="0" y="680" type="curve" smooth="yes"/>
			<point x="-57" y="680"/>
			<point x="-97" y="641"/>
			<point x="-97" y="585" type="curve" smooth="yes"/>
			<point x="-97" y="528"/>
			<point x="-57" y="489"/>
		</contour>
		<contour>
			<point x="0" y="517" type="curve" smooth="yes"/>
			<point x="-39" y="517"/>
			<point x="-65" y="544"/>
			<point x="-65" y="585" type="curve" smooth="yes"/>
			<point x="-65" y="625"/>
			<point x="-39" y="652"/>
			<point x="0" y="652" type="curve" smooth="yes"/>
			<point x="39" y="652"/>
			<point x="65" y="625"/>
			<point x="65" y="585" type="curve" smooth="yes"/>
			<point x="65" y="544"/>
			<point x="39" y="517"/>
		</contour>
	</outline>
	<anchor name="_top" x="0" y="400"/>
	<anchor name="top" x="0" y="654"/>
</glyph>
<glyph name="horncomb" format="2">
	<unicode hex="031B"/>
	<outline>
		<contour>
			<point x="106" y="558" type="curve" smooth="yes"/>
			<point x="95" y="573"/>
			<point x="67" y="552"/>
			<point x="77" y="538" type="curve" smooth="yes"/>
			<point x="120" y="477"/>
			<point x="102" y="416"/>
			<point x="0" y="412" type="curve"/>
			<point x="0" y="391" type="line"/>
			<point x="119" y="383"/>
			<point x="165" y="476"/>
		</contour>
	</outline>
	<anchor name="_topright" x="0" y="412"/>
</glyph>
<glyph name="commaaccentcomb" format="2">
	<unicode hex="0326"/>
	<outline>
		<contour>
			<point x="-42" y="-218" type="curve" smooth="yes"/>
			<point x="-32" y="-222"/>
			<point x="-27" y="-217"/>
			<point x="-22" y="-209" type="curve" smooth="yes"/>
			<point x="2" y="-171"/>
			<point x="15" y="-126"/>
			<point x="15" y="-81" type="curve" smooth="yes"/>
			<point x="15" y="-72"/>
			<point x="10" y="-64"/>
			<point x="-2" y="-64" type="curve" smooth="yes"/>
			<point x="-14" y="-64"/>
			<point x="-17" y="-72"/>
			<point x="-17" y="-81" type="curve" smooth="yes"/>
			<point x="-17" y="-141"/>
			<point x="-25" y="-160"/>
			<point x="-45" y="-196" type="curve" smooth="yes"/>
			<point x="-52" y="-209"/>
			<point x="-52" y="-214"/>
		</contour>
	</outline>
	<anchor name="_bottom" x="0" y="0"/>
</glyph>
<glyph name="cedillacomb" format="2">
  <unicode hex="0327"/>
  <anchor x="0" y="0" name="_bottom"/>
  <anchor x="0" y="-210" name="bottom"/>
  <outline>
    <contour>
      <point x="-13" y="-212" type="curve" smooth="yes"/>
      <point x="36" y="-212"/>
      <point x="71" y="-182"/>
      <point x="71" y="-138" type="curve" smooth="yes"/>
      <point x="71" y="-84"/>
      <point x="24" y="-65"/>
      <point x="-29" y="-78" type="curve"/>
      <point x="-21" y="-87" type="line"/>
      <point x="15" y="0" type="line"/>
      <point x="-11" y="0" type="line"/>
      <point x="-42" y="-74" type="line" smooth="yes"/>
      <point x="-46" y="-84"/>
      <point x="-48" y="-89"/>
      <point x="-43" y="-96" type="curve" smooth="yes"/>
      <point x="-40" y="-100"/>
      <point x="-35" y="-102"/>
      <point x="-28" y="-101" type="curve" smooth="yes"/>
      <point x="15" y="-95"/>
      <point x="38" y="-109"/>
      <point x="38" y="-138" type="curve" smooth="yes"/>
      <point x="38" y="-166"/>
      <point x="19" y="-183"/>
      <point x="-13" y="-183" type="curve" smooth="yes"/>
      <point x="-34" y="-183"/>
      <point x="-53" y="-177"/>
      <point x="-71" y="-169" type="curve" smooth="yes"/>
      <point x="-79" y="-166"/>
      <point x="-84" y="-167"/>
      <point x="-88" y="-174" type="curve" smooth="yes"/>
      <point x="-92" y="-181"/>
      <point x="-92" y="-188"/>
      <point x="-84" y="-193" type="curve" smooth="yes"/>
      <point x="-60" y="-208"/>
      <point x="-31" y="-212"/>
    </contour>
  </outline>
</glyph>
<glyph name="strokeshortcomb" format="2">
	<unicode hex="0335"/>
	<outline>
		<contour>
			<point x="-113" y="260" type="curve" smooth="yes"/>
			<point x="113" y="260" type="line" smooth="yes"/>
			<point x="122" y="260"/>
			<point x="125" y="264"/>
			<point x="125" y="273" type="curve" smooth="yes"/>
			<point x="125" y="283"/>
			<point x="122" y="288"/>
			<point x="113" y="288" type="curve" smooth="yes"/>
			<point x="-113" y="288" type="line" smooth="yes"/>
			<point x="-122" y="288"/>
			<point x="-125" y="283"/>
			<point x="-125" y="273" type="curve" smooth="yes"/>
			<point x="-125" y="264"/>
			<point x="-122" y="260"/>
		</contour>
	</outline>
	<anchor name="_center" x="0" y="274"/>
</glyph>
<glyph name="strokelongcomb" format="2">
	<unicode hex="0336"/>
	<outline>
		<contour>
			<point x="-313" y="260" type="curve" smooth="yes"/>
			<point x="313" y="260" type="line" smooth="yes"/>
			<point x="322" y="260"/>
			<point x="325" y="264"/>
			<point x="325" y="273" type="curve" smooth="yes"/>
			<point x="325" y="283"/>
			<point x="322" y="288"/>
			<point x="313" y="288" type="curve" smooth="yes"/>
			<point x="-313" y="288" type="line" smooth="yes"/>
			<point x="-322" y="288"/>
			<point x="-325" y="283"/>
			<point x="-325" y="273" type="curve" smooth="yes"/>
			<point x="-325" y="264"/>
			<point x="-322" y="260"/>
		</contour>
	</outline>
	<anchor name="_center" x="0" y="274"/>
</glyph>
<glyph name="Germandbls" format="2">
  <advance width="710"/>
  <unicode hex="1E9E"/>
  <outline>
    <contour>
      <point x="409" y="-15" type="curve" smooth="yes"/>
      <point x="521" y="-15"/>
      <point x="621" y="61"/>
      <point x="621" y="196" type="curve" smooth="yes"/>
      <point x="621" y="417"/>
      <point x="354" y="394"/>
      <point x="354" y="555" type="curve" smooth="yes"/>
      <point x="354" y="624"/>
      <point x="395" y="683"/>
      <point x="501" y="683" type="curve" smooth="yes"/>
      <point x="512" y="683"/>
      <point x="516" y="687"/>
      <point x="516" y="697" type="curve" smooth="yes"/>
      <point x="516" y="707"/>
      <point x="512" y="711"/>
      <point x="501" y="711" type="curve" smooth="yes"/>
      <point x="480" y="711" type="line" smooth="yes"/>
      <point x="185" y="711"/>
      <point x="116" y="591"/>
      <point x="116" y="421" type="curve" smooth="yes"/>
      <point x="116" y="2" type="line" smooth="yes"/>
      <point x="116" y="-7"/>
      <point x="120" y="-10"/>
      <point x="131" y="-10" type="curve" smooth="yes"/>
      <point x="142" y="-10"/>
      <point x="146" y="-7"/>
      <point x="146" y="2" type="curve" smooth="yes"/>
      <point x="146" y="423" type="line" smooth="yes"/>
      <point x="146" y="573"/>
      <point x="208" y="686"/>
      <point x="481" y="686" type="curve"/>
      <point x="481" y="701" type="line"/>
      <point x="391" y="701"/>
      <point x="322" y="640"/>
      <point x="322" y="555" type="curve" smooth="yes"/>
      <point x="322" y="374"/>
      <point x="589" y="395"/>
      <point x="589" y="196" type="curve" smooth="yes"/>
      <point x="589" y="75"/>
      <point x="503" y="15"/>
      <point x="409" y="15" type="curve" smooth="yes"/>
      <point x="363" y="15"/>
      <point x="325" y="23"/>
      <point x="285" y="41" type="curve" smooth="yes"/>
      <point x="272" y="47"/>
      <point x="267" y="43"/>
      <point x="263" y="34" type="curve" smooth="yes"/>
      <point x="258" y="24"/>
      <point x="261" y="18"/>
      <point x="273" y="13" type="curve" smooth="yes"/>
      <point x="320" y="-7"/>
      <point x="356" y="-15"/>
    </contour>
  </outline>
</glyph>
<glyph name="endash" format="2">
	<unicode hex="2013"/>
	<advance width="500"/>
	<outline>
		<contour>
			<point x="72" y="260" type="curve" smooth="yes"/>
			<point x="428" y="260" type="line" smooth="yes"/>
			<point x="437" y="260"/>
			<point x="440" y="264"/>
			<point x="440" y="273" type="curve" smooth="yes"/>
			<point x="440" y="283"/>
			<point x="437" y="288"/>
			<point x="428" y="288" type="curve" smooth="yes"/>
			<point x="72" y="288" type="line" smooth="yes"/>
			<point x="63" y="288"/>
			<point x="60" y="283"/>
			<point x="60" y="273" type="curve" smooth="yes"/>
			<point x="60" y="264"/>
			<point x="63" y="260"/>
		</contour>
	</outline>
</glyph>
<glyph name="emdash" format="2">
	<unicode hex="2014"/>
	<advance width="1000"/>
	<outline>
		<contour>
			<point x="72" y="260" type="curve" smooth="yes"/>
			<point x="928" y="260" type="line" smooth="yes"/>
			<point x="937" y="260"/>
			<point x="940" y="264"/>
			<point x="940" y="273" type="curve" smooth="yes"/>
			<point x="940" y="283"/>
			<point x="937" y="288"/>
			<point x="928" y="288" type="curve" smooth="yes"/>
			<point x="72" y="288" type="line" smooth="yes"/>
			<point x="63" y="288"/>
			<point x="60" y="283"/>
			<point x="60" y="273" type="curve" smooth="yes"/>
			<point x="60" y="264"/>
			<point x="63" y="260"/>
		</contour>
	</outline>
</glyph>
<glyph name="quoteleft" format="2">
  <advance width="181"/>
  <unicode hex="2018"/>
  <outline>
    <contour>
      <point x="93" y="660" type="curve" smooth="yes"/>
      <point x="114" y="660"/>
      <point x="121" y="671"/>
      <point x="121" y="685" type="curve" smooth="yes"/>
      <point x="121" y="785"/>
      <point x="126" y="809"/>
      <point x="155" y="860" type="curve" smooth="yes"/>
      <point x="159" y="868"/>
      <point x="163" y="873"/>
      <point x="163" y="878" type="curve" smooth="yes"/>
      <point x="163" y="886"/>
      <point x="146" y="894"/>
      <point x="136" y="894" type="curve" smooth="yes"/>
      <point x="129" y="894"/>
      <point x="123" y="888"/>
      <point x="118" y="880" type="curve" smooth="yes"/>
      <point x="79" y="828"/>
      <point x="63" y="766"/>
      <point x="63" y="688" type="curve" smooth="yes"/>
      <point x="63" y="674"/>
      <point x="70" y="660"/>
    </contour>
  </outline>
</glyph>
<glyph name="minute" format="2">
  <advance width="161"/>
  <unicode hex="2032"/>
  <outline>
    <contour>
      <point x="71" y="660" type="curve" smooth="yes"/>
      <point x="84" y="660"/>
      <point x="88" y="669"/>
      <point x="90" y="675" type="curve" smooth="yes"/>
      <point x="143" y="867" type="line" smooth="yes"/>
      <point x="148" y="886"/>
      <point x="134" y="894"/>
      <point x="112" y="894" type="curve" smooth="yes"/>
      <point x="91" y="894"/>
      <point x="84" y="883"/>
      <point x="82" y="869" type="curve" smooth="yes"/>
      <point x="53" y="680" type="line" smooth="yes"/>
      <point x="51" y="668"/>
      <point x="56" y="660"/>
    </contour>
  </outline>
</glyph>
<glyph name="euro" format="2">
  <advance width="602"/>
  <unicode hex="20AC"/>
  <outline>
    <contour>
      <point x="362" y="-15" type="curve" smooth="yes"/>
      <point x="427" y="-15"/>
      <point x="490" y="4"/>
      <point x="552" y="54" type="curve" smooth="yes"/>
      <point x="562" y="62"/>
      <point x="565" y="68"/>
      <point x="558" y="77" type="curve" smooth="yes"/>
      <point x="549" y="88"/>
      <point x="543" y="85"/>
      <point x="533" y="77" type="curve" smooth="yes"/>
      <point x="484" y="37"/>
      <point x="423" y="15"/>
      <point x="362" y="15" type="curve" smooth="yes"/>
      <point x="223" y="15"/>
      <point x="156" y="147"/>
      <point x="156" y="349" type="curve" smooth="yes"/>
      <point x="156" y="540"/>
      <point x="246" y="682"/>
      <point x="377" y="682" type="curve" smooth="yes"/>
      <point x="429" y="682"/>
      <point x="474" y="666"/>
      <point x="515" y="631" type="curve" smooth="yes"/>
      <point x="526" y="621"/>
      <point x="531" y="622"/>
      <point x="540" y="631" type="curve" smooth="yes"/>
      <point x="547" y="638"/>
      <point x="547" y="644"/>
      <point x="537" y="653" type="curve" smooth="yes"/>
      <point x="490" y="694"/>
      <point x="438" y="712"/>
      <point x="377" y="712" type="curve" smooth="yes"/>
      <point x="227" y="712"/>
      <point x="123" y="557"/>
      <point x="123" y="349" type="curve" smooth="yes"/>
      <point x="123" y="129"/>
      <point x="204" y="-15"/>
    </contour>
    <contour>
      <point x="45" y="392" type="curve" smooth="yes"/>
      <point x="456" y="392" type="line" smooth="yes"/>
      <point x="461" y="392"/>
      <point x="465" y="397"/>
      <point x="465" y="407" type="curve" smooth="yes"/>
      <point x="465" y="417"/>
      <point x="461" y="420"/>
      <point x="456" y="420" type="curve" smooth="yes"/>
      <point x="45" y="420" type="line" smooth="yes"/>
      <point x="40" y="420"/>
      <point x="36" y="416"/>
      <point x="36" y="406" type="curve" smooth="yes"/>
      <point x="36" y="396"/>
      <point x="40" y="392"/>
    </contour>
    <contour>
      <point x="45" y="288" type="curve" smooth="yes"/>
      <point x="456" y="288" type="line" smooth="yes"/>
      <point x="461" y="288"/>
      <point x="465" y="293"/>
      <point x="465" y="303" type="curve" smooth="yes"/>
      <point x="465" y="313"/>
      <point x="461" y="316"/>
      <point x="456" y="316" type="curve" smooth="yes"/>
      <point x="45" y="316" type="line" smooth="yes"/>
      <point x="40" y="316"/>
      <point x="36" y="312"/>
      <point x="36" y="302" type="curve" smooth="yes"/>
      <point x="36" y="292"/>
      <point x="40" y="288"/>
    </contour>
  </outline>
</glyph>
<glyph name="integral" format="2">
  <advance width="506"/>
  <unicode hex="222B"/>
  <outline>
    <contour>
      <point x="58" y="-75" type="curve" smooth="yes"/>
      <point x="165" y="-75"/>
      <point x="199" y="-12"/>
      <point x="215" y="79" type="curve" smooth="yes"/>
      <point x="336" y="740" type="line" smooth="yes"/>
      <point x="351" y="823"/>
      <point x="374" y="859"/>
      <point x="458" y="859" type="curve" smooth="yes"/>
      <point x="466" y="859"/>
      <point x="471" y="868"/>
      <point x="471" y="876" type="curve" smooth="yes"/>
      <point x="471" y="885"/>
      <point x="466" y="894"/>
      <point x="458" y="894" type="curve" smooth="yes"/>
      <point x="350" y="894"/>
      <point x="316" y="831"/>
      <point x="300" y="740" type="curve" smooth="yes"/>
      <point x="179" y="79" type="line" smooth="yes"/>
      <point x="164" y="-4"/>
      <point x="141" y="-40"/>
      <point x="58" y="-40" type="curve" smooth="yes"/>
      <point x="49" y="-40"/>
      <point x="44" y="-49"/>
      <point x="44" y="-57" type="curve" smooth="yes"/>
      <point x="44" y="-66"/>
      <point x="49" y="-75"/>
    </contour>
  </outline>
</glyph>
<glyph name="A.cur" format="2">
  <advance width="979"/>
  <guideline y="-11"/>
  <guideline x="606"/>
  <anchor x="390" y="0" name="bottom"/>
  <anchor x="915" y="13" name="ogonek"/>
  <anchor x="459" y="838" name="top"/>
  <outline>
    <contour>
      <point x="390" y="-17" type="curve" smooth="yes"/>
      <point x="541" y="-17"/>
      <point x="660" y="111"/>
      <point x="713" y="326" type="curve"/>
      <point x="713" y="139" type="line" smooth="yes"/>
      <point x="713" y="31"/>
      <point x="749" y="-17"/>
      <point x="828" y="-17" type="curve" smooth="yes"/>
      <point x="883" y="-17"/>
      <point x="923" y="8"/>
      <point x="958" y="65" type="curve" smooth="yes"/>
      <point x="963" y="73"/>
      <point x="960" y="81"/>
      <point x="951" y="86" type="curve"/>
      <point x="943" y="94"/>
      <point x="933" y="93"/>
      <point x="928" y="85" type="curve" smooth="yes"/>
      <point x="893" y="34"/>
      <point x="870" y="18"/>
      <point x="831" y="18" type="curve" smooth="yes"/>
      <point x="775" y="18"/>
      <point x="749" y="56"/>
      <point x="749" y="139" type="curve" smooth="yes"/>
      <point x="750" y="478" type="line" smooth="yes"/>
      <point x="750" y="489"/>
      <point x="745" y="493"/>
      <point x="731" y="493" type="curve" smooth="yes"/>
      <point x="718" y="493"/>
      <point x="713" y="489"/>
      <point x="713" y="476" type="curve"/>
      <point x="676" y="194"/>
      <point x="555" y="20"/>
      <point x="394" y="20" type="curve" smooth="yes"/>
      <point x="223" y="20"/>
      <point x="123" y="168"/>
      <point x="123" y="420" type="curve" smooth="yes"/>
      <point x="123" y="673"/>
      <point x="264" y="853"/>
      <point x="461" y="853" type="curve" smooth="yes"/>
      <point x="581" y="853"/>
      <point x="670" y="788"/>
      <point x="721" y="665" type="curve" smooth="yes"/>
      <point x="726" y="654"/>
      <point x="735" y="651"/>
      <point x="748" y="659" type="curve" smooth="yes"/>
      <point x="759" y="665"/>
      <point x="760" y="673"/>
      <point x="754" y="688" type="curve" smooth="yes"/>
      <point x="705" y="818"/>
      <point x="600" y="890"/>
      <point x="461" y="890" type="curve" smooth="yes"/>
      <point x="240" y="890"/>
      <point x="81" y="694"/>
      <point x="81" y="420" type="curve" smooth="yes"/>
      <point x="81" y="146"/>
      <point x="198" y="-17"/>
    </contour>
  </outline>
</glyph>
<glyph name="A.cur.ini" format="2">
  <advance width="929"/>
  <guideline y="-11"/>
  <guideline x="606"/>
  <anchor x="390" y="0" name="bottom"/>
  <anchor x="929" y="0" name="cnct"/>
  <anchor x="915" y="13" name="ogonek"/>
  <anchor x="459" y="838" name="top"/>
  <outline>
    <contour>
      <point x="390" y="-17" type="curve" smooth="yes"/>
      <point x="541" y="-17"/>
      <point x="660" y="109"/>
      <point x="713" y="326" type="curve"/>
      <point x="713" y="161" type="line" smooth="yes"/>
      <point x="713" y="41"/>
      <point x="763" y="-17"/>
      <point x="873" y="-17" type="curve" smooth="yes"/>
      <point x="894" y="-17"/>
      <point x="894" y="18"/>
      <point x="873" y="18" type="curve" smooth="yes"/>
      <point x="790" y="18"/>
      <point x="749" y="64"/>
      <point x="749" y="161" type="curve" smooth="yes"/>
      <point x="750" y="478" type="line" smooth="yes"/>
      <point x="750" y="489"/>
      <point x="745" y="493"/>
      <point x="731" y="493" type="curve" smooth="yes"/>
      <point x="718" y="493"/>
      <point x="713" y="489"/>
      <point x="713" y="476" type="curve"/>
      <point x="676" y="191"/>
      <point x="555" y="20"/>
      <point x="394" y="20" type="curve" smooth="yes"/>
      <point x="223" y="20"/>
      <point x="123" y="168"/>
      <point x="123" y="420" type="curve" smooth="yes"/>
      <point x="123" y="673"/>
      <point x="265" y="853"/>
      <point x="461" y="853" type="curve" smooth="yes"/>
      <point x="581" y="853"/>
      <point x="670" y="788"/>
      <point x="721" y="665" type="curve" smooth="yes"/>
      <point x="726" y="654"/>
      <point x="735" y="651"/>
      <point x="748" y="659" type="curve" smooth="yes"/>
      <point x="759" y="665"/>
      <point x="760" y="673"/>
      <point x="754" y="688" type="curve" smooth="yes"/>
      <point x="705" y="818"/>
      <point x="600" y="890"/>
      <point x="461" y="890" type="curve" smooth="yes"/>
      <point x="241" y="890"/>
      <point x="81" y="694"/>
      <point x="81" y="420" type="curve" smooth="yes"/>
      <point x="81" y="146"/>
      <point x="198" y="-17"/>
    </contour>
  </outline>
</glyph>
<glyph name="A.cur_locl" format="2">
	<advance width="783"/>
	<outline>
		<contour>
			<point x="312" y="-11" type="curve" smooth="yes"/>
			<point x="458" y="-11"/>
			<point x="565" y="137"/>
			<point x="589" y="373" type="curve"/>
			<point x="570" y="381" type="line"/>
			<point x="541" y="157"/>
			<point x="444" y="19"/>
			<point x="315" y="19" type="curve" smooth="yes"/>
			<point x="178" y="19"/>
			<point x="98" y="136"/>
			<point x="98" y="336" type="curve" smooth="yes"/>
			<point x="98" y="538"/>
			<point x="211" y="682"/>
			<point x="369" y="682" type="curve" smooth="yes"/>
			<point x="458" y="682"/>
			<point x="536" y="627"/>
			<point x="575" y="537" type="curve"/>
			<point x="575" y="596" type="line"/>
			<point x="530" y="668"/>
			<point x="452" y="712"/>
			<point x="369" y="712" type="curve" smooth="yes"/>
			<point x="192" y="712"/>
			<point x="65" y="555"/>
			<point x="65" y="336" type="curve" smooth="yes"/>
			<point x="65" y="119"/>
			<point x="158" y="-11"/>
		</contour>
		<contour>
			<point x="662" y="-14" type="curve" smooth="yes"/>
			<point x="706" y="-14"/>
			<point x="738" y="6"/>
			<point x="766" y="52" type="curve" smooth="yes"/>
			<point x="770" y="58"/>
			<point x="768" y="65"/>
			<point x="761" y="69" type="curve"/>
			<point x="754" y="75"/>
			<point x="746" y="74"/>
			<point x="742" y="68" type="curve" smooth="yes"/>
			<point x="714" y="27"/>
			<point x="696" y="14"/>
			<point x="665" y="14" type="curve" smooth="yes"/>
			<point x="620" y="14"/>
			<point x="599" y="45"/>
			<point x="599" y="111" type="curve" smooth="yes"/>
			<point x="600" y="700" type="line" smooth="yes"/>
			<point x="600" y="709"/>
			<point x="596" y="712"/>
			<point x="585" y="712" type="curve" smooth="yes"/>
			<point x="574" y="712"/>
			<point x="570" y="709"/>
			<point x="570" y="699" type="curve" smooth="yes"/>
			<point x="570" y="111" type="line" smooth="yes"/>
			<point x="570" y="25"/>
			<point x="599" y="-14"/>
		</contour>
	</outline>
	<anchor name="bottom" x="312" y="0"/>
	<anchor name="ogonek" x="732" y="10"/>
	<anchor name="top" x="367" y="670"/>
	<guideline y="-11"/>
	<guideline x="606"/>
</glyph>
<glyph name="A.cur_locl.ini" format="2">
	<advance width="743"/>
	<outline>
		<contour>
			<point x="312" y="-11" type="curve" smooth="yes"/>
			<point x="458" y="-11"/>
			<point x="565" y="137"/>
			<point x="589" y="373" type="curve"/>
			<point x="570" y="381" type="line"/>
			<point x="541" y="157"/>
			<point x="444" y="19"/>
			<point x="315" y="19" type="curve" smooth="yes"/>
			<point x="178" y="19"/>
			<point x="98" y="136"/>
			<point x="98" y="336" type="curve" smooth="yes"/>
			<point x="98" y="538"/>
			<point x="211" y="682"/>
			<point x="369" y="682" type="curve" smooth="yes"/>
			<point x="458" y="682"/>
			<point x="536" y="627"/>
			<point x="575" y="537" type="curve"/>
			<point x="575" y="596" type="line"/>
			<point x="530" y="668"/>
			<point x="452" y="712"/>
			<point x="369" y="712" type="curve" smooth="yes"/>
			<point x="192" y="712"/>
			<point x="65" y="555"/>
			<point x="65" y="336" type="curve" smooth="yes"/>
			<point x="65" y="119"/>
			<point x="158" y="-11"/>
		</contour>
		<contour>
			<point x="698" y="-14" type="curve" smooth="yes"/>
			<point x="715" y="-14"/>
			<point x="715" y="14"/>
			<point x="698" y="14" type="curve" smooth="yes"/>
			<point x="632" y="14"/>
			<point x="599" y="51"/>
			<point x="599" y="129" type="curve" smooth="yes"/>
			<point x="600" y="700" type="line" smooth="yes"/>
			<point x="600" y="709"/>
			<point x="596" y="712"/>
			<point x="585" y="712" type="curve" smooth="yes"/>
			<point x="574" y="712"/>
			<point x="570" y="709"/>
			<point x="570" y="699" type="curve" smooth="yes"/>
			<point x="570" y="129" type="line" smooth="yes"/>
			<point x="570" y="33"/>
			<point x="610" y="-14"/>
		</contour>
	</outline>
	<anchor name="bottom" x="312" y="0"/>
	<anchor name="cnct" x="743" y="0"/>
	<anchor name="ogonek" x="732" y="10"/>
	<anchor name="top" x="367" y="670"/>
</glyph>
<glyph name="A.dec" format="2">
  <advance width="750"/>
  <anchor x="414" y="0" name="bottom"/>
  <anchor x="671" y="-2" name="ogonek"/>
  <anchor x="443" y="670" name="top"/>
  <outline>
    <contour>
      <point x="109" y="-14" type="curve" smooth="yes"/>
      <point x="237" y="-14"/>
      <point x="341" y="117"/>
      <point x="453" y="683" type="curve"/>
      <point x="440" y="682" type="line"/>
      <point x="484" y="461"/>
      <point x="547" y="238"/>
      <point x="637" y="-3" type="curve" smooth="yes"/>
      <point x="642" y="-16"/>
      <point x="647" y="-17"/>
      <point x="657" y="-13" type="curve" smooth="yes"/>
      <point x="667" y="-9"/>
      <point x="670" y="-5"/>
      <point x="666" y="7" type="curve" smooth="yes"/>
      <point x="577" y="249"/>
      <point x="513" y="470"/>
      <point x="467" y="694" type="curve" smooth="yes"/>
      <point x="465" y="706"/>
      <point x="459" y="712"/>
      <point x="447" y="712" type="curve" smooth="yes"/>
      <point x="435" y="712"/>
      <point x="428" y="705"/>
      <point x="426" y="694" type="curve" smooth="yes"/>
      <point x="308" y="127"/>
      <point x="218" y="16"/>
      <point x="105" y="16" type="curve" smooth="yes"/>
      <point x="82" y="16"/>
      <point x="63" y="20"/>
      <point x="46" y="27" type="curve" smooth="yes"/>
      <point x="40" y="30"/>
      <point x="33" y="27"/>
      <point x="29" y="17" type="curve" smooth="yes"/>
      <point x="25" y="7"/>
      <point x="31" y="1"/>
      <point x="37" y="-2" type="curve" smooth="yes"/>
      <point x="53" y="-9"/>
      <point x="79" y="-14"/>
    </contour>
    <contour>
      <point x="636" y="5" type="curve"/>
      <point x="657" y="15" type="line"/>
      <point x="547" y="282"/>
      <point x="429" y="321"/>
      <point x="316" y="321" type="curve" smooth="yes"/>
      <point x="242" y="321"/>
      <point x="181" y="281"/>
      <point x="181" y="220" type="curve" smooth="yes"/>
      <point x="181" y="149"/>
      <point x="245" y="105"/>
      <point x="368" y="105" type="curve" smooth="yes"/>
      <point x="517" y="105"/>
      <point x="639" y="165"/>
      <point x="707" y="283" type="curve" smooth="yes"/>
      <point x="709" y="286"/>
      <point x="706" y="293"/>
      <point x="698" y="298" type="curve" smooth="yes"/>
      <point x="690" y="302"/>
      <point x="685" y="301"/>
      <point x="683" y="297" type="curve" smooth="yes"/>
      <point x="617" y="183"/>
      <point x="501" y="133"/>
      <point x="368" y="133" type="curve" smooth="yes"/>
      <point x="274" y="133"/>
      <point x="214" y="162"/>
      <point x="214" y="220" type="curve" smooth="yes"/>
      <point x="214" y="269"/>
      <point x="263" y="293"/>
      <point x="317" y="293" type="curve" smooth="yes"/>
      <point x="431" y="293"/>
      <point x="524" y="254"/>
    </contour>
  </outline>
</glyph>
<glyph name="A.dec2.ini" format="2">
	<advance width="743"/>
	<outline>
		<contour>
			<point x="693" y="-14" type="curve" smooth="yes"/>
			<point x="709" y="-14"/>
			<point x="711" y="14"/>
			<point x="695" y="14" type="curve" smooth="yes"/>
			<point x="636" y="14"/>
			<point x="604" y="55"/>
			<point x="588" y="130" type="curve" smooth="yes"/>
			<point x="550" y="307"/>
			<point x="524" y="486"/>
			<point x="504" y="694" type="curve"/>
			<point x="474" y="686" type="line"/>
			<point x="493" y="480"/>
			<point x="518" y="300"/>
			<point x="557" y="122" type="curve" smooth="yes"/>
			<point x="576" y="36"/>
			<point x="617" y="-14"/>
		</contour>
		<contour>
			<point x="185" y="-14" type="curve" smooth="yes"/>
			<point x="437" y="-14"/>
			<point x="294" y="591"/>
			<point x="504" y="688" type="curve" smooth="yes"/>
			<point x="510" y="691"/>
			<point x="511" y="697"/>
			<point x="507" y="705" type="curve" smooth="yes"/>
			<point x="503" y="713"/>
			<point x="499" y="716"/>
			<point x="494" y="714" type="curve" smooth="yes"/>
			<point x="258" y="610"/>
			<point x="399" y="16"/>
			<point x="184" y="16" type="curve" smooth="yes"/>
			<point x="135" y="16"/>
			<point x="87" y="58"/>
			<point x="87" y="131" type="curve" smooth="yes"/>
			<point x="87" y="280"/>
			<point x="204" y="312"/>
			<point x="410" y="312" type="curve" smooth="yes"/>
			<point x="593" y="312" type="line" smooth="yes"/>
			<point x="599" y="312"/>
			<point x="602" y="318"/>
			<point x="602" y="327" type="curve" smooth="yes"/>
			<point x="602" y="336"/>
			<point x="599" y="340"/>
			<point x="593" y="340" type="curve" smooth="yes"/>
			<point x="407" y="340" type="line" smooth="yes"/>
			<point x="174" y="340"/>
			<point x="54" y="295"/>
			<point x="54" y="131" type="curve" smooth="yes"/>
			<point x="54" y="43"/>
			<point x="112" y="-14"/>
		</contour>
	</outline>
	<anchor name="bottom" x="430" y="0"/>
	<anchor name="cnct" x="743" y="0"/>
	<anchor name="ogonek" x="714" y="-2"/>
	<anchor name="top" x="450" y="670"/>
</glyph>
<glyph name="A.dec_locl" format="2">
  <advance width="850"/>
  <anchor x="430" y="0" name="bottom"/>
  <anchor x="757" y="0" name="ogonek"/>
  <anchor x="450" y="670" name="top"/>
  <outline>
    <contour>
      <point x="109" y="-14" type="curve" smooth="yes"/>
      <point x="237" y="-14"/>
      <point x="341" y="117"/>
      <point x="453" y="683" type="curve"/>
      <point x="440" y="682" type="line"/>
      <point x="455" y="613"/>
      <point x="494" y="381"/>
      <point x="554" y="204" type="curve" smooth="yes"/>
      <point x="612" y="32"/>
      <point x="648" y="-14"/>
      <point x="707" y="-14" type="curve" smooth="yes"/>
      <point x="776" y="-14"/>
      <point x="817" y="52"/>
      <point x="828" y="182" type="curve" smooth="yes"/>
      <point x="829" y="188"/>
      <point x="823" y="194"/>
      <point x="815" y="194" type="curve" smooth="yes"/>
      <point x="804" y="194"/>
      <point x="800" y="191"/>
      <point x="799" y="183" type="curve" smooth="yes"/>
      <point x="789" y="72"/>
      <point x="759" y="15"/>
      <point x="709" y="15" type="curve" smooth="yes"/>
      <point x="664" y="15"/>
      <point x="635" y="57"/>
      <point x="583" y="213" type="curve" smooth="yes"/>
      <point x="524" y="389"/>
      <point x="479" y="632"/>
      <point x="467" y="694" type="curve" smooth="yes"/>
      <point x="465" y="706"/>
      <point x="459" y="712"/>
      <point x="447" y="712" type="curve" smooth="yes"/>
      <point x="435" y="712"/>
      <point x="428" y="705"/>
      <point x="426" y="694" type="curve" smooth="yes"/>
      <point x="308" y="127"/>
      <point x="218" y="16"/>
      <point x="105" y="16" type="curve" smooth="yes"/>
      <point x="82" y="16"/>
      <point x="63" y="20"/>
      <point x="46" y="27" type="curve" smooth="yes"/>
      <point x="40" y="30"/>
      <point x="33" y="27"/>
      <point x="29" y="17" type="curve" smooth="yes"/>
      <point x="25" y="7"/>
      <point x="31" y="1"/>
      <point x="37" y="-2" type="curve" smooth="yes"/>
      <point x="53" y="-9"/>
      <point x="79" y="-14"/>
    </contour>
    <contour>
      <point x="327" y="242" type="line"/>
      <point x="554" y="242" type="line"/>
      <point x="554" y="268" type="line"/>
      <point x="327" y="268" type="line"/>
    </contour>
  </outline>
</glyph>
<glyph name="A.dec_locl.ini" format="2">
  <advance width="975"/>
  <anchor x="538" y="0" name="bottom"/>
  <anchor x="975" y="0" name="cnct"/>
  <anchor x="963" y="0" name="ogonek"/>
  <anchor x="563" y="838" name="top"/>
  <outline>
    <contour>
      <point x="136" y="-17" type="curve" smooth="yes"/>
      <point x="296" y="-17"/>
      <point x="426" y="146"/>
      <point x="566" y="854" type="curve"/>
      <point x="550" y="853" type="line"/>
      <point x="569" y="766"/>
      <point x="618" y="476"/>
      <point x="723" y="165" type="curve" smooth="yes"/>
      <point x="763" y="44"/>
      <point x="828" y="-17"/>
      <point x="915" y="-17" type="curve" smooth="yes"/>
      <point x="940" y="-17"/>
      <point x="940" y="18"/>
      <point x="915" y="18" type="curve" smooth="yes"/>
      <point x="848" y="18"/>
      <point x="796" y="65"/>
      <point x="759" y="176" type="curve" smooth="yes"/>
      <point x="655" y="486"/>
      <point x="599" y="790"/>
      <point x="584" y="868" type="curve" smooth="yes"/>
      <point x="581" y="883"/>
      <point x="574" y="890"/>
      <point x="559" y="890" type="curve" smooth="yes"/>
      <point x="544" y="890"/>
      <point x="535" y="881"/>
      <point x="533" y="868" type="curve" smooth="yes"/>
      <point x="385" y="159"/>
      <point x="273" y="20"/>
      <point x="131" y="20" type="curve" smooth="yes"/>
      <point x="103" y="20"/>
      <point x="79" y="25"/>
      <point x="58" y="34" type="curve" smooth="yes"/>
      <point x="50" y="38"/>
      <point x="41" y="34"/>
      <point x="36" y="21" type="curve" smooth="yes"/>
      <point x="31" y="9"/>
      <point x="39" y="1"/>
      <point x="46" y="-2" type="curve" smooth="yes"/>
      <point x="66" y="-11"/>
      <point x="99" y="-17"/>
    </contour>
    <contour>
      <point x="411" y="303" type="line"/>
      <point x="694" y="303" type="line"/>
      <point x="694" y="335" type="line"/>
      <point x="411" y="335" type="line"/>
    </contour>
  </outline>
</glyph>
<glyph name="AE.cur" format="2">
  <advance width="1031"/>
  <anchor x="610" y="670" name="top"/>
  <outline>
    <contour>
      <point x="87" y="-14" type="curve" smooth="yes"/>
      <point x="187" y="-14"/>
      <point x="257" y="74"/>
      <point x="500" y="686" type="curve"/>
      <point x="487" y="684" type="line"/>
      <point x="495" y="519"/>
      <point x="521" y="318"/>
      <point x="557" y="138" type="curve" smooth="yes"/>
      <point x="559" y="130"/>
      <point x="564" y="129"/>
      <point x="575" y="131" type="curve" smooth="yes"/>
      <point x="585" y="134"/>
      <point x="588" y="137"/>
      <point x="586" y="145" type="curve" smooth="yes"/>
      <point x="551" y="322"/>
      <point x="526" y="523"/>
      <point x="516" y="692" type="curve" smooth="yes"/>
      <point x="515" y="706"/>
      <point x="508" y="712"/>
      <point x="495" y="712" type="curve" smooth="yes"/>
      <point x="485" y="712"/>
      <point x="479" y="707"/>
      <point x="475" y="697" type="curve" smooth="yes"/>
      <point x="233" y="100"/>
      <point x="169" y="16"/>
      <point x="89" y="16" type="curve" smooth="yes"/>
      <point x="76" y="16"/>
      <point x="61" y="19"/>
      <point x="46" y="25" type="curve" smooth="yes"/>
      <point x="40" y="27"/>
      <point x="33" y="25"/>
      <point x="29" y="15" type="curve" smooth="yes"/>
      <point x="25" y="5"/>
      <point x="31" y="-1"/>
      <point x="37" y="-4" type="curve" smooth="yes"/>
      <point x="51" y="-10"/>
      <point x="67" y="-14"/>
    </contour>
    <contour>
      <point x="284" y="230" type="line"/>
      <point x="555" y="230" type="line"/>
      <point x="550" y="256" type="line"/>
      <point x="294" y="256" type="line"/>
    </contour>
    <contour>
      <point x="755" y="-15" type="curve" smooth="yes"/>
      <point x="847" y="-15"/>
      <point x="926" y="20"/>
      <point x="984" y="92" type="curve" smooth="yes"/>
      <point x="993" y="103"/>
      <point x="993" y="110"/>
      <point x="985" y="116" type="curve" smooth="yes"/>
      <point x="977" y="123"/>
      <point x="972" y="123"/>
      <point x="964" y="114" type="curve" smooth="yes"/>
      <point x="905" y="44"/>
      <point x="838" y="15"/>
      <point x="756" y="15" type="curve" smooth="yes"/>
      <point x="634" y="15"/>
      <point x="586" y="86"/>
      <point x="586" y="196" type="curve" smooth="yes"/>
      <point x="586" y="295"/>
      <point x="662" y="353"/>
      <point x="775" y="353" type="curve" smooth="yes"/>
      <point x="867" y="353" type="line" smooth="yes"/>
      <point x="873" y="353"/>
      <point x="876" y="358"/>
      <point x="876" y="367" type="curve" smooth="yes"/>
      <point x="876" y="376"/>
      <point x="873" y="381"/>
      <point x="867" y="381" type="curve" smooth="yes"/>
      <point x="772" y="381" type="line" smooth="yes"/>
      <point x="677" y="381"/>
      <point x="625" y="443"/>
      <point x="625" y="537" type="curve" smooth="yes"/>
      <point x="625" y="624"/>
      <point x="691" y="682"/>
      <point x="783" y="682" type="curve" smooth="yes"/>
      <point x="841" y="682"/>
      <point x="889" y="663"/>
      <point x="942" y="617" type="curve" smooth="yes"/>
      <point x="951" y="610"/>
      <point x="958" y="608"/>
      <point x="965" y="615" type="curve" smooth="yes"/>
      <point x="976" y="626"/>
      <point x="969" y="631"/>
      <point x="965" y="636" type="curve" smooth="yes"/>
      <point x="919" y="684"/>
      <point x="850" y="712"/>
      <point x="785" y="712" type="curve" smooth="yes"/>
      <point x="675" y="712"/>
      <point x="593" y="640"/>
      <point x="593" y="536" type="curve" smooth="yes"/>
      <point x="593" y="455"/>
      <point x="630" y="392"/>
      <point x="708" y="368" type="curve"/>
      <point x="613" y="348"/>
      <point x="553" y="285"/>
      <point x="553" y="193" type="curve" smooth="yes"/>
      <point x="553" y="68"/>
      <point x="615" y="-15"/>
    </contour>
  </outline>
</glyph>
<glyph name="AE.cur.locl" format="2">
  <advance width="960"/>
  <anchor x="529" y="670" name="top"/>
  <outline>
    <contour>
      <point x="67" y="-14" type="curve" smooth="yes"/>
      <point x="174" y="-14"/>
      <point x="250" y="69"/>
      <point x="510" y="671" type="curve"/>
      <point x="527" y="671" type="line"/>
      <point x="527" y="700" type="line"/>
      <point x="510" y="700" type="line"/>
      <point x="494" y="700"/>
      <point x="489" y="693"/>
      <point x="484" y="682" type="curve" smooth="yes"/>
      <point x="222" y="95"/>
      <point x="153" y="16"/>
      <point x="66" y="16" type="curve" smooth="yes"/>
      <point x="53" y="16"/>
      <point x="41" y="19"/>
      <point x="26" y="25" type="curve" smooth="yes"/>
      <point x="20" y="27"/>
      <point x="13" y="25"/>
      <point x="9" y="15" type="curve" smooth="yes"/>
      <point x="5" y="5"/>
      <point x="11" y="-1"/>
      <point x="17" y="-4" type="curve" smooth="yes"/>
      <point x="31" y="-10"/>
      <point x="47" y="-14"/>
    </contour>
    <contour>
      <point x="525" y="336" type="line"/>
      <point x="525" y="364" type="line"/>
      <point x="353" y="364" type="line"/>
      <point x="343" y="336" type="line"/>
    </contour>
    <contour>
      <point x="741" y="0" type="line" smooth="yes"/>
      <point x="833" y="0"/>
      <point x="919" y="60"/>
      <point x="937" y="138" type="curve" smooth="yes"/>
      <point x="939" y="146"/>
      <point x="936" y="151"/>
      <point x="928" y="153" type="curve" smooth="yes"/>
      <point x="919" y="156"/>
      <point x="913" y="153"/>
      <point x="911" y="146" type="curve" smooth="yes"/>
      <point x="892" y="75"/>
      <point x="822" y="28"/>
      <point x="737" y="28" type="curve" smooth="yes"/>
      <point x="540" y="28" type="line"/>
      <point x="541" y="336" type="line"/>
      <point x="742" y="336" type="line" smooth="yes"/>
      <point x="747" y="336"/>
      <point x="751" y="340"/>
      <point x="751" y="350" type="curve" smooth="yes"/>
      <point x="751" y="360"/>
      <point x="747" y="364"/>
      <point x="742" y="364" type="curve" smooth="yes"/>
      <point x="541" y="364" type="line"/>
      <point x="540" y="672" type="line"/>
      <point x="831" y="672" type="line" smooth="yes"/>
      <point x="836" y="672"/>
      <point x="840" y="676"/>
      <point x="840" y="686" type="curve" smooth="yes"/>
      <point x="840" y="696"/>
      <point x="836" y="700"/>
      <point x="831" y="700" type="curve" smooth="yes"/>
      <point x="524" y="700" type="line" smooth="yes"/>
      <point x="513" y="700"/>
      <point x="510" y="697"/>
      <point x="510" y="688" type="curve" smooth="yes"/>
      <point x="510" y="12" type="line" smooth="yes"/>
      <point x="510" y="3"/>
      <point x="514" y="0"/>
      <point x="525" y="0" type="curve" smooth="yes"/>
    </contour>
  </outline>
</glyph>
<glyph name="AE.cur.locl.ini" format="2">
  <advance width="1100"/>
  <anchor x="661" y="838" name="top"/>
  <outline>
    <contour>
      <point x="84" y="-17" type="curve" smooth="yes"/>
      <point x="218" y="-17"/>
      <point x="313" y="86"/>
      <point x="638" y="839" type="curve"/>
      <point x="659" y="839" type="line"/>
      <point x="659" y="875" type="line"/>
      <point x="638" y="875" type="line"/>
      <point x="618" y="875"/>
      <point x="611" y="866"/>
      <point x="605" y="853" type="curve" smooth="yes"/>
      <point x="278" y="119"/>
      <point x="191" y="20"/>
      <point x="83" y="20" type="curve" smooth="yes"/>
      <point x="66" y="20"/>
      <point x="51" y="24"/>
      <point x="33" y="31" type="curve" smooth="yes"/>
      <point x="25" y="34"/>
      <point x="16" y="31"/>
      <point x="11" y="19" type="curve" smooth="yes"/>
      <point x="6" y="6"/>
      <point x="14" y="-1"/>
      <point x="21" y="-5" type="curve" smooth="yes"/>
      <point x="39" y="-12"/>
      <point x="59" y="-17"/>
    </contour>
    <contour>
      <point x="656" y="420" type="line"/>
      <point x="656" y="455" type="line"/>
      <point x="441" y="455" type="line"/>
      <point x="429" y="420" type="line"/>
    </contour>
    <contour>
      <point x="1044" y="-17" type="line" smooth="yes"/>
      <point x="1064" y="-17"/>
      <point x="1064" y="18"/>
      <point x="1044" y="18" type="curve" smooth="yes"/>
      <point x="675" y="18" type="line"/>
      <point x="676" y="420" type="line"/>
      <point x="928" y="420" type="line" smooth="yes"/>
      <point x="934" y="420"/>
      <point x="939" y="425"/>
      <point x="939" y="438" type="curve" smooth="yes"/>
      <point x="939" y="450"/>
      <point x="934" y="455"/>
      <point x="928" y="455" type="curve" smooth="yes"/>
      <point x="676" y="455" type="line"/>
      <point x="675" y="840" type="line"/>
      <point x="1039" y="840" type="line" smooth="yes"/>
      <point x="1045" y="840"/>
      <point x="1050" y="845"/>
      <point x="1050" y="858" type="curve" smooth="yes"/>
      <point x="1050" y="870"/>
      <point x="1045" y="875"/>
      <point x="1039" y="875" type="curve" smooth="yes"/>
      <point x="655" y="875" type="line" smooth="yes"/>
      <point x="641" y="875"/>
      <point x="638" y="871"/>
      <point x="638" y="860" type="curve" smooth="yes"/>
      <point x="638" y="-2" type="line" smooth="yes"/>
      <point x="638" y="-13"/>
      <point x="643" y="-17"/>
      <point x="656" y="-17" type="curve" smooth="yes"/>
    </contour>
  </outline>
</glyph>
<glyph name="B.cur" format="2">
	<advance width="715"/>
	<outline>
		<contour>
			<point x="421" y="-10" type="curve" smooth="yes"/>
			<point x="553" y="-10"/>
			<point x="655" y="90"/>
			<point x="655" y="219" type="curve" smooth="yes"/>
			<point x="655" y="319"/>
			<point x="583" y="383"/>
			<point x="468" y="384" type="curve"/>
			<point x="468" y="385" type="line"/>
			<point x="558" y="406"/>
			<point x="614" y="462"/>
			<point x="614" y="547" type="curve" smooth="yes"/>
			<point x="614" y="656"/>
			<point x="522" y="712"/>
			<point x="367" y="712" type="curve" smooth="yes"/>
			<point x="231" y="712"/>
			<point x="127" y="668"/>
			<point x="71" y="596" type="curve" smooth="yes"/>
			<point x="66" y="589"/>
			<point x="67" y="584"/>
			<point x="75" y="578" type="curve" smooth="yes"/>
			<point x="83" y="572"/>
			<point x="89" y="573"/>
			<point x="94" y="579" type="curve" smooth="yes"/>
			<point x="145" y="647"/>
			<point x="244" y="683"/>
			<point x="363" y="683" type="curve" smooth="yes"/>
			<point x="503" y="683"/>
			<point x="582" y="640"/>
			<point x="582" y="546" type="curve" smooth="yes"/>
			<point x="582" y="464"/>
			<point x="521" y="411"/>
			<point x="426" y="396" type="curve"/>
			<point x="414" y="401"/>
			<point x="401" y="403"/>
			<point x="386" y="403" type="curve"/>
			<point x="363" y="402"/>
			<point x="348" y="391"/>
			<point x="348" y="376" type="curve" smooth="yes"/>
			<point x="348" y="362"/>
			<point x="361" y="353"/>
			<point x="379" y="354" type="curve"/>
			<point x="392" y="354"/>
			<point x="410" y="358"/>
			<point x="427" y="366" type="curve"/>
			<point x="552" y="366"/>
			<point x="622" y="313"/>
			<point x="622" y="217" type="curve" smooth="yes"/>
			<point x="622" y="108"/>
			<point x="531" y="18"/>
			<point x="421" y="18" type="curve" smooth="yes"/>
			<point x="381" y="18"/>
			<point x="350" y="25"/>
			<point x="316" y="43" type="curve" smooth="yes"/>
			<point x="310" y="46"/>
			<point x="302" y="43"/>
			<point x="298" y="36" type="curve" smooth="yes"/>
			<point x="293" y="29"/>
			<point x="295" y="20"/>
			<point x="302" y="17" type="curve"/>
			<point x="332" y="0"/>
			<point x="377" y="-10"/>
		</contour>
		<contour>
			<point x="149" y="-14" type="curve" smooth="yes"/>
			<point x="215" y="-14"/>
			<point x="255" y="31"/>
			<point x="255" y="104" type="curve" smooth="yes"/>
			<point x="255" y="597" type="line" smooth="yes"/>
			<point x="255" y="605"/>
			<point x="251" y="609"/>
			<point x="241" y="609" type="curve" smooth="yes"/>
			<point x="230" y="609"/>
			<point x="225" y="606"/>
			<point x="225" y="597" type="curve" smooth="yes"/>
			<point x="225" y="111" type="line" smooth="yes"/>
			<point x="225" y="50"/>
			<point x="198" y="14"/>
			<point x="151" y="14" type="curve" smooth="yes"/>
			<point x="112" y="14"/>
			<point x="81" y="32"/>
			<point x="56" y="69" type="curve" smooth="yes"/>
			<point x="52" y="75"/>
			<point x="44" y="76"/>
			<point x="37" y="70" type="curve"/>
			<point x="30" y="66"/>
			<point x="28" y="59"/>
			<point x="32" y="53" type="curve" smooth="yes"/>
			<point x="58" y="10"/>
			<point x="100" y="-14"/>
		</contour>
	</outline>
	<anchor name="bottom" x="393" y="0"/>
	<anchor name="center" x="239" y="206"/>
	<anchor name="top" x="393" y="670"/>
	<guideline y="571"/>
</glyph>
<glyph name="B.dec" format="2">
  <advance width="735"/>
  <anchor x="408" y="0" name="bottom"/>
  <anchor x="207" y="206" name="center"/>
  <anchor x="408" y="670" name="top"/>
  <outline>
    <contour>
      <point x="441" y="-10" type="curve" smooth="yes"/>
      <point x="573" y="-10"/>
      <point x="675" y="90"/>
      <point x="675" y="219" type="curve" smooth="yes"/>
      <point x="675" y="319"/>
      <point x="603" y="383"/>
      <point x="488" y="384" type="curve"/>
      <point x="488" y="385" type="line"/>
      <point x="578" y="406"/>
      <point x="634" y="456"/>
      <point x="634" y="551" type="curve" smooth="yes"/>
      <point x="634" y="645"/>
      <point x="573" y="712"/>
      <point x="455" y="712" type="curve" smooth="yes"/>
      <point x="316" y="712"/>
      <point x="197" y="605"/>
      <point x="197" y="372" type="curve"/>
      <point x="221" y="372" type="line"/>
      <point x="221" y="580"/>
      <point x="330" y="684"/>
      <point x="451" y="684" type="curve" smooth="yes"/>
      <point x="554" y="684"/>
      <point x="602" y="629"/>
      <point x="602" y="550" type="curve" smooth="yes"/>
      <point x="602" y="458"/>
      <point x="541" y="411"/>
      <point x="446" y="396" type="curve"/>
      <point x="434" y="401"/>
      <point x="421" y="403"/>
      <point x="406" y="403" type="curve"/>
      <point x="383" y="402"/>
      <point x="368" y="391"/>
      <point x="368" y="376" type="curve" smooth="yes"/>
      <point x="368" y="362"/>
      <point x="381" y="353"/>
      <point x="399" y="354" type="curve"/>
      <point x="412" y="354"/>
      <point x="430" y="358"/>
      <point x="447" y="366" type="curve"/>
      <point x="572" y="366"/>
      <point x="642" y="313"/>
      <point x="642" y="217" type="curve" smooth="yes"/>
      <point x="642" y="108"/>
      <point x="551" y="18"/>
      <point x="441" y="18" type="curve" smooth="yes"/>
      <point x="401" y="18"/>
      <point x="370" y="25"/>
      <point x="336" y="43" type="curve" smooth="yes"/>
      <point x="330" y="46"/>
      <point x="322" y="43"/>
      <point x="318" y="36" type="curve" smooth="yes"/>
      <point x="313" y="29"/>
      <point x="315" y="20"/>
      <point x="322" y="17" type="curve"/>
      <point x="352" y="0"/>
      <point x="397" y="-10"/>
    </contour>
    <contour>
      <point x="206" y="-11" type="curve" smooth="yes"/>
      <point x="217" y="-11"/>
      <point x="221" y="-7"/>
      <point x="221" y="1" type="curve" smooth="yes"/>
      <point x="221" y="698" type="line" smooth="yes"/>
      <point x="221" y="706"/>
      <point x="216" y="710"/>
      <point x="207" y="710" type="curve" smooth="yes"/>
      <point x="198" y="710"/>
      <point x="190" y="706"/>
      <point x="189" y="700" type="curve" smooth="yes"/>
      <point x="167" y="600"/>
      <point x="124" y="530"/>
      <point x="34" y="485" type="curve" smooth="yes"/>
      <point x="28" y="482"/>
      <point x="26" y="477"/>
      <point x="31" y="467" type="curve" smooth="yes"/>
      <point x="35" y="459"/>
      <point x="39" y="457"/>
      <point x="47" y="461" type="curve" smooth="yes"/>
      <point x="142" y="512"/>
      <point x="183" y="573"/>
      <point x="210" y="685" type="curve"/>
      <point x="201" y="693" type="line"/>
      <point x="191" y="685" type="line"/>
      <point x="191" y="1" type="line" smooth="yes"/>
      <point x="191" y="-7"/>
      <point x="196" y="-11"/>
    </contour>
  </outline>
</glyph>
<glyph name="C.cur" format="2">
  <advance width="620"/>
  <anchor x="352" y="0" name="bottom"/>
  <anchor x="365" y="670" name="top"/>
  <outline>
    <contour>
      <point x="358" y="-15" type="curve" smooth="yes"/>
      <point x="440" y="-15"/>
      <point x="510" y="20"/>
      <point x="576" y="94" type="curve" smooth="yes"/>
      <point x="584" y="103"/>
      <point x="584" y="108"/>
      <point x="576" y="115" type="curve" smooth="yes"/>
      <point x="568" y="123"/>
      <point x="563" y="122"/>
      <point x="553" y="111" type="curve" smooth="yes"/>
      <point x="494" y="45"/>
      <point x="433" y="15"/>
      <point x="358" y="15" type="curve" smooth="yes"/>
      <point x="205" y="15"/>
      <point x="108" y="145"/>
      <point x="108" y="349" type="curve" smooth="yes"/>
      <point x="108" y="548"/>
      <point x="215" y="682"/>
      <point x="373" y="682" type="curve" smooth="yes"/>
      <point x="451" y="682"/>
      <point x="514" y="647"/>
      <point x="564" y="577" type="curve" smooth="yes"/>
      <point x="572" y="566"/>
      <point x="578" y="564"/>
      <point x="588" y="570" type="curve" smooth="yes"/>
      <point x="597" y="576"/>
      <point x="597" y="582"/>
      <point x="588" y="594" type="curve" smooth="yes"/>
      <point x="534" y="671"/>
      <point x="460" y="712"/>
      <point x="373" y="712" type="curve" smooth="yes"/>
      <point x="196" y="712"/>
      <point x="75" y="565"/>
      <point x="75" y="349" type="curve" smooth="yes"/>
      <point x="75" y="127"/>
      <point x="186" y="-15"/>
    </contour>
  </outline>
</glyph>
<glyph name="D.cur" format="2">
	<advance width="800"/>
	<outline>
		<contour>
			<point x="418" y="-10" type="curve" smooth="yes"/>
			<point x="602" y="-10"/>
			<point x="725" y="145"/>
			<point x="725" y="377" type="curve" smooth="yes"/>
			<point x="725" y="586"/>
			<point x="594" y="712"/>
			<point x="377" y="712" type="curve" smooth="yes"/>
			<point x="239" y="712"/>
			<point x="127" y="668"/>
			<point x="71" y="596" type="curve" smooth="yes"/>
			<point x="66" y="589"/>
			<point x="67" y="584"/>
			<point x="75" y="578" type="curve" smooth="yes"/>
			<point x="83" y="572"/>
			<point x="89" y="573"/>
			<point x="94" y="579" type="curve" smooth="yes"/>
			<point x="145" y="647"/>
			<point x="254" y="685"/>
			<point x="376" y="685" type="curve" smooth="yes"/>
			<point x="572" y="685"/>
			<point x="692" y="570"/>
			<point x="692" y="377" type="curve" smooth="yes"/>
			<point x="692" y="163"/>
			<point x="582" y="18"/>
			<point x="418" y="18" type="curve" smooth="yes"/>
			<point x="379" y="18"/>
			<point x="348" y="25"/>
			<point x="317" y="41" type="curve" smooth="yes"/>
			<point x="311" y="44"/>
			<point x="303" y="41"/>
			<point x="299" y="34" type="curve" smooth="yes"/>
			<point x="294" y="27"/>
			<point x="296" y="18"/>
			<point x="303" y="15" type="curve"/>
			<point x="330" y="0"/>
			<point x="376" y="-10"/>
		</contour>
		<contour>
			<point x="149" y="-14" type="curve" smooth="yes"/>
			<point x="215" y="-14"/>
			<point x="255" y="31"/>
			<point x="255" y="104" type="curve" smooth="yes"/>
			<point x="255" y="604" type="line" smooth="yes"/>
			<point x="255" y="612"/>
			<point x="251" y="616"/>
			<point x="241" y="616" type="curve" smooth="yes"/>
			<point x="230" y="616"/>
			<point x="225" y="613"/>
			<point x="225" y="604" type="curve" smooth="yes"/>
			<point x="225" y="111" type="line" smooth="yes"/>
			<point x="225" y="50"/>
			<point x="198" y="14"/>
			<point x="151" y="14" type="curve" smooth="yes"/>
			<point x="112" y="14"/>
			<point x="81" y="32"/>
			<point x="56" y="69" type="curve" smooth="yes"/>
			<point x="52" y="75"/>
			<point x="44" y="76"/>
			<point x="37" y="70" type="curve" smooth="yes"/>
			<point x="31" y="65"/>
			<point x="29" y="58"/>
			<point x="32" y="53" type="curve" smooth="yes"/>
			<point x="58" y="10"/>
			<point x="100" y="-14"/>
		</contour>
	</outline>
	<anchor name="bottom" x="421" y="-10"/>
	<anchor name="center" x="290" y="340"/>
	<anchor name="top" x="430" y="660"/>
</glyph>
<glyph name="D.dec" format="2">
  <advance width="812"/>
  <anchor x="421" y="-10" name="bottom"/>
  <anchor x="290" y="340" name="center"/>
  <anchor x="430" y="660" name="top"/>
  <outline>
    <contour>
      <point x="160" y="-17" type="curve" smooth="yes"/>
      <point x="225" y="-17"/>
      <point x="267" y="40"/>
      <point x="267" y="129" type="curve" smooth="yes"/>
      <point x="267" y="604" type="line" smooth="yes"/>
      <point x="267" y="612"/>
      <point x="263" y="616"/>
      <point x="253" y="616" type="curve" smooth="yes"/>
      <point x="242" y="616"/>
      <point x="237" y="613"/>
      <point x="237" y="604" type="curve" smooth="yes"/>
      <point x="237" y="129" type="line" smooth="yes"/>
      <point x="237" y="59"/>
      <point x="206" y="10"/>
      <point x="162" y="10" type="curve" smooth="yes"/>
      <point x="133" y="10"/>
      <point x="114" y="25"/>
      <point x="114" y="48" type="curve" smooth="yes"/>
      <point x="114" y="70"/>
      <point x="132" y="84"/>
      <point x="162" y="84" type="curve" smooth="yes"/>
      <point x="233" y="84"/>
      <point x="289" y="-9"/>
      <point x="436" y="-9" type="curve" smooth="yes"/>
      <point x="610" y="-9"/>
      <point x="737" y="115"/>
      <point x="737" y="347" type="curve" smooth="yes"/>
      <point x="737" y="573"/>
      <point x="584" y="712"/>
      <point x="338" y="712" type="curve" smooth="yes"/>
      <point x="202" y="712"/>
      <point x="88" y="663"/>
      <point x="64" y="536" type="curve" smooth="yes"/>
      <point x="63" y="529"/>
      <point x="68" y="524"/>
      <point x="77" y="523" type="curve" smooth="yes"/>
      <point x="86" y="522"/>
      <point x="91" y="526"/>
      <point x="93" y="534" type="curve" smooth="yes"/>
      <point x="117" y="645"/>
      <point x="217" y="684"/>
      <point x="336" y="684" type="curve" smooth="yes"/>
      <point x="560" y="684"/>
      <point x="704" y="560"/>
      <point x="704" y="347" type="curve" smooth="yes"/>
      <point x="704" y="133"/>
      <point x="590" y="18"/>
      <point x="436" y="18" type="curve" smooth="yes"/>
      <point x="311" y="18"/>
      <point x="250" y="112"/>
      <point x="160" y="112" type="curve" smooth="yes"/>
      <point x="113" y="112"/>
      <point x="81" y="85"/>
      <point x="81" y="45" type="curve" smooth="yes"/>
      <point x="81" y="8"/>
      <point x="113" y="-17"/>
    </contour>
  </outline>
</glyph>
<glyph name="E.cur" format="2">
	<advance width="558"/>
	<outline>
		<contour>
			<point x="298" y="-15" type="curve" smooth="yes"/>
			<point x="384" y="-15"/>
			<point x="453" y="20"/>
			<point x="511" y="92" type="curve" smooth="yes"/>
			<point x="520" y="103"/>
			<point x="520" y="110"/>
			<point x="512" y="116" type="curve" smooth="yes"/>
			<point x="504" y="123"/>
			<point x="499" y="123"/>
			<point x="491" y="114" type="curve" smooth="yes"/>
			<point x="432" y="44"/>
			<point x="375" y="15"/>
			<point x="299" y="15" type="curve" smooth="yes"/>
			<point x="181" y="15"/>
			<point x="113" y="78"/>
			<point x="113" y="188" type="curve" smooth="yes"/>
			<point x="113" y="287"/>
			<point x="189" y="353"/>
			<point x="302" y="353" type="curve" smooth="yes"/>
			<point x="394" y="353" type="line" smooth="yes"/>
			<point x="400" y="353"/>
			<point x="403" y="358"/>
			<point x="403" y="367" type="curve" smooth="yes"/>
			<point x="403" y="376"/>
			<point x="400" y="381"/>
			<point x="394" y="381" type="curve" smooth="yes"/>
			<point x="299" y="381" type="line" smooth="yes"/>
			<point x="204" y="381"/>
			<point x="142" y="443"/>
			<point x="142" y="537" type="curve" smooth="yes"/>
			<point x="142" y="624"/>
			<point x="207" y="682"/>
			<point x="305" y="682" type="curve" smooth="yes"/>
			<point x="369" y="682"/>
			<point x="416" y="663"/>
			<point x="469" y="617" type="curve" smooth="yes"/>
			<point x="478" y="610"/>
			<point x="485" y="608"/>
			<point x="492" y="615" type="curve" smooth="yes"/>
			<point x="503" y="626"/>
			<point x="496" y="631"/>
			<point x="492" y="636" type="curve" smooth="yes"/>
			<point x="446" y="684"/>
			<point x="378" y="712"/>
			<point x="307" y="712" type="curve" smooth="yes"/>
			<point x="191" y="712"/>
			<point x="110" y="640"/>
			<point x="110" y="536" type="curve" smooth="yes"/>
			<point x="110" y="455"/>
			<point x="157" y="392"/>
			<point x="235" y="368" type="curve"/>
			<point x="140" y="348"/>
			<point x="80" y="277"/>
			<point x="80" y="185" type="curve" smooth="yes"/>
			<point x="80" y="60"/>
			<point x="162" y="-15"/>
		</contour>
	</outline>
	<anchor name="bottom" x="294" y="0"/>
	<anchor name="ogonek" x="487" y="10"/>
	<anchor name="top" x="309" y="670"/>
</glyph>
<glyph name="F.cur" format="2">
  <advance width="593"/>
  <outline>
    <contour>
      <point x="151" y="-14" type="curve" smooth="yes"/>
      <point x="214" y="-14"/>
      <point x="257" y="28"/>
      <point x="257" y="108" type="curve" smooth="yes"/>
      <point x="257" y="336" type="line"/>
      <point x="514" y="336" type="line" smooth="yes"/>
      <point x="520" y="336"/>
      <point x="523" y="341"/>
      <point x="523" y="350" type="curve" smooth="yes"/>
      <point x="523" y="359"/>
      <point x="520" y="364"/>
      <point x="514" y="364" type="curve" smooth="yes"/>
      <point x="257" y="364" type="line"/>
      <point x="257" y="672" type="line"/>
      <point x="564" y="672" type="line" smooth="yes"/>
      <point x="570" y="672"/>
      <point x="573" y="677"/>
      <point x="573" y="686" type="curve" smooth="yes"/>
      <point x="573" y="695"/>
      <point x="570" y="700"/>
      <point x="564" y="700" type="curve" smooth="yes"/>
      <point x="213" y="700" type="line" smooth="yes"/>
      <point x="130" y="700"/>
      <point x="76" y="663"/>
      <point x="39" y="619" type="curve" smooth="yes"/>
      <point x="32" y="611"/>
      <point x="33" y="605"/>
      <point x="41" y="598" type="curve" smooth="yes"/>
      <point x="50" y="592"/>
      <point x="55" y="593"/>
      <point x="62" y="601" type="curve" smooth="yes"/>
      <point x="95" y="641"/>
      <point x="140" y="673"/>
      <point x="213" y="673" type="curve" smooth="yes"/>
      <point x="227" y="673" type="line"/>
      <point x="227" y="111" type="line" smooth="yes"/>
      <point x="227" y="46"/>
      <point x="197" y="14"/>
      <point x="153" y="14" type="curve" smooth="yes"/>
      <point x="124" y="14"/>
      <point x="89" y="23"/>
      <point x="58" y="69" type="curve" smooth="yes"/>
      <point x="53" y="76"/>
      <point x="45" y="75"/>
      <point x="39" y="70" type="curve" smooth="yes"/>
      <point x="34" y="66"/>
      <point x="30" y="59"/>
      <point x="34" y="53" type="curve" smooth="yes"/>
      <point x="62" y="7"/>
      <point x="105" y="-14"/>
    </contour>
  </outline>
</glyph>
<glyph name="F.cur_locl" format="2">
  <advance width="673"/>
  <outline>
    <contour>
      <point x="210" y="-14" type="curve" smooth="yes"/>
      <point x="361" y="-14"/>
      <point x="521" y="172"/>
      <point x="521" y="433" type="curve" smooth="yes"/>
      <point x="521" y="620"/>
      <point x="435" y="712"/>
      <point x="288" y="712" type="curve" smooth="yes"/>
      <point x="201" y="712"/>
      <point x="141" y="682"/>
      <point x="77" y="636" type="curve" smooth="yes"/>
      <point x="69" y="630"/>
      <point x="68" y="625"/>
      <point x="74" y="616" type="curve" smooth="yes"/>
      <point x="81" y="606"/>
      <point x="87" y="606"/>
      <point x="93" y="610" type="curve" smooth="yes"/>
      <point x="153" y="654"/>
      <point x="214" y="682"/>
      <point x="288" y="682" type="curve" smooth="yes"/>
      <point x="417" y="682"/>
      <point x="488" y="601"/>
      <point x="488" y="433" type="curve" smooth="yes"/>
      <point x="488" y="188"/>
      <point x="338" y="16"/>
      <point x="210" y="16" type="curve" smooth="yes"/>
      <point x="140" y="16"/>
      <point x="107" y="59"/>
      <point x="107" y="132" type="curve" smooth="yes"/>
      <point x="107" y="258"/>
      <point x="244" y="394"/>
      <point x="634" y="456" type="curve"/>
      <point x="615" y="465" type="line"/>
      <point x="615" y="372" type="line" smooth="yes"/>
      <point x="615" y="363"/>
      <point x="620" y="360"/>
      <point x="631" y="360" type="curve" smooth="yes"/>
      <point x="641" y="360"/>
      <point x="645" y="364"/>
      <point x="645" y="372" type="curve" smooth="yes"/>
      <point x="645" y="467" type="line" smooth="yes"/>
      <point x="645" y="478"/>
      <point x="639" y="486"/>
      <point x="629" y="484" type="curve" smooth="yes"/>
      <point x="211" y="415"/>
      <point x="74" y="265"/>
      <point x="74" y="132" type="curve" smooth="yes"/>
      <point x="74" y="41"/>
      <point x="120" y="-14"/>
    </contour>
  </outline>
</glyph>
<glyph name="F.dec" format="2">
  <advance width="745"/>
  <outline>
    <contour>
      <point x="285" y="-14" type="curve" smooth="yes"/>
      <point x="406" y="-14"/>
      <point x="513" y="68"/>
      <point x="513" y="270" type="curve" smooth="yes"/>
      <point x="513" y="641" type="line"/>
      <point x="483" y="641" type="line"/>
      <point x="483" y="270" type="line" smooth="yes"/>
      <point x="483" y="89"/>
      <point x="388" y="15"/>
      <point x="284" y="15" type="curve" smooth="yes"/>
      <point x="178" y="15"/>
      <point x="103" y="86"/>
      <point x="72" y="223" type="curve"/>
      <point x="63" y="208" type="line"/>
      <point x="137" y="184"/>
      <point x="188" y="176"/>
      <point x="276" y="176" type="curve" smooth="yes"/>
      <point x="282" y="176"/>
      <point x="285" y="183"/>
      <point x="285" y="192" type="curve" smooth="yes"/>
      <point x="285" y="202"/>
      <point x="282" y="206"/>
      <point x="276" y="206" type="curve" smooth="yes"/>
      <point x="195" y="206"/>
      <point x="141" y="215"/>
      <point x="78" y="236" type="curve" smooth="yes"/>
      <point x="73" y="238"/>
      <point x="65" y="241"/>
      <point x="54" y="231" type="curve" smooth="yes"/>
      <point x="43" y="221"/>
      <point x="46" y="209"/>
      <point x="47" y="205" type="curve" smooth="yes"/>
      <point x="80" y="62"/>
      <point x="159" y="-14"/>
    </contour>
    <contour>
      <point x="350" y="345" type="curve" smooth="yes"/>
      <point x="624" y="345" type="line" smooth="yes"/>
      <point x="630" y="345"/>
      <point x="633" y="351"/>
      <point x="633" y="360" type="curve" smooth="yes"/>
      <point x="633" y="369"/>
      <point x="630" y="373"/>
      <point x="624" y="373" type="curve" smooth="yes"/>
      <point x="350" y="373" type="line" smooth="yes"/>
      <point x="344" y="373"/>
      <point x="341" y="369"/>
      <point x="341" y="360" type="curve" smooth="yes"/>
      <point x="341" y="351"/>
      <point x="344" y="345"/>
    </contour>
    <contour>
      <point x="113" y="547" type="curve" smooth="yes"/>
      <point x="124" y="547"/>
      <point x="128" y="551"/>
      <point x="128" y="559" type="curve" smooth="yes"/>
      <point x="128" y="625"/>
      <point x="165" y="685"/>
      <point x="251" y="685" type="curve" smooth="yes"/>
      <point x="347" y="685"/>
      <point x="408" y="626"/>
      <point x="536" y="626" type="curve" smooth="yes"/>
      <point x="609" y="626"/>
      <point x="664" y="645"/>
      <point x="713" y="678" type="curve" smooth="yes"/>
      <point x="720" y="683"/>
      <point x="721" y="689"/>
      <point x="716" y="697" type="curve" smooth="yes"/>
      <point x="710" y="707"/>
      <point x="704" y="707"/>
      <point x="697" y="702" type="curve" smooth="yes"/>
      <point x="655" y="674"/>
      <point x="601" y="653"/>
      <point x="541" y="653" type="curve" smooth="yes"/>
      <point x="420" y="653"/>
      <point x="355" y="712"/>
      <point x="252" y="712" type="curve" smooth="yes"/>
      <point x="147" y="712"/>
      <point x="98" y="638"/>
      <point x="98" y="559" type="curve" smooth="yes"/>
      <point x="98" y="551"/>
      <point x="103" y="547"/>
    </contour>
  </outline>
</glyph>
